G04 #@! TF.FileFunction,Legend,Bot*
%FSLAX46Y46*%
G04 Gerber Fmt 4.6, Leading zero omitted, Abs format (unit mm)*
G04 Created by KiCad (PCBNEW 4.0.6) date 10/22/17 23:17:58*
%MOMM*%
%LPD*%
G01*
G04 APERTURE LIST*
%ADD10C,0.150000*%
%ADD11C,0.120000*%
%ADD12C,0.030000*%
%ADD13C,0.200000*%
G04 APERTURE END LIST*
D10*
X251401880Y-176549420D02*
X253301880Y-176549420D01*
X253301880Y-176549420D02*
X253301880Y-170049420D01*
X253301880Y-170049420D02*
X251601880Y-170049420D01*
X248301880Y-170049420D02*
X251601880Y-170049420D01*
X248301880Y-176549420D02*
X251401880Y-176549420D01*
X168001880Y-176549420D02*
X166251880Y-176549420D01*
X166251880Y-176549420D02*
X166251880Y-170049420D01*
X166251880Y-170049420D02*
X167451880Y-170049420D01*
X171251880Y-170049420D02*
X167501880Y-170049420D01*
X171251880Y-176549420D02*
X168001880Y-176549420D01*
X248301880Y-162999420D02*
X248301880Y-183049420D01*
X171251880Y-183049420D02*
X248251880Y-183049420D01*
X248301880Y-162999420D02*
X171251880Y-162949420D01*
X171251880Y-162949420D02*
X171251880Y-182999420D01*
X184651880Y-159229420D02*
X184651880Y-146329420D01*
X184651880Y-146329420D02*
X184951880Y-146329420D01*
X184851880Y-146329420D02*
X186951880Y-146329420D01*
X186951880Y-146329420D02*
X186951880Y-146029420D01*
X184851880Y-161729420D02*
X186951880Y-161729420D01*
X186951880Y-161729420D02*
X186951880Y-159229420D01*
X186951880Y-159229420D02*
X184651880Y-159229420D01*
X186951880Y-146029420D02*
X186951880Y-143929420D01*
X186951880Y-143929420D02*
X158551880Y-143929420D01*
X158551880Y-143929420D02*
X158551880Y-161729420D01*
X158951880Y-154529420D02*
X161451880Y-154529420D01*
X161451880Y-154529420D02*
X161451880Y-150729420D01*
X161451880Y-150729420D02*
X158951880Y-150729420D01*
X158951880Y-150729420D02*
X158951880Y-154429420D01*
X158551880Y-161729420D02*
X184851880Y-161729420D01*
D11*
X258091880Y-159409420D02*
X258091880Y-159609420D01*
X262231880Y-156609420D02*
X262441880Y-156809420D01*
X262231880Y-157909420D02*
X262441880Y-157709420D01*
X260941880Y-156609420D02*
X262231880Y-156609420D01*
X262441880Y-156809420D02*
X262441880Y-157709420D01*
X262231880Y-157909420D02*
X260941880Y-157909420D01*
X260941880Y-155159420D02*
X260941880Y-160859420D01*
X258091880Y-156409420D02*
X258091880Y-158109420D01*
X259141880Y-154559420D02*
X259931880Y-154559420D01*
X259931880Y-161459420D02*
X259141880Y-161459420D01*
X236281880Y-197559420D02*
X236281880Y-195559420D01*
X234141880Y-195559420D02*
X234141880Y-197559420D01*
X171521880Y-189469420D02*
X173521880Y-189469420D01*
X173521880Y-187329420D02*
X171521880Y-187329420D01*
X159386880Y-207719420D02*
X159386880Y-209719420D01*
X161526880Y-209719420D02*
X161526880Y-207719420D01*
X159386880Y-198829420D02*
X159386880Y-200829420D01*
X161526880Y-200829420D02*
X161526880Y-198829420D01*
X163266880Y-189469420D02*
X165266880Y-189469420D01*
X165266880Y-187329420D02*
X163266880Y-187329420D01*
D12*
X197119023Y-191295134D02*
X197219023Y-191152277D01*
X197290451Y-191295134D02*
X197290451Y-190995134D01*
X197176166Y-190995134D01*
X197147594Y-191009420D01*
X197133309Y-191023706D01*
X197119023Y-191052277D01*
X197119023Y-191095134D01*
X197133309Y-191123706D01*
X197147594Y-191137991D01*
X197176166Y-191152277D01*
X197290451Y-191152277D01*
X196990451Y-191295134D02*
X196990451Y-190995134D01*
X196876166Y-190995134D01*
X196847594Y-191009420D01*
X196833309Y-191023706D01*
X196819023Y-191052277D01*
X196819023Y-191095134D01*
X196833309Y-191123706D01*
X196847594Y-191137991D01*
X196876166Y-191152277D01*
X196990451Y-191152277D01*
X196690451Y-191295134D02*
X196690451Y-191095134D01*
X196690451Y-190995134D02*
X196704737Y-191009420D01*
X196690451Y-191023706D01*
X196676166Y-191009420D01*
X196690451Y-190995134D01*
X196690451Y-191023706D01*
X196619023Y-191323706D02*
X196390452Y-191323706D01*
X196333309Y-191209420D02*
X196190452Y-191209420D01*
X196361881Y-191295134D02*
X196261881Y-190995134D01*
X196161881Y-191295134D01*
X196061880Y-191180849D02*
X195833309Y-191180849D01*
X195947595Y-191295134D02*
X195947595Y-191066563D01*
X195761880Y-191323706D02*
X195533309Y-191323706D01*
X195361880Y-191137991D02*
X195319023Y-191152277D01*
X195304738Y-191166563D01*
X195290452Y-191195134D01*
X195290452Y-191237991D01*
X195304738Y-191266563D01*
X195319023Y-191280849D01*
X195347595Y-191295134D01*
X195461880Y-191295134D01*
X195461880Y-190995134D01*
X195361880Y-190995134D01*
X195333309Y-191009420D01*
X195319023Y-191023706D01*
X195304738Y-191052277D01*
X195304738Y-191080849D01*
X195319023Y-191109420D01*
X195333309Y-191123706D01*
X195361880Y-191137991D01*
X195461880Y-191137991D01*
X195161880Y-191180849D02*
X194933309Y-191180849D01*
X195047595Y-191295134D02*
X195047595Y-191066563D01*
X194861880Y-191323706D02*
X194633309Y-191323706D01*
X194576166Y-191023706D02*
X194561880Y-191009420D01*
X194533309Y-190995134D01*
X194461880Y-190995134D01*
X194433309Y-191009420D01*
X194419023Y-191023706D01*
X194404738Y-191052277D01*
X194404738Y-191080849D01*
X194419023Y-191123706D01*
X194590452Y-191295134D01*
X194404738Y-191295134D01*
X194176166Y-191137991D02*
X194133309Y-191152277D01*
X194119024Y-191166563D01*
X194104738Y-191195134D01*
X194104738Y-191237991D01*
X194119024Y-191266563D01*
X194133309Y-191280849D01*
X194161881Y-191295134D01*
X194276166Y-191295134D01*
X194276166Y-190995134D01*
X194176166Y-190995134D01*
X194147595Y-191009420D01*
X194133309Y-191023706D01*
X194119024Y-191052277D01*
X194119024Y-191080849D01*
X194133309Y-191109420D01*
X194147595Y-191123706D01*
X194176166Y-191137991D01*
X194276166Y-191137991D01*
X194047595Y-191323706D02*
X193819024Y-191323706D01*
X193747595Y-191295134D02*
X193747595Y-190995134D01*
X193747595Y-191137991D02*
X193576167Y-191137991D01*
X193576167Y-191295134D02*
X193576167Y-190995134D01*
X193304738Y-191295134D02*
X193304738Y-191137991D01*
X193319024Y-191109420D01*
X193347595Y-191095134D01*
X193404738Y-191095134D01*
X193433309Y-191109420D01*
X193304738Y-191280849D02*
X193333309Y-191295134D01*
X193404738Y-191295134D01*
X193433309Y-191280849D01*
X193447595Y-191252277D01*
X193447595Y-191223706D01*
X193433309Y-191195134D01*
X193404738Y-191180849D01*
X193333309Y-191180849D01*
X193304738Y-191166563D01*
X193204738Y-191095134D02*
X193090452Y-191095134D01*
X193161880Y-190995134D02*
X193161880Y-191252277D01*
X193147595Y-191280849D01*
X193119023Y-191295134D01*
X193090452Y-191295134D01*
D13*
X247713785Y-182542277D02*
X246189975Y-182542277D01*
X173213785Y-182142277D02*
X171689975Y-182142277D01*
X172451880Y-182904182D02*
X172451880Y-181380372D01*
D10*
X217154262Y-173251801D02*
X217725691Y-173251801D01*
X217439977Y-173251801D02*
X217439977Y-172251801D01*
X217535215Y-172394658D01*
X217630453Y-172489896D01*
X217725691Y-172537515D01*
X216582834Y-172680372D02*
X216678072Y-172632753D01*
X216725691Y-172585134D01*
X216773310Y-172489896D01*
X216773310Y-172442277D01*
X216725691Y-172347039D01*
X216678072Y-172299420D01*
X216582834Y-172251801D01*
X216392357Y-172251801D01*
X216297119Y-172299420D01*
X216249500Y-172347039D01*
X216201881Y-172442277D01*
X216201881Y-172489896D01*
X216249500Y-172585134D01*
X216297119Y-172632753D01*
X216392357Y-172680372D01*
X216582834Y-172680372D01*
X216678072Y-172727991D01*
X216725691Y-172775610D01*
X216773310Y-172870849D01*
X216773310Y-173061325D01*
X216725691Y-173156563D01*
X216678072Y-173204182D01*
X216582834Y-173251801D01*
X216392357Y-173251801D01*
X216297119Y-173204182D01*
X216249500Y-173156563D01*
X216201881Y-173061325D01*
X216201881Y-172870849D01*
X216249500Y-172775610D01*
X216297119Y-172727991D01*
X216392357Y-172680372D01*
X215344738Y-172251801D02*
X215535215Y-172251801D01*
X215630453Y-172299420D01*
X215678072Y-172347039D01*
X215773310Y-172489896D01*
X215820929Y-172680372D01*
X215820929Y-173061325D01*
X215773310Y-173156563D01*
X215725691Y-173204182D01*
X215630453Y-173251801D01*
X215439976Y-173251801D01*
X215344738Y-173204182D01*
X215297119Y-173156563D01*
X215249500Y-173061325D01*
X215249500Y-172823230D01*
X215297119Y-172727991D01*
X215344738Y-172680372D01*
X215439976Y-172632753D01*
X215630453Y-172632753D01*
X215725691Y-172680372D01*
X215773310Y-172727991D01*
X215820929Y-172823230D01*
X214344738Y-172251801D02*
X214820929Y-172251801D01*
X214868548Y-172727991D01*
X214820929Y-172680372D01*
X214725691Y-172632753D01*
X214487595Y-172632753D01*
X214392357Y-172680372D01*
X214344738Y-172727991D01*
X214297119Y-172823230D01*
X214297119Y-173061325D01*
X214344738Y-173156563D01*
X214392357Y-173204182D01*
X214487595Y-173251801D01*
X214725691Y-173251801D01*
X214820929Y-173204182D01*
X214868548Y-173156563D01*
X213678072Y-172251801D02*
X213582833Y-172251801D01*
X213487595Y-172299420D01*
X213439976Y-172347039D01*
X213392357Y-172442277D01*
X213344738Y-172632753D01*
X213344738Y-172870849D01*
X213392357Y-173061325D01*
X213439976Y-173156563D01*
X213487595Y-173204182D01*
X213582833Y-173251801D01*
X213678072Y-173251801D01*
X213773310Y-173204182D01*
X213820929Y-173156563D01*
X213868548Y-173061325D01*
X213916167Y-172870849D01*
X213916167Y-172632753D01*
X213868548Y-172442277D01*
X213820929Y-172347039D01*
X213773310Y-172299420D01*
X213678072Y-172251801D01*
X211820928Y-172727991D02*
X211678071Y-172775610D01*
X211630452Y-172823230D01*
X211582833Y-172918468D01*
X211582833Y-173061325D01*
X211630452Y-173156563D01*
X211678071Y-173204182D01*
X211773309Y-173251801D01*
X212154262Y-173251801D01*
X212154262Y-172251801D01*
X211820928Y-172251801D01*
X211725690Y-172299420D01*
X211678071Y-172347039D01*
X211630452Y-172442277D01*
X211630452Y-172537515D01*
X211678071Y-172632753D01*
X211725690Y-172680372D01*
X211820928Y-172727991D01*
X212154262Y-172727991D01*
X210725690Y-173251801D02*
X210725690Y-172727991D01*
X210773309Y-172632753D01*
X210868547Y-172585134D01*
X211059024Y-172585134D01*
X211154262Y-172632753D01*
X210725690Y-173204182D02*
X210820928Y-173251801D01*
X211059024Y-173251801D01*
X211154262Y-173204182D01*
X211201881Y-173108944D01*
X211201881Y-173013706D01*
X211154262Y-172918468D01*
X211059024Y-172870849D01*
X210820928Y-172870849D01*
X210725690Y-172823230D01*
X210392357Y-172585134D02*
X210011405Y-172585134D01*
X210249500Y-172251801D02*
X210249500Y-173108944D01*
X210201881Y-173204182D01*
X210106643Y-173251801D01*
X210011405Y-173251801D01*
X209820928Y-172585134D02*
X209439976Y-172585134D01*
X209678071Y-172251801D02*
X209678071Y-173108944D01*
X209630452Y-173204182D01*
X209535214Y-173251801D01*
X209439976Y-173251801D01*
X208725689Y-173204182D02*
X208820927Y-173251801D01*
X209011404Y-173251801D01*
X209106642Y-173204182D01*
X209154261Y-173108944D01*
X209154261Y-172727991D01*
X209106642Y-172632753D01*
X209011404Y-172585134D01*
X208820927Y-172585134D01*
X208725689Y-172632753D01*
X208678070Y-172727991D01*
X208678070Y-172823230D01*
X209154261Y-172918468D01*
X208249499Y-173251801D02*
X208249499Y-172585134D01*
X208249499Y-172775610D02*
X208201880Y-172680372D01*
X208154261Y-172632753D01*
X208059023Y-172585134D01*
X207963784Y-172585134D01*
X207725689Y-172585134D02*
X207487594Y-173251801D01*
X207249498Y-172585134D02*
X207487594Y-173251801D01*
X207582832Y-173489896D01*
X207630451Y-173537515D01*
X207725689Y-173585134D01*
X206106641Y-173251801D02*
X206106641Y-172251801D01*
X206106641Y-172727991D02*
X205535212Y-172727991D01*
X205535212Y-173251801D02*
X205535212Y-172251801D01*
X204916165Y-173251801D02*
X205011403Y-173204182D01*
X205059022Y-173156563D01*
X205106641Y-173061325D01*
X205106641Y-172775610D01*
X205059022Y-172680372D01*
X205011403Y-172632753D01*
X204916165Y-172585134D01*
X204773307Y-172585134D01*
X204678069Y-172632753D01*
X204630450Y-172680372D01*
X204582831Y-172775610D01*
X204582831Y-173061325D01*
X204630450Y-173156563D01*
X204678069Y-173204182D01*
X204773307Y-173251801D01*
X204916165Y-173251801D01*
X204011403Y-173251801D02*
X204106641Y-173204182D01*
X204154260Y-173108944D01*
X204154260Y-172251801D01*
X203201878Y-173251801D02*
X203201878Y-172251801D01*
X203201878Y-173204182D02*
X203297116Y-173251801D01*
X203487593Y-173251801D01*
X203582831Y-173204182D01*
X203630450Y-173156563D01*
X203678069Y-173061325D01*
X203678069Y-172775610D01*
X203630450Y-172680372D01*
X203582831Y-172632753D01*
X203487593Y-172585134D01*
X203297116Y-172585134D01*
X203201878Y-172632753D01*
X202344735Y-173204182D02*
X202439973Y-173251801D01*
X202630450Y-173251801D01*
X202725688Y-173204182D01*
X202773307Y-173108944D01*
X202773307Y-172727991D01*
X202725688Y-172632753D01*
X202630450Y-172585134D01*
X202439973Y-172585134D01*
X202344735Y-172632753D01*
X202297116Y-172727991D01*
X202297116Y-172823230D01*
X202773307Y-172918468D01*
X201868545Y-173251801D02*
X201868545Y-172585134D01*
X201868545Y-172775610D02*
X201820926Y-172680372D01*
X201773307Y-172632753D01*
X201678069Y-172585134D01*
X201582830Y-172585134D01*
X177894738Y-152757991D02*
X177751881Y-152805610D01*
X177704262Y-152853230D01*
X177656643Y-152948468D01*
X177656643Y-153091325D01*
X177704262Y-153186563D01*
X177751881Y-153234182D01*
X177847119Y-153281801D01*
X178228072Y-153281801D01*
X178228072Y-152281801D01*
X177894738Y-152281801D01*
X177799500Y-152329420D01*
X177751881Y-152377039D01*
X177704262Y-152472277D01*
X177704262Y-152567515D01*
X177751881Y-152662753D01*
X177799500Y-152710372D01*
X177894738Y-152757991D01*
X178228072Y-152757991D01*
X176799500Y-153281801D02*
X176799500Y-152757991D01*
X176847119Y-152662753D01*
X176942357Y-152615134D01*
X177132834Y-152615134D01*
X177228072Y-152662753D01*
X176799500Y-153234182D02*
X176894738Y-153281801D01*
X177132834Y-153281801D01*
X177228072Y-153234182D01*
X177275691Y-153138944D01*
X177275691Y-153043706D01*
X177228072Y-152948468D01*
X177132834Y-152900849D01*
X176894738Y-152900849D01*
X176799500Y-152853230D01*
X176466167Y-152615134D02*
X176085215Y-152615134D01*
X176323310Y-152281801D02*
X176323310Y-153138944D01*
X176275691Y-153234182D01*
X176180453Y-153281801D01*
X176085215Y-153281801D01*
X175894738Y-152615134D02*
X175513786Y-152615134D01*
X175751881Y-152281801D02*
X175751881Y-153138944D01*
X175704262Y-153234182D01*
X175609024Y-153281801D01*
X175513786Y-153281801D01*
X174799499Y-153234182D02*
X174894737Y-153281801D01*
X175085214Y-153281801D01*
X175180452Y-153234182D01*
X175228071Y-153138944D01*
X175228071Y-152757991D01*
X175180452Y-152662753D01*
X175085214Y-152615134D01*
X174894737Y-152615134D01*
X174799499Y-152662753D01*
X174751880Y-152757991D01*
X174751880Y-152853230D01*
X175228071Y-152948468D01*
X174323309Y-153281801D02*
X174323309Y-152615134D01*
X174323309Y-152805610D02*
X174275690Y-152710372D01*
X174228071Y-152662753D01*
X174132833Y-152615134D01*
X174037594Y-152615134D01*
X173799499Y-152615134D02*
X173561404Y-153281801D01*
X173323308Y-152615134D02*
X173561404Y-153281801D01*
X173656642Y-153519896D01*
X173704261Y-153567515D01*
X173799499Y-153615134D01*
X171609022Y-153186563D02*
X171656641Y-153234182D01*
X171799498Y-153281801D01*
X171894736Y-153281801D01*
X172037594Y-153234182D01*
X172132832Y-153138944D01*
X172180451Y-153043706D01*
X172228070Y-152853230D01*
X172228070Y-152710372D01*
X172180451Y-152519896D01*
X172132832Y-152424658D01*
X172037594Y-152329420D01*
X171894736Y-152281801D01*
X171799498Y-152281801D01*
X171656641Y-152329420D01*
X171609022Y-152377039D01*
X171180451Y-153281801D02*
X171180451Y-152281801D01*
X170751879Y-153281801D02*
X170751879Y-152757991D01*
X170799498Y-152662753D01*
X170894736Y-152615134D01*
X171037594Y-152615134D01*
X171132832Y-152662753D01*
X171180451Y-152710372D01*
X169847117Y-153281801D02*
X169847117Y-152757991D01*
X169894736Y-152662753D01*
X169989974Y-152615134D01*
X170180451Y-152615134D01*
X170275689Y-152662753D01*
X169847117Y-153234182D02*
X169942355Y-153281801D01*
X170180451Y-153281801D01*
X170275689Y-153234182D01*
X170323308Y-153138944D01*
X170323308Y-153043706D01*
X170275689Y-152948468D01*
X170180451Y-152900849D01*
X169942355Y-152900849D01*
X169847117Y-152853230D01*
X169370927Y-153281801D02*
X169370927Y-152615134D01*
X169370927Y-152805610D02*
X169323308Y-152710372D01*
X169275689Y-152662753D01*
X169180451Y-152615134D01*
X169085212Y-152615134D01*
X168323307Y-152615134D02*
X168323307Y-153424658D01*
X168370926Y-153519896D01*
X168418545Y-153567515D01*
X168513784Y-153615134D01*
X168656641Y-153615134D01*
X168751879Y-153567515D01*
X168323307Y-153234182D02*
X168418545Y-153281801D01*
X168609022Y-153281801D01*
X168704260Y-153234182D01*
X168751879Y-153186563D01*
X168799498Y-153091325D01*
X168799498Y-152805610D01*
X168751879Y-152710372D01*
X168704260Y-152662753D01*
X168609022Y-152615134D01*
X168418545Y-152615134D01*
X168323307Y-152662753D01*
X167466164Y-153234182D02*
X167561402Y-153281801D01*
X167751879Y-153281801D01*
X167847117Y-153234182D01*
X167894736Y-153138944D01*
X167894736Y-152757991D01*
X167847117Y-152662753D01*
X167751879Y-152615134D01*
X167561402Y-152615134D01*
X167466164Y-152662753D01*
X167418545Y-152757991D01*
X167418545Y-152853230D01*
X167894736Y-152948468D01*
X166989974Y-153281801D02*
X166989974Y-152615134D01*
X166989974Y-152805610D02*
X166942355Y-152710372D01*
X166894736Y-152662753D01*
X166799498Y-152615134D01*
X166704259Y-152615134D01*
X165085211Y-153281801D02*
X165656640Y-153281801D01*
X165370926Y-153281801D02*
X165370926Y-152281801D01*
X165466164Y-152424658D01*
X165561402Y-152519896D01*
X165656640Y-152567515D01*
X164704259Y-152996087D02*
X164228068Y-152996087D01*
X164799497Y-153281801D02*
X164466164Y-152281801D01*
X164132830Y-153281801D01*
X161113784Y-147529420D02*
X161209022Y-147481801D01*
X161351879Y-147481801D01*
X161494737Y-147529420D01*
X161589975Y-147624658D01*
X161637594Y-147719896D01*
X161685213Y-147910372D01*
X161685213Y-148053230D01*
X161637594Y-148243706D01*
X161589975Y-148338944D01*
X161494737Y-148434182D01*
X161351879Y-148481801D01*
X161256641Y-148481801D01*
X161113784Y-148434182D01*
X161066165Y-148386563D01*
X161066165Y-148053230D01*
X161256641Y-148053230D01*
X160637594Y-148481801D02*
X160637594Y-147481801D01*
X160066165Y-148481801D01*
X160066165Y-147481801D01*
X159589975Y-148481801D02*
X159589975Y-147481801D01*
X159351880Y-147481801D01*
X159209022Y-147529420D01*
X159113784Y-147624658D01*
X159066165Y-147719896D01*
X159018546Y-147910372D01*
X159018546Y-148053230D01*
X159066165Y-148243706D01*
X159113784Y-148338944D01*
X159209022Y-148434182D01*
X159351880Y-148481801D01*
X159589975Y-148481801D01*
X160394737Y-157081801D02*
X160870928Y-157081801D01*
X160918547Y-157557991D01*
X160870928Y-157510372D01*
X160775690Y-157462753D01*
X160537594Y-157462753D01*
X160442356Y-157510372D01*
X160394737Y-157557991D01*
X160347118Y-157653230D01*
X160347118Y-157891325D01*
X160394737Y-157986563D01*
X160442356Y-158034182D01*
X160537594Y-158081801D01*
X160775690Y-158081801D01*
X160870928Y-158034182D01*
X160918547Y-157986563D01*
X160013785Y-157415134D02*
X159775690Y-158081801D01*
X159537594Y-157415134D01*
X180799498Y-156557991D02*
X180656641Y-156605610D01*
X180609022Y-156653230D01*
X180561403Y-156748468D01*
X180561403Y-156891325D01*
X180609022Y-156986563D01*
X180656641Y-157034182D01*
X180751879Y-157081801D01*
X181132832Y-157081801D01*
X181132832Y-156081801D01*
X180799498Y-156081801D01*
X180704260Y-156129420D01*
X180656641Y-156177039D01*
X180609022Y-156272277D01*
X180609022Y-156367515D01*
X180656641Y-156462753D01*
X180704260Y-156510372D01*
X180799498Y-156557991D01*
X181132832Y-156557991D01*
X180132832Y-156700849D02*
X179370927Y-156700849D01*
X179751879Y-157081801D02*
X179751879Y-156319896D01*
X180799498Y-148957991D02*
X180656641Y-149005610D01*
X180609022Y-149053230D01*
X180561403Y-149148468D01*
X180561403Y-149291325D01*
X180609022Y-149386563D01*
X180656641Y-149434182D01*
X180751879Y-149481801D01*
X181132832Y-149481801D01*
X181132832Y-148481801D01*
X180799498Y-148481801D01*
X180704260Y-148529420D01*
X180656641Y-148577039D01*
X180609022Y-148672277D01*
X180609022Y-148767515D01*
X180656641Y-148862753D01*
X180704260Y-148910372D01*
X180799498Y-148957991D01*
X181132832Y-148957991D01*
X180132832Y-149100849D02*
X179370927Y-149100849D01*
X180904261Y-159581801D02*
X180713784Y-159581801D01*
X180618546Y-159629420D01*
X180523308Y-159724658D01*
X180475689Y-159915134D01*
X180475689Y-160248468D01*
X180523308Y-160438944D01*
X180618546Y-160534182D01*
X180713784Y-160581801D01*
X180904261Y-160581801D01*
X180999499Y-160534182D01*
X181094737Y-160438944D01*
X181142356Y-160248468D01*
X181142356Y-159915134D01*
X181094737Y-159724658D01*
X180999499Y-159629420D01*
X180904261Y-159581801D01*
X179618546Y-159915134D02*
X179618546Y-160581801D01*
X180047118Y-159915134D02*
X180047118Y-160438944D01*
X179999499Y-160534182D01*
X179904261Y-160581801D01*
X179761403Y-160581801D01*
X179666165Y-160534182D01*
X179618546Y-160486563D01*
X179285213Y-159915134D02*
X178904261Y-159915134D01*
X179142356Y-159581801D02*
X179142356Y-160438944D01*
X179094737Y-160534182D01*
X178999499Y-160581801D01*
X178904261Y-160581801D01*
X178570927Y-160200849D02*
X177809022Y-160200849D01*
X178189974Y-160581801D02*
X178189974Y-159819896D01*
X180904261Y-144981801D02*
X180713784Y-144981801D01*
X180618546Y-145029420D01*
X180523308Y-145124658D01*
X180475689Y-145315134D01*
X180475689Y-145648468D01*
X180523308Y-145838944D01*
X180618546Y-145934182D01*
X180713784Y-145981801D01*
X180904261Y-145981801D01*
X180999499Y-145934182D01*
X181094737Y-145838944D01*
X181142356Y-145648468D01*
X181142356Y-145315134D01*
X181094737Y-145124658D01*
X180999499Y-145029420D01*
X180904261Y-144981801D01*
X179618546Y-145315134D02*
X179618546Y-145981801D01*
X180047118Y-145315134D02*
X180047118Y-145838944D01*
X179999499Y-145934182D01*
X179904261Y-145981801D01*
X179761403Y-145981801D01*
X179666165Y-145934182D01*
X179618546Y-145886563D01*
X179285213Y-145315134D02*
X178904261Y-145315134D01*
X179142356Y-144981801D02*
X179142356Y-145838944D01*
X179094737Y-145934182D01*
X178999499Y-145981801D01*
X178904261Y-145981801D01*
X178570927Y-145600849D02*
X177809022Y-145600849D01*
X159604261Y-151367515D02*
X160413785Y-151367515D01*
X160509023Y-151415134D01*
X160556642Y-151462753D01*
X160604261Y-151557991D01*
X160604261Y-151748468D01*
X160556642Y-151843706D01*
X160509023Y-151891325D01*
X160413785Y-151938944D01*
X159604261Y-151938944D01*
X160556642Y-152367515D02*
X160604261Y-152510372D01*
X160604261Y-152748468D01*
X160556642Y-152843706D01*
X160509023Y-152891325D01*
X160413785Y-152938944D01*
X160318547Y-152938944D01*
X160223309Y-152891325D01*
X160175690Y-152843706D01*
X160128070Y-152748468D01*
X160080451Y-152557991D01*
X160032832Y-152462753D01*
X159985213Y-152415134D01*
X159889975Y-152367515D01*
X159794737Y-152367515D01*
X159699499Y-152415134D01*
X159651880Y-152462753D01*
X159604261Y-152557991D01*
X159604261Y-152796087D01*
X159651880Y-152938944D01*
X160080451Y-153700849D02*
X160128070Y-153843706D01*
X160175690Y-153891325D01*
X160270928Y-153938944D01*
X160413785Y-153938944D01*
X160509023Y-153891325D01*
X160556642Y-153843706D01*
X160604261Y-153748468D01*
X160604261Y-153367515D01*
X159604261Y-153367515D01*
X159604261Y-153700849D01*
X159651880Y-153796087D01*
X159699499Y-153843706D01*
X159794737Y-153891325D01*
X159889975Y-153891325D01*
X159985213Y-153843706D01*
X160032832Y-153796087D01*
X160080451Y-153700849D01*
X160080451Y-153367515D01*
X162932832Y-145000849D02*
X162170927Y-145000849D01*
X162832832Y-160200849D02*
X162070927Y-160200849D01*
X162451879Y-160581801D02*
X162451879Y-159819896D01*
M02*
