M48
;DRILL file {KiCad 4.0.6} date 10/22/17 23:18:03
;FORMAT={-:-/ absolute / metric / decimal}
FMAT,2
METRIC,TZ
T1C0.635
T2C0.762
T3C0.800
T4C1.000
T5C1.016
T6C1.540
T7C3.000
%
G90
G05
M71
T1
X160.512Y-210.659
X160.612Y-201.759
X172.012Y-201.009
X174.462Y-188.409
X190.412Y-179.409
X193.012Y-209.109
X206.362Y-203.759
X206.662Y-201.959
X206.712Y-207.309
X207.962Y-206.259
X208.612Y-204.859
X212.112Y-151.459
X214.212Y-176.809
X217.962Y-209.759
X218.862Y-208.409
X218.962Y-184.809
X219.462Y-215.009
X220.062Y-207.659
X228.312Y-217.609
X230.162Y-218.859
X231.762Y-219.409
X235.062Y-202.759
X238.912Y-201.809
X243.912Y-201.909
T2
X198.564Y-147.231
X201.105Y-147.231
X203.644Y-147.231
X206.184Y-147.231
X208.724Y-147.231
X211.264Y-147.231
X213.804Y-147.231
X216.344Y-147.231
X218.885Y-147.231
X221.424Y-147.231
T3
X229.152Y-191.544
X229.152Y-194.084
X229.152Y-196.624
X229.152Y-199.164
X229.152Y-201.704
X235.612Y-211.439
X235.612Y-219.059
X238.152Y-211.439
X238.152Y-219.059
X240.692Y-211.439
X240.692Y-219.059
X243.232Y-211.439
X243.232Y-219.059
X245.772Y-211.439
X245.772Y-219.059
X248.312Y-211.439
X248.312Y-219.059
X250.852Y-211.439
X250.852Y-219.059
X253.392Y-211.439
X253.392Y-219.059
T4
X200.912Y-185.759
X203.452Y-185.759
X205.992Y-185.759
X208.532Y-185.759
X211.072Y-185.759
T5
X171.082Y-192.889
X171.082Y-195.429
X173.622Y-192.889
X173.622Y-195.429
X176.162Y-192.889
X176.162Y-195.429
X178.702Y-192.889
X178.702Y-195.429
X181.242Y-192.889
X181.242Y-195.429
X183.782Y-192.889
X183.782Y-195.429
X186.322Y-192.889
X186.322Y-195.429
X188.862Y-192.889
X188.862Y-195.429
X191.402Y-192.889
X191.402Y-195.429
X193.942Y-192.889
X193.942Y-195.429
X196.482Y-192.889
X196.482Y-195.429
X199.022Y-192.889
X199.022Y-195.429
X201.562Y-192.889
X201.562Y-195.429
X204.102Y-192.889
X204.102Y-195.429
X206.642Y-192.889
X206.642Y-195.429
X209.182Y-192.889
X209.182Y-195.429
X211.722Y-192.889
X211.722Y-195.429
X214.262Y-192.889
X214.262Y-195.429
X216.802Y-192.889
X216.802Y-195.429
X219.342Y-192.889
X219.342Y-195.429
T6
X160.252Y-145.829
X160.252Y-160.029
X183.152Y-145.529
X183.152Y-148.929
X183.152Y-156.529
X183.152Y-160.029
T7
X231.312Y-186.259
X231.312Y-207.059
X257.812Y-186.259
X257.812Y-207.059
T0
M30
