G04 #@! TF.FileFunction,Copper,L1,Top,Signal*
%FSLAX46Y46*%
G04 Gerber Fmt 4.6, Leading zero omitted, Abs format (unit mm)*
G04 Created by KiCad (PCBNEW 4.0.6) date 10/22/17 23:17:58*
%MOMM*%
%LPD*%
G01*
G04 APERTURE LIST*
%ADD10C,0.150000*%
%ADD11C,1.524000*%
%ADD12R,1.727200X1.727200*%
%ADD13C,1.727200*%
%ADD14R,2.800000X2.800000*%
%ADD15R,1.600000X1.600000*%
%ADD16O,1.600000X1.600000*%
%ADD17R,1.700000X1.700000*%
%ADD18O,1.700000X1.700000*%
%ADD19C,3.000000*%
%ADD20C,1.600000*%
%ADD21R,1.550000X1.300000*%
%ADD22C,0.889000*%
%ADD23C,0.254000*%
G04 APERTURE END LIST*
D10*
D11*
X198564500Y-147231100D03*
X201104500Y-147231100D03*
X203644500Y-147231100D03*
X206184500Y-147231100D03*
X208724500Y-147231100D03*
X211264500Y-147231100D03*
X213804500Y-147231100D03*
X216344500Y-147231100D03*
X218884500Y-147231100D03*
X221424500Y-147231100D03*
D12*
X219341880Y-195429420D03*
D13*
X219341880Y-192889420D03*
X216801880Y-195429420D03*
X216801880Y-192889420D03*
X214261880Y-195429420D03*
X214261880Y-192889420D03*
X211721880Y-195429420D03*
X211721880Y-192889420D03*
X209181880Y-195429420D03*
X209181880Y-192889420D03*
X206641880Y-195429420D03*
X206641880Y-192889420D03*
X204101880Y-195429420D03*
X204101880Y-192889420D03*
X201561880Y-195429420D03*
X201561880Y-192889420D03*
X199021880Y-195429420D03*
X199021880Y-192889420D03*
X196481880Y-195429420D03*
X196481880Y-192889420D03*
X193941880Y-195429420D03*
X193941880Y-192889420D03*
X191401880Y-195429420D03*
X191401880Y-192889420D03*
X188861880Y-195429420D03*
X188861880Y-192889420D03*
X186321880Y-195429420D03*
X186321880Y-192889420D03*
X183781880Y-195429420D03*
X183781880Y-192889420D03*
X181241880Y-195429420D03*
X181241880Y-192889420D03*
X178701880Y-195429420D03*
X178701880Y-192889420D03*
X176161880Y-195429420D03*
X176161880Y-192889420D03*
X173621880Y-195429420D03*
X173621880Y-192889420D03*
X171081880Y-195429420D03*
X171081880Y-192889420D03*
D14*
X183151880Y-148929420D03*
X183151880Y-156529420D03*
X183151880Y-145529420D03*
X183151880Y-160029420D03*
X160251880Y-145829420D03*
X160251880Y-160029420D03*
D15*
X235611880Y-219059420D03*
D16*
X253391880Y-211439420D03*
X238151880Y-219059420D03*
X250851880Y-211439420D03*
X240691880Y-219059420D03*
X248311880Y-211439420D03*
X243231880Y-219059420D03*
X245771880Y-211439420D03*
X245771880Y-219059420D03*
X243231880Y-211439420D03*
X248311880Y-219059420D03*
X240691880Y-211439420D03*
X250851880Y-219059420D03*
X238151880Y-211439420D03*
X253391880Y-219059420D03*
X235611880Y-211439420D03*
D17*
X200911880Y-185759420D03*
D18*
X203451880Y-185759420D03*
X205991880Y-185759420D03*
X208531880Y-185759420D03*
X211071880Y-185759420D03*
D19*
X257811880Y-186259420D03*
X257811880Y-207059420D03*
X231311880Y-207059420D03*
X231311880Y-186259420D03*
D20*
X229151880Y-191544420D03*
X229151880Y-194084420D03*
X229151880Y-196624420D03*
X229151880Y-199164420D03*
X229151880Y-201704420D03*
D21*
X174261880Y-199484420D03*
X182211880Y-199484420D03*
X174261880Y-203984420D03*
X182211880Y-203984420D03*
X174261880Y-213454420D03*
X182211880Y-213454420D03*
X174261880Y-217954420D03*
X182211880Y-217954420D03*
X163466880Y-206469420D03*
X171416880Y-206469420D03*
X163466880Y-210969420D03*
X171416880Y-210969420D03*
X185056880Y-206469420D03*
X193006880Y-206469420D03*
X185056880Y-210969420D03*
X193006880Y-210969420D03*
D22*
X190411880Y-179409420D03*
X218961880Y-184809420D03*
X193011880Y-209109420D03*
X214211880Y-176809420D03*
X212111880Y-151459420D03*
X235061880Y-202759420D03*
X243911880Y-201909420D03*
X238911880Y-201809420D03*
X231761880Y-219409420D03*
X220061880Y-207659420D03*
X208611880Y-204859420D03*
X206661880Y-201959420D03*
X230161880Y-218859420D03*
X218861880Y-208409420D03*
X207961880Y-206259420D03*
X206361880Y-203759420D03*
X228311880Y-217609420D03*
X217961880Y-209759420D03*
X206711880Y-207309420D03*
X219461880Y-215009420D03*
X174461880Y-188409420D03*
X160511880Y-210659420D03*
X172011880Y-201009420D03*
X160611880Y-201759420D03*
D23*
X201104500Y-147231100D02*
X198564500Y-147231100D01*
X198564500Y-147231100D02*
X197761880Y-148033720D01*
X197761880Y-148033720D02*
X197761880Y-152109420D01*
X197761880Y-152109420D02*
X189811880Y-160059420D01*
X189811880Y-160059420D02*
X189811880Y-178809420D01*
X189811880Y-178809420D02*
X190411880Y-179409420D01*
X230311880Y-190109420D02*
X233811880Y-190109420D01*
X226311880Y-186109420D02*
X230311880Y-190109420D01*
X220261880Y-186109420D02*
X226311880Y-186109420D01*
X218961880Y-184809420D02*
X220261880Y-186109420D01*
X242736880Y-206684420D02*
X251286880Y-206684420D01*
X252861880Y-208259420D02*
X252861880Y-210909420D01*
X251286880Y-206684420D02*
X252861880Y-208259420D01*
X252861880Y-210909420D02*
X253391880Y-211439420D01*
X229151880Y-191544420D02*
X232376880Y-191544420D01*
X232376880Y-191544420D02*
X233811880Y-190109420D01*
X240691880Y-208729420D02*
X240691880Y-211439420D01*
X242761880Y-206659420D02*
X242736880Y-206684420D01*
X233811880Y-190109420D02*
X240211880Y-190109420D01*
X240211880Y-190109420D02*
X242761880Y-192659420D01*
X242761880Y-192659420D02*
X242761880Y-206659420D01*
X242736880Y-206684420D02*
X240691880Y-208729420D01*
X191811880Y-210209420D02*
X191051880Y-210969420D01*
X191911880Y-210209420D02*
X191811880Y-210209420D01*
X193011880Y-209109420D02*
X191911880Y-210209420D01*
X216344500Y-149376800D02*
X216344500Y-147231100D01*
X214611880Y-151109420D02*
X216344500Y-149376800D01*
X214611880Y-176409420D02*
X214611880Y-151109420D01*
X214211880Y-176809420D02*
X214611880Y-176409420D01*
X182211880Y-217954420D02*
X186116880Y-217954420D01*
X189411880Y-211459420D02*
X189901880Y-210969420D01*
X189411880Y-214659420D02*
X189411880Y-211459420D01*
X186116880Y-217954420D02*
X189411880Y-214659420D01*
X174261880Y-217954420D02*
X182211880Y-217954420D01*
X171416880Y-210969420D02*
X163466880Y-210969420D01*
X171416880Y-210969420D02*
X173401880Y-210969420D01*
X174711880Y-209659420D02*
X182211880Y-209659420D01*
X173401880Y-210969420D02*
X174711880Y-209659420D01*
X185056880Y-210969420D02*
X189901880Y-210969420D01*
X189901880Y-210969420D02*
X191051880Y-210969420D01*
X191051880Y-210969420D02*
X193006880Y-210969420D01*
X182211880Y-203984420D02*
X182211880Y-209659420D01*
X182211880Y-209659420D02*
X182211880Y-209824420D01*
X183356880Y-210969420D02*
X185056880Y-210969420D01*
X182211880Y-209824420D02*
X183356880Y-210969420D01*
X174261880Y-203984420D02*
X182211880Y-203984420D01*
X191401880Y-192889420D02*
X191401880Y-160919420D01*
X208724500Y-149696800D02*
X208724500Y-147231100D01*
X205461880Y-152959420D02*
X208724500Y-149696800D01*
X199361880Y-152959420D02*
X205461880Y-152959420D01*
X191401880Y-160919420D02*
X199361880Y-152959420D01*
X193941880Y-192889420D02*
X193941880Y-161529420D01*
X210761880Y-150609420D02*
X210761880Y-147733720D01*
X206311880Y-155059420D02*
X210761880Y-150609420D01*
X200411880Y-155059420D02*
X206311880Y-155059420D01*
X193941880Y-161529420D02*
X200411880Y-155059420D01*
X210761880Y-147733720D02*
X211264500Y-147231100D01*
X199021880Y-192889420D02*
X199021880Y-189819420D01*
X213361880Y-152309420D02*
X213361880Y-147673720D01*
X211561880Y-154109420D02*
X213361880Y-152309420D01*
X211561880Y-154559420D02*
X211561880Y-154109420D01*
X207461880Y-158659420D02*
X211561880Y-154559420D01*
X200411880Y-158659420D02*
X207461880Y-158659420D01*
X196511880Y-162559420D02*
X200411880Y-158659420D01*
X196511880Y-187309420D02*
X196511880Y-162559420D01*
X199021880Y-189819420D02*
X196511880Y-187309420D01*
X213361880Y-147673720D02*
X213804500Y-147231100D01*
X191401880Y-195429420D02*
X191491880Y-195429420D01*
X191491880Y-195429420D02*
X192661880Y-194259420D01*
X192661880Y-194259420D02*
X192661880Y-161159420D01*
X192661880Y-161159420D02*
X199961880Y-153859420D01*
X199961880Y-153859420D02*
X206161880Y-153859420D01*
X206161880Y-153859420D02*
X209361880Y-150659420D01*
X209361880Y-150659420D02*
X209361880Y-149209420D01*
X209361880Y-149209420D02*
X210011880Y-148559420D01*
X210011880Y-148559420D02*
X210011880Y-145359420D01*
X210011880Y-145359420D02*
X210111880Y-145259420D01*
X210111880Y-145259420D02*
X217561880Y-145259420D01*
X217561880Y-145259420D02*
X218884500Y-146582040D01*
X218884500Y-146582040D02*
X218884500Y-147231100D01*
X196481880Y-195429420D02*
X196231880Y-195429420D01*
X196231880Y-195429420D02*
X195211880Y-194409420D01*
X195211880Y-194409420D02*
X195211880Y-161959420D01*
X195211880Y-161959420D02*
X200361880Y-156809420D01*
X200361880Y-156809420D02*
X206161880Y-156809420D01*
X206161880Y-156809420D02*
X211511880Y-151459420D01*
X211511880Y-151459420D02*
X212111880Y-151459420D01*
X235611880Y-219059420D02*
X234861880Y-219059420D01*
X234861880Y-219059420D02*
X233511880Y-217709420D01*
X233511880Y-217709420D02*
X233511880Y-210159420D01*
X233511880Y-210159420D02*
X235061880Y-208609420D01*
X235061880Y-208609420D02*
X235061880Y-202759420D01*
X238151880Y-219059420D02*
X238151880Y-214769420D01*
X238261880Y-196509420D02*
X229266880Y-196509420D01*
X240461880Y-198709420D02*
X238261880Y-196509420D01*
X240461880Y-203859420D02*
X240461880Y-198709420D01*
X239411880Y-204909420D02*
X240461880Y-203859420D01*
X239411880Y-213509420D02*
X239411880Y-204909420D01*
X238151880Y-214769420D02*
X239411880Y-213509420D01*
X229266880Y-196509420D02*
X229151880Y-196624420D01*
X240691880Y-219059420D02*
X240691880Y-218729420D01*
X240691880Y-218729420D02*
X243961880Y-215459420D01*
X243961880Y-215459420D02*
X252561880Y-215459420D01*
X252561880Y-215459420D02*
X254961880Y-213059420D01*
X254961880Y-213059420D02*
X254961880Y-210809420D01*
X254961880Y-210809420D02*
X253661880Y-209509420D01*
X253661880Y-209509420D02*
X253661880Y-209159420D01*
X253661880Y-209159420D02*
X253511880Y-209009420D01*
X253511880Y-209009420D02*
X253511880Y-207709420D01*
X253511880Y-207709420D02*
X247711880Y-201909420D01*
X247711880Y-201909420D02*
X243911880Y-201909420D01*
X238911880Y-201809420D02*
X238511880Y-201409420D01*
X238511880Y-201409420D02*
X233361880Y-201409420D01*
X233361880Y-201409420D02*
X231116880Y-199164420D01*
X231116880Y-199164420D02*
X229151880Y-199164420D01*
X243231880Y-219059420D02*
X243611880Y-219059420D01*
X243611880Y-219059420D02*
X244811880Y-220259420D01*
X244811880Y-220259420D02*
X254261880Y-220259420D01*
X254261880Y-220259420D02*
X256111880Y-218409420D01*
X256111880Y-218409420D02*
X256111880Y-210509420D01*
X256111880Y-210509420D02*
X254111880Y-208509420D01*
X254111880Y-208509420D02*
X254111880Y-192959420D01*
X254111880Y-192959420D02*
X241961880Y-180809420D01*
X241961880Y-180809420D02*
X203661880Y-180809420D01*
X203661880Y-180809420D02*
X200911880Y-183559420D01*
X200911880Y-183559420D02*
X200911880Y-185759420D01*
X231761880Y-219409420D02*
X232161880Y-219009420D01*
X232161880Y-219009420D02*
X232161880Y-212559420D01*
X232161880Y-212559420D02*
X227261880Y-207659420D01*
X227261880Y-207659420D02*
X220061880Y-207659420D01*
X208611880Y-204859420D02*
X207561880Y-203809420D01*
X207561880Y-203809420D02*
X207561880Y-202859420D01*
X207561880Y-202859420D02*
X206661880Y-201959420D01*
X230161880Y-218859420D02*
X229511880Y-218209420D01*
X229511880Y-218209420D02*
X229511880Y-217459420D01*
X229511880Y-217459420D02*
X231511880Y-215459420D01*
X231511880Y-215459420D02*
X231511880Y-213009420D01*
X231511880Y-213009420D02*
X227361880Y-208859420D01*
X227361880Y-208859420D02*
X219311880Y-208859420D01*
X219311880Y-208859420D02*
X218861880Y-208409420D01*
X207961880Y-206259420D02*
X206361880Y-204659420D01*
X206361880Y-204659420D02*
X206361880Y-203759420D01*
X228311880Y-217609420D02*
X230561880Y-215359420D01*
X230561880Y-215359420D02*
X230561880Y-213709420D01*
X230561880Y-213709420D02*
X226611880Y-209759420D01*
X226611880Y-209759420D02*
X217961880Y-209759420D01*
X206711880Y-207309420D02*
X205361880Y-205959420D01*
X205361880Y-205959420D02*
X205361880Y-190209420D01*
X205361880Y-190209420D02*
X207211880Y-188359420D01*
X207211880Y-188359420D02*
X207211880Y-187079420D01*
X207211880Y-187079420D02*
X208531880Y-185759420D01*
X217861880Y-185759420D02*
X211071880Y-185759420D01*
X220811880Y-188709420D02*
X217861880Y-185759420D01*
X220811880Y-196659420D02*
X220811880Y-188709420D01*
X221011880Y-196859420D02*
X220811880Y-196659420D01*
X221011880Y-204109420D02*
X221011880Y-196859420D01*
X216761880Y-208359420D02*
X221011880Y-204109420D01*
X216761880Y-212309420D02*
X216761880Y-208359420D01*
X219461880Y-215009420D02*
X216761880Y-212309420D01*
X173621880Y-192889420D02*
X173621880Y-191599420D01*
X174461880Y-190759420D02*
X174461880Y-188409420D01*
X173621880Y-191599420D02*
X174461880Y-190759420D01*
X174261880Y-199484420D02*
X173886880Y-199484420D01*
X173886880Y-199484420D02*
X172361880Y-197959420D01*
X172361880Y-194259420D02*
X173621880Y-192999420D01*
X172361880Y-197959420D02*
X172361880Y-194259420D01*
X173621880Y-192999420D02*
X173621880Y-192889420D01*
X174261880Y-199484420D02*
X182211880Y-199484420D01*
X182211880Y-213454420D02*
X174261880Y-213454420D01*
X174261880Y-213454420D02*
X174066880Y-213259420D01*
X174066880Y-213259420D02*
X161211880Y-213259420D01*
X161211880Y-213259420D02*
X160511880Y-212559420D01*
X160511880Y-212559420D02*
X160511880Y-210659420D01*
X172011880Y-201009420D02*
X171361880Y-201659420D01*
X171361880Y-201659420D02*
X171361880Y-206414420D01*
X171361880Y-206414420D02*
X171416880Y-206469420D01*
X171416880Y-206469420D02*
X163466880Y-206469420D01*
X163466880Y-206469420D02*
X163111880Y-206114420D01*
X163111880Y-206114420D02*
X163111880Y-204259420D01*
X163111880Y-204259420D02*
X160611880Y-201759420D01*
X193006880Y-206469420D02*
X185056880Y-206469420D01*
X185056880Y-206469420D02*
X184611880Y-206024420D01*
X184611880Y-206024420D02*
X184611880Y-198909420D01*
X184611880Y-198909420D02*
X183561880Y-197859420D01*
X183561880Y-197859420D02*
X175561880Y-197859420D01*
X175561880Y-197859420D02*
X174911880Y-197209420D01*
X174911880Y-197209420D02*
X174911880Y-194059420D01*
X174911880Y-194059420D02*
X176081880Y-192889420D01*
X176081880Y-192889420D02*
X176161880Y-192889420D01*
G36*
X260360859Y-143444898D02*
X260538025Y-143563276D01*
X260656401Y-143740439D01*
X260711880Y-144019351D01*
X260711880Y-216915382D01*
X260313633Y-216649282D01*
X259389880Y-216465536D01*
X258466127Y-216649282D01*
X257683006Y-217172546D01*
X257159742Y-217955667D01*
X256975996Y-218879420D01*
X257159742Y-219803173D01*
X257425842Y-220201420D01*
X255397510Y-220201420D01*
X256650695Y-218948235D01*
X256815876Y-218701025D01*
X256820571Y-218677420D01*
X256873880Y-218409420D01*
X256873880Y-210509420D01*
X256815876Y-210217815D01*
X256650695Y-209970605D01*
X254873880Y-208193790D01*
X254873880Y-207482235D01*
X255676510Y-207482235D01*
X256000860Y-208267220D01*
X256600921Y-208868329D01*
X257385339Y-209194048D01*
X258234695Y-209194790D01*
X259019680Y-208870440D01*
X259620789Y-208270379D01*
X259946508Y-207485961D01*
X259947250Y-206636605D01*
X259622900Y-205851620D01*
X259022839Y-205250511D01*
X258238421Y-204924792D01*
X257389065Y-204924050D01*
X256604080Y-205248400D01*
X256002971Y-205848461D01*
X255677252Y-206632879D01*
X255676510Y-207482235D01*
X254873880Y-207482235D01*
X254873880Y-192959420D01*
X254815876Y-192667815D01*
X254738601Y-192552165D01*
X254650696Y-192420605D01*
X248912326Y-186682235D01*
X255676510Y-186682235D01*
X256000860Y-187467220D01*
X256600921Y-188068329D01*
X257385339Y-188394048D01*
X258234695Y-188394790D01*
X259019680Y-188070440D01*
X259620789Y-187470379D01*
X259946508Y-186685961D01*
X259947250Y-185836605D01*
X259622900Y-185051620D01*
X259022839Y-184450511D01*
X258238421Y-184124792D01*
X257389065Y-184124050D01*
X256604080Y-184448400D01*
X256002971Y-185048461D01*
X255677252Y-185832879D01*
X255676510Y-186682235D01*
X248912326Y-186682235D01*
X242500695Y-180270605D01*
X242352253Y-180171419D01*
X242253485Y-180105424D01*
X241961880Y-180047420D01*
X203661880Y-180047420D01*
X203370275Y-180105424D01*
X203123064Y-180270605D01*
X200373065Y-183020605D01*
X200207884Y-183267815D01*
X200149880Y-183559420D01*
X200149880Y-184261980D01*
X200061880Y-184261980D01*
X199826563Y-184306258D01*
X199610439Y-184445330D01*
X199465449Y-184657530D01*
X199414440Y-184909420D01*
X199414440Y-186609420D01*
X199458718Y-186844737D01*
X199597790Y-187060861D01*
X199809990Y-187205851D01*
X200061880Y-187256860D01*
X201761880Y-187256860D01*
X201997197Y-187212582D01*
X202213321Y-187073510D01*
X202358311Y-186861310D01*
X202371966Y-186793879D01*
X202401826Y-186838567D01*
X202883595Y-187160474D01*
X203451880Y-187273513D01*
X204020165Y-187160474D01*
X204501934Y-186838567D01*
X204721880Y-186509394D01*
X204941826Y-186838567D01*
X205423595Y-187160474D01*
X205991880Y-187273513D01*
X206449880Y-187182411D01*
X206449880Y-188043790D01*
X204823065Y-189670605D01*
X204657884Y-189917815D01*
X204599880Y-190209420D01*
X204599880Y-191473548D01*
X204401278Y-191391081D01*
X203805098Y-191390561D01*
X203254100Y-191618228D01*
X202832170Y-192039423D01*
X202831785Y-192040351D01*
X202411877Y-191619710D01*
X201861278Y-191391081D01*
X201265098Y-191390561D01*
X200714100Y-191618228D01*
X200292170Y-192039423D01*
X200291785Y-192040351D01*
X199871877Y-191619710D01*
X199783880Y-191583170D01*
X199783880Y-189819420D01*
X199725876Y-189527815D01*
X199560695Y-189280605D01*
X197273880Y-186993790D01*
X197273880Y-162875050D01*
X200424637Y-159724293D01*
X258456692Y-159724293D01*
X258621526Y-160123220D01*
X258926475Y-160428702D01*
X259325113Y-160594231D01*
X259756753Y-160594608D01*
X260155680Y-160429774D01*
X260461162Y-160124825D01*
X260626691Y-159726187D01*
X260627068Y-159294547D01*
X260462234Y-158895620D01*
X260157285Y-158590138D01*
X259758647Y-158424609D01*
X259327007Y-158424232D01*
X258928080Y-158589066D01*
X258622598Y-158894015D01*
X258457069Y-159292653D01*
X258456692Y-159724293D01*
X200424637Y-159724293D01*
X200727510Y-159421420D01*
X207461880Y-159421420D01*
X207753485Y-159363416D01*
X208000695Y-159198235D01*
X210474637Y-156724293D01*
X258456692Y-156724293D01*
X258621526Y-157123220D01*
X258926475Y-157428702D01*
X259325113Y-157594231D01*
X259756753Y-157594608D01*
X260155680Y-157429774D01*
X260461162Y-157124825D01*
X260626691Y-156726187D01*
X260627068Y-156294547D01*
X260462234Y-155895620D01*
X260157285Y-155590138D01*
X259758647Y-155424609D01*
X259327007Y-155424232D01*
X258928080Y-155589066D01*
X258622598Y-155894015D01*
X258457069Y-156292653D01*
X258456692Y-156724293D01*
X210474637Y-156724293D01*
X212100696Y-155098235D01*
X212237092Y-154894103D01*
X212265876Y-154851025D01*
X212323880Y-154559420D01*
X212323880Y-154425050D01*
X213900695Y-152848236D01*
X214065876Y-152601025D01*
X214078192Y-152539107D01*
X214123880Y-152309420D01*
X214123880Y-148610691D01*
X214594803Y-148416110D01*
X214799957Y-148211313D01*
X215543892Y-148211313D01*
X215613357Y-148453497D01*
X216136802Y-148640244D01*
X216691868Y-148612462D01*
X217075643Y-148453497D01*
X217145108Y-148211313D01*
X216344500Y-147410705D01*
X215543892Y-148211313D01*
X214799957Y-148211313D01*
X214988129Y-148023470D01*
X215067895Y-147831373D01*
X215122103Y-147962243D01*
X215364287Y-148031708D01*
X216164895Y-147231100D01*
X215364287Y-146430492D01*
X215122103Y-146499957D01*
X215071991Y-146640418D01*
X214989510Y-146440797D01*
X214596870Y-146047471D01*
X214534132Y-146021420D01*
X215609709Y-146021420D01*
X215543892Y-146250887D01*
X216344500Y-147051495D01*
X217145108Y-146250887D01*
X217079291Y-146021420D01*
X217246250Y-146021420D01*
X217689924Y-146465094D01*
X217621105Y-146630827D01*
X217566897Y-146499957D01*
X217324713Y-146430492D01*
X216524105Y-147231100D01*
X217324713Y-148031708D01*
X217566897Y-147962243D01*
X217617009Y-147821782D01*
X217699490Y-148021403D01*
X218092130Y-148414729D01*
X218605400Y-148627857D01*
X219161161Y-148628342D01*
X219674803Y-148416110D01*
X220068129Y-148023470D01*
X220154449Y-147815588D01*
X220239490Y-148021403D01*
X220632130Y-148414729D01*
X221145400Y-148627857D01*
X221701161Y-148628342D01*
X222214803Y-148416110D01*
X222608129Y-148023470D01*
X222821257Y-147510200D01*
X222821742Y-146954439D01*
X222609510Y-146440797D01*
X222216870Y-146047471D01*
X221703600Y-145834343D01*
X221147839Y-145833858D01*
X220634197Y-146046090D01*
X220240871Y-146438730D01*
X220154551Y-146646612D01*
X220069510Y-146440797D01*
X219676870Y-146047471D01*
X219250529Y-145870439D01*
X218100695Y-144720605D01*
X218003145Y-144655424D01*
X217853485Y-144555424D01*
X217561880Y-144497420D01*
X210111880Y-144497420D01*
X209820275Y-144555424D01*
X209573064Y-144720605D01*
X209473065Y-144820605D01*
X209307884Y-145067815D01*
X209249880Y-145359420D01*
X209249880Y-145936607D01*
X209003600Y-145834343D01*
X208447839Y-145833858D01*
X207934197Y-146046090D01*
X207540871Y-146438730D01*
X207461105Y-146630827D01*
X207406897Y-146499957D01*
X207164713Y-146430492D01*
X206364105Y-147231100D01*
X207164713Y-148031708D01*
X207406897Y-147962243D01*
X207457009Y-147821782D01*
X207539490Y-148021403D01*
X207932130Y-148414729D01*
X207962500Y-148427340D01*
X207962500Y-149381169D01*
X205146250Y-152197420D01*
X199361880Y-152197420D01*
X199070275Y-152255424D01*
X198823065Y-152420605D01*
X190863065Y-160380605D01*
X190697884Y-160627815D01*
X190639880Y-160919420D01*
X190639880Y-178335228D01*
X190627548Y-178330107D01*
X190573880Y-178330060D01*
X190573880Y-160375050D01*
X198300695Y-152648235D01*
X198373862Y-152538733D01*
X198465876Y-152401025D01*
X198523880Y-152109420D01*
X198523880Y-148628065D01*
X198841161Y-148628342D01*
X199354803Y-148416110D01*
X199748129Y-148023470D01*
X199760740Y-147993100D01*
X199907795Y-147993100D01*
X199919490Y-148021403D01*
X200312130Y-148414729D01*
X200825400Y-148627857D01*
X201381161Y-148628342D01*
X201894803Y-148416110D01*
X202288129Y-148023470D01*
X202374449Y-147815588D01*
X202459490Y-148021403D01*
X202852130Y-148414729D01*
X203365400Y-148627857D01*
X203921161Y-148628342D01*
X204434803Y-148416110D01*
X204639957Y-148211313D01*
X205383892Y-148211313D01*
X205453357Y-148453497D01*
X205976802Y-148640244D01*
X206531868Y-148612462D01*
X206915643Y-148453497D01*
X206985108Y-148211313D01*
X206184500Y-147410705D01*
X205383892Y-148211313D01*
X204639957Y-148211313D01*
X204828129Y-148023470D01*
X204907895Y-147831373D01*
X204962103Y-147962243D01*
X205204287Y-148031708D01*
X206004895Y-147231100D01*
X205204287Y-146430492D01*
X204962103Y-146499957D01*
X204911991Y-146640418D01*
X204829510Y-146440797D01*
X204639932Y-146250887D01*
X205383892Y-146250887D01*
X206184500Y-147051495D01*
X206985108Y-146250887D01*
X206915643Y-146008703D01*
X206392198Y-145821956D01*
X205837132Y-145849738D01*
X205453357Y-146008703D01*
X205383892Y-146250887D01*
X204639932Y-146250887D01*
X204436870Y-146047471D01*
X203923600Y-145834343D01*
X203367839Y-145833858D01*
X202854197Y-146046090D01*
X202460871Y-146438730D01*
X202374551Y-146646612D01*
X202289510Y-146440797D01*
X201896870Y-146047471D01*
X201383600Y-145834343D01*
X200827839Y-145833858D01*
X200314197Y-146046090D01*
X199920871Y-146438730D01*
X199908260Y-146469100D01*
X199761205Y-146469100D01*
X199749510Y-146440797D01*
X199356870Y-146047471D01*
X198843600Y-145834343D01*
X198287839Y-145833858D01*
X197774197Y-146046090D01*
X197380871Y-146438730D01*
X197167743Y-146952000D01*
X197167258Y-147507761D01*
X197185299Y-147551425D01*
X197057884Y-147742115D01*
X196999880Y-148033720D01*
X196999880Y-151793790D01*
X189273065Y-159520605D01*
X189107884Y-159767815D01*
X189049880Y-160059420D01*
X189049880Y-178809420D01*
X189107884Y-179101025D01*
X189273065Y-179348235D01*
X189332381Y-179407551D01*
X189332193Y-179623204D01*
X189496191Y-180020109D01*
X189799594Y-180324042D01*
X190196212Y-180488733D01*
X190625664Y-180489107D01*
X190639880Y-180483233D01*
X190639880Y-191582785D01*
X190554100Y-191618228D01*
X190132170Y-192039423D01*
X190131785Y-192040351D01*
X189711877Y-191619710D01*
X189161278Y-191391081D01*
X188565098Y-191390561D01*
X188014100Y-191618228D01*
X187592170Y-192039423D01*
X187591785Y-192040351D01*
X187171877Y-191619710D01*
X186621278Y-191391081D01*
X186025098Y-191390561D01*
X185474100Y-191618228D01*
X185052170Y-192039423D01*
X185051785Y-192040351D01*
X184631877Y-191619710D01*
X184081278Y-191391081D01*
X183485098Y-191390561D01*
X182934100Y-191618228D01*
X182512170Y-192039423D01*
X182511785Y-192040351D01*
X182091877Y-191619710D01*
X181541278Y-191391081D01*
X180945098Y-191390561D01*
X180394100Y-191618228D01*
X179972170Y-192039423D01*
X179971785Y-192040351D01*
X179551877Y-191619710D01*
X179001278Y-191391081D01*
X178405098Y-191390561D01*
X177854100Y-191618228D01*
X177432170Y-192039423D01*
X177431785Y-192040351D01*
X177011877Y-191619710D01*
X176461278Y-191391081D01*
X175865098Y-191390561D01*
X175314100Y-191618228D01*
X174892170Y-192039423D01*
X174891785Y-192040351D01*
X174575458Y-191723472D01*
X175000695Y-191298236D01*
X175165876Y-191051025D01*
X175223880Y-190759420D01*
X175223880Y-189174062D01*
X175376502Y-189021706D01*
X175541193Y-188625088D01*
X175541567Y-188195636D01*
X175377569Y-187798731D01*
X175074166Y-187494798D01*
X174677548Y-187330107D01*
X174248096Y-187329733D01*
X173851191Y-187493731D01*
X173547258Y-187797134D01*
X173382567Y-188193752D01*
X173382193Y-188623204D01*
X173546191Y-189020109D01*
X173699880Y-189174066D01*
X173699880Y-190443789D01*
X173083065Y-191060605D01*
X172917884Y-191307815D01*
X172863485Y-191581295D01*
X172774100Y-191618228D01*
X172352170Y-192039423D01*
X172351785Y-192040351D01*
X171931877Y-191619710D01*
X171381278Y-191391081D01*
X170785098Y-191390561D01*
X170234100Y-191618228D01*
X169812170Y-192039423D01*
X169583541Y-192590022D01*
X169583021Y-193186202D01*
X169810688Y-193737200D01*
X170231883Y-194159130D01*
X170232811Y-194159515D01*
X169812170Y-194579423D01*
X169583541Y-195130022D01*
X169583021Y-195726202D01*
X169810688Y-196277200D01*
X170231883Y-196699130D01*
X170782482Y-196927759D01*
X171378662Y-196928279D01*
X171599880Y-196836874D01*
X171599880Y-197959420D01*
X171657884Y-198251025D01*
X171823065Y-198498235D01*
X172839440Y-199514611D01*
X172839440Y-200134420D01*
X172880255Y-200351335D01*
X172624166Y-200094798D01*
X172227548Y-199930107D01*
X171798096Y-199929733D01*
X171401191Y-200093731D01*
X171097258Y-200397134D01*
X170932567Y-200793752D01*
X170932378Y-201011292D01*
X170823065Y-201120605D01*
X170657884Y-201367815D01*
X170599880Y-201659420D01*
X170599880Y-205179883D01*
X170406563Y-205216258D01*
X170190439Y-205355330D01*
X170045449Y-205567530D01*
X170017121Y-205707420D01*
X164868246Y-205707420D01*
X164845042Y-205584103D01*
X164705970Y-205367979D01*
X164493770Y-205222989D01*
X164241880Y-205171980D01*
X163873880Y-205171980D01*
X163873880Y-204259420D01*
X163815876Y-203967815D01*
X163650695Y-203720605D01*
X161691379Y-201761289D01*
X161691567Y-201545636D01*
X161527569Y-201148731D01*
X161224166Y-200844798D01*
X160827548Y-200680107D01*
X160398096Y-200679733D01*
X160001191Y-200843731D01*
X159697258Y-201147134D01*
X159532567Y-201543752D01*
X159532193Y-201973204D01*
X159696191Y-202370109D01*
X159999594Y-202674042D01*
X160396212Y-202838733D01*
X160613752Y-202838922D01*
X162349880Y-204575050D01*
X162349880Y-205284907D01*
X162240439Y-205355330D01*
X162095449Y-205567530D01*
X162044440Y-205819420D01*
X162044440Y-207119420D01*
X162088718Y-207354737D01*
X162227790Y-207570861D01*
X162439990Y-207715851D01*
X162691880Y-207766860D01*
X164241880Y-207766860D01*
X164477197Y-207722582D01*
X164693321Y-207583510D01*
X164838311Y-207371310D01*
X164866639Y-207231420D01*
X170015514Y-207231420D01*
X170038718Y-207354737D01*
X170177790Y-207570861D01*
X170389990Y-207715851D01*
X170641880Y-207766860D01*
X172191880Y-207766860D01*
X172427197Y-207722582D01*
X172643321Y-207583510D01*
X172788311Y-207371310D01*
X172839320Y-207119420D01*
X172839320Y-205819420D01*
X172795042Y-205584103D01*
X172655970Y-205367979D01*
X172443770Y-205222989D01*
X172191880Y-205171980D01*
X172123880Y-205171980D01*
X172123880Y-204270170D01*
X172851880Y-204270170D01*
X172851880Y-204760730D01*
X172948553Y-204994119D01*
X173127182Y-205172747D01*
X173360571Y-205269420D01*
X173976130Y-205269420D01*
X174134880Y-205110670D01*
X174134880Y-204111420D01*
X174388880Y-204111420D01*
X174388880Y-205110670D01*
X174547630Y-205269420D01*
X175163189Y-205269420D01*
X175396578Y-205172747D01*
X175575207Y-204994119D01*
X175671880Y-204760730D01*
X175671880Y-204270170D01*
X180801880Y-204270170D01*
X180801880Y-204760730D01*
X180898553Y-204994119D01*
X181077182Y-205172747D01*
X181310571Y-205269420D01*
X181926130Y-205269420D01*
X182084880Y-205110670D01*
X182084880Y-204111420D01*
X182338880Y-204111420D01*
X182338880Y-205110670D01*
X182497630Y-205269420D01*
X183113189Y-205269420D01*
X183346578Y-205172747D01*
X183525207Y-204994119D01*
X183621880Y-204760730D01*
X183621880Y-204270170D01*
X183463130Y-204111420D01*
X182338880Y-204111420D01*
X182084880Y-204111420D01*
X180960630Y-204111420D01*
X180801880Y-204270170D01*
X175671880Y-204270170D01*
X175513130Y-204111420D01*
X174388880Y-204111420D01*
X174134880Y-204111420D01*
X173010630Y-204111420D01*
X172851880Y-204270170D01*
X172123880Y-204270170D01*
X172123880Y-203208110D01*
X172851880Y-203208110D01*
X172851880Y-203698670D01*
X173010630Y-203857420D01*
X174134880Y-203857420D01*
X174134880Y-202858170D01*
X174388880Y-202858170D01*
X174388880Y-203857420D01*
X175513130Y-203857420D01*
X175671880Y-203698670D01*
X175671880Y-203208110D01*
X180801880Y-203208110D01*
X180801880Y-203698670D01*
X180960630Y-203857420D01*
X182084880Y-203857420D01*
X182084880Y-202858170D01*
X182338880Y-202858170D01*
X182338880Y-203857420D01*
X183463130Y-203857420D01*
X183621880Y-203698670D01*
X183621880Y-203208110D01*
X183525207Y-202974721D01*
X183346578Y-202796093D01*
X183113189Y-202699420D01*
X182497630Y-202699420D01*
X182338880Y-202858170D01*
X182084880Y-202858170D01*
X181926130Y-202699420D01*
X181310571Y-202699420D01*
X181077182Y-202796093D01*
X180898553Y-202974721D01*
X180801880Y-203208110D01*
X175671880Y-203208110D01*
X175575207Y-202974721D01*
X175396578Y-202796093D01*
X175163189Y-202699420D01*
X174547630Y-202699420D01*
X174388880Y-202858170D01*
X174134880Y-202858170D01*
X173976130Y-202699420D01*
X173360571Y-202699420D01*
X173127182Y-202796093D01*
X172948553Y-202974721D01*
X172851880Y-203208110D01*
X172123880Y-203208110D01*
X172123880Y-202089018D01*
X172225664Y-202089107D01*
X172622569Y-201925109D01*
X172926502Y-201621706D01*
X173091193Y-201225088D01*
X173091567Y-200795636D01*
X172972772Y-200508131D01*
X173022790Y-200585861D01*
X173234990Y-200730851D01*
X173486880Y-200781860D01*
X175036880Y-200781860D01*
X175272197Y-200737582D01*
X175488321Y-200598510D01*
X175633311Y-200386310D01*
X175661639Y-200246420D01*
X180810514Y-200246420D01*
X180833718Y-200369737D01*
X180972790Y-200585861D01*
X181184990Y-200730851D01*
X181436880Y-200781860D01*
X182986880Y-200781860D01*
X183222197Y-200737582D01*
X183438321Y-200598510D01*
X183583311Y-200386310D01*
X183634320Y-200134420D01*
X183634320Y-199009491D01*
X183849880Y-199225051D01*
X183849880Y-205342820D01*
X183830439Y-205355330D01*
X183685449Y-205567530D01*
X183634440Y-205819420D01*
X183634440Y-207119420D01*
X183678718Y-207354737D01*
X183817790Y-207570861D01*
X184029990Y-207715851D01*
X184281880Y-207766860D01*
X185831880Y-207766860D01*
X186067197Y-207722582D01*
X186283321Y-207583510D01*
X186428311Y-207371310D01*
X186456639Y-207231420D01*
X191605514Y-207231420D01*
X191628718Y-207354737D01*
X191767790Y-207570861D01*
X191979990Y-207715851D01*
X192231880Y-207766860D01*
X193781880Y-207766860D01*
X194017197Y-207722582D01*
X194233321Y-207583510D01*
X194378311Y-207371310D01*
X194429320Y-207119420D01*
X194429320Y-205819420D01*
X194385042Y-205584103D01*
X194245970Y-205367979D01*
X194033770Y-205222989D01*
X193781880Y-205171980D01*
X192231880Y-205171980D01*
X191996563Y-205216258D01*
X191780439Y-205355330D01*
X191635449Y-205567530D01*
X191607121Y-205707420D01*
X186458246Y-205707420D01*
X186435042Y-205584103D01*
X186295970Y-205367979D01*
X186083770Y-205222989D01*
X185831880Y-205171980D01*
X185373880Y-205171980D01*
X185373880Y-198909420D01*
X185315876Y-198617815D01*
X185235975Y-198498235D01*
X185150695Y-198370604D01*
X184100695Y-197320605D01*
X183853485Y-197155424D01*
X183561880Y-197097420D01*
X175877510Y-197097420D01*
X175673880Y-196893790D01*
X175673880Y-196849444D01*
X175862482Y-196927759D01*
X176458662Y-196928279D01*
X177009660Y-196700612D01*
X177431590Y-196279417D01*
X177431975Y-196278489D01*
X177851883Y-196699130D01*
X178402482Y-196927759D01*
X178998662Y-196928279D01*
X179549660Y-196700612D01*
X179971590Y-196279417D01*
X179971975Y-196278489D01*
X180391883Y-196699130D01*
X180942482Y-196927759D01*
X181538662Y-196928279D01*
X182089660Y-196700612D01*
X182511590Y-196279417D01*
X182511975Y-196278489D01*
X182931883Y-196699130D01*
X183482482Y-196927759D01*
X184078662Y-196928279D01*
X184629660Y-196700612D01*
X185051590Y-196279417D01*
X185051975Y-196278489D01*
X185471883Y-196699130D01*
X186022482Y-196927759D01*
X186618662Y-196928279D01*
X187169660Y-196700612D01*
X187591590Y-196279417D01*
X187591975Y-196278489D01*
X188011883Y-196699130D01*
X188562482Y-196927759D01*
X189158662Y-196928279D01*
X189709660Y-196700612D01*
X190131590Y-196279417D01*
X190131975Y-196278489D01*
X190551883Y-196699130D01*
X191102482Y-196927759D01*
X191698662Y-196928279D01*
X192249660Y-196700612D01*
X192671590Y-196279417D01*
X192671975Y-196278489D01*
X193091883Y-196699130D01*
X193642482Y-196927759D01*
X194238662Y-196928279D01*
X194789660Y-196700612D01*
X195211590Y-196279417D01*
X195211975Y-196278489D01*
X195631883Y-196699130D01*
X196182482Y-196927759D01*
X196778662Y-196928279D01*
X197329660Y-196700612D01*
X197751590Y-196279417D01*
X197751975Y-196278489D01*
X198171883Y-196699130D01*
X198722482Y-196927759D01*
X199318662Y-196928279D01*
X199869660Y-196700612D01*
X200291590Y-196279417D01*
X200291975Y-196278489D01*
X200711883Y-196699130D01*
X201262482Y-196927759D01*
X201858662Y-196928279D01*
X202409660Y-196700612D01*
X202831590Y-196279417D01*
X202831975Y-196278489D01*
X203251883Y-196699130D01*
X203802482Y-196927759D01*
X204398662Y-196928279D01*
X204599880Y-196845138D01*
X204599880Y-205959420D01*
X204657884Y-206251025D01*
X204803811Y-206469420D01*
X204823065Y-206498235D01*
X205632381Y-207307551D01*
X205632193Y-207523204D01*
X205796191Y-207920109D01*
X206099594Y-208224042D01*
X206496212Y-208388733D01*
X206925664Y-208389107D01*
X207322569Y-208225109D01*
X207626502Y-207921706D01*
X207791193Y-207525088D01*
X207791355Y-207338772D01*
X208175664Y-207339107D01*
X208572569Y-207175109D01*
X208876502Y-206871706D01*
X209041193Y-206475088D01*
X209041567Y-206045636D01*
X208972484Y-205878442D01*
X209222569Y-205775109D01*
X209526502Y-205471706D01*
X209691193Y-205075088D01*
X209691567Y-204645636D01*
X209527569Y-204248731D01*
X209224166Y-203944798D01*
X208827548Y-203780107D01*
X208610008Y-203779918D01*
X208323880Y-203493790D01*
X208323880Y-202859420D01*
X208265876Y-202567815D01*
X208133773Y-202370109D01*
X208100695Y-202320604D01*
X207741379Y-201961289D01*
X207741567Y-201745636D01*
X207577569Y-201348731D01*
X207274166Y-201044798D01*
X206877548Y-200880107D01*
X206448096Y-200879733D01*
X206123880Y-201013696D01*
X206123880Y-196836987D01*
X206342482Y-196927759D01*
X206938662Y-196928279D01*
X207489660Y-196700612D01*
X207911590Y-196279417D01*
X207911975Y-196278489D01*
X208331883Y-196699130D01*
X208882482Y-196927759D01*
X209478662Y-196928279D01*
X210029660Y-196700612D01*
X210451590Y-196279417D01*
X210451975Y-196278489D01*
X210871883Y-196699130D01*
X211422482Y-196927759D01*
X212018662Y-196928279D01*
X212569660Y-196700612D01*
X212991590Y-196279417D01*
X212991975Y-196278489D01*
X213411883Y-196699130D01*
X213962482Y-196927759D01*
X214558662Y-196928279D01*
X215109660Y-196700612D01*
X215531590Y-196279417D01*
X215531975Y-196278489D01*
X215951883Y-196699130D01*
X216502482Y-196927759D01*
X217098662Y-196928279D01*
X217649660Y-196700612D01*
X217866756Y-196483895D01*
X217875118Y-196528337D01*
X218014190Y-196744461D01*
X218226390Y-196889451D01*
X218478280Y-196940460D01*
X220105782Y-196940460D01*
X220107884Y-196951025D01*
X220205703Y-197097421D01*
X220249880Y-197163536D01*
X220249880Y-203793789D01*
X216223065Y-207820605D01*
X216057884Y-208067815D01*
X215999880Y-208359420D01*
X215999880Y-212309420D01*
X216057884Y-212601025D01*
X216193789Y-212804420D01*
X216223065Y-212848235D01*
X218382381Y-215007552D01*
X218382193Y-215223204D01*
X218546191Y-215620109D01*
X218849594Y-215924042D01*
X219246212Y-216088733D01*
X219675664Y-216089107D01*
X220072569Y-215925109D01*
X220376502Y-215621706D01*
X220541193Y-215225088D01*
X220541567Y-214795636D01*
X220377569Y-214398731D01*
X220074166Y-214094798D01*
X219677548Y-213930107D01*
X219460008Y-213929918D01*
X217523880Y-211993790D01*
X217523880Y-210746412D01*
X217746212Y-210838733D01*
X218175664Y-210839107D01*
X218572569Y-210675109D01*
X218726526Y-210521420D01*
X226296250Y-210521420D01*
X229799880Y-214025051D01*
X229799880Y-215043789D01*
X228313749Y-216529921D01*
X228098096Y-216529733D01*
X227701191Y-216693731D01*
X227397258Y-216997134D01*
X227232567Y-217393752D01*
X227232193Y-217823204D01*
X227396191Y-218220109D01*
X227699594Y-218524042D01*
X228096212Y-218688733D01*
X228525664Y-218689107D01*
X228845307Y-218557033D01*
X228961860Y-218731466D01*
X228973065Y-218748235D01*
X229082381Y-218857551D01*
X229082193Y-219073204D01*
X229246191Y-219470109D01*
X229549594Y-219774042D01*
X229946212Y-219938733D01*
X230375664Y-219939107D01*
X230748985Y-219784854D01*
X230846191Y-220020109D01*
X231027186Y-220201420D01*
X162456513Y-220201420D01*
X162742427Y-219773519D01*
X162920274Y-218879420D01*
X162742427Y-217985321D01*
X162456553Y-217557480D01*
X164201532Y-217557480D01*
X164506892Y-218296506D01*
X165071820Y-218862421D01*
X165810312Y-219169070D01*
X166609940Y-219169768D01*
X167348966Y-218864408D01*
X167914881Y-218299480D01*
X167939508Y-218240170D01*
X172851880Y-218240170D01*
X172851880Y-218730730D01*
X172948553Y-218964119D01*
X173127182Y-219142747D01*
X173360571Y-219239420D01*
X173976130Y-219239420D01*
X174134880Y-219080670D01*
X174134880Y-218081420D01*
X174388880Y-218081420D01*
X174388880Y-219080670D01*
X174547630Y-219239420D01*
X175163189Y-219239420D01*
X175396578Y-219142747D01*
X175575207Y-218964119D01*
X175671880Y-218730730D01*
X175671880Y-218240170D01*
X180801880Y-218240170D01*
X180801880Y-218730730D01*
X180898553Y-218964119D01*
X181077182Y-219142747D01*
X181310571Y-219239420D01*
X181926130Y-219239420D01*
X182084880Y-219080670D01*
X182084880Y-218081420D01*
X182338880Y-218081420D01*
X182338880Y-219080670D01*
X182497630Y-219239420D01*
X183113189Y-219239420D01*
X183346578Y-219142747D01*
X183525207Y-218964119D01*
X183621880Y-218730730D01*
X183621880Y-218240170D01*
X183463130Y-218081420D01*
X182338880Y-218081420D01*
X182084880Y-218081420D01*
X180960630Y-218081420D01*
X180801880Y-218240170D01*
X175671880Y-218240170D01*
X175513130Y-218081420D01*
X174388880Y-218081420D01*
X174134880Y-218081420D01*
X173010630Y-218081420D01*
X172851880Y-218240170D01*
X167939508Y-218240170D01*
X168221530Y-217560988D01*
X168221864Y-217178110D01*
X172851880Y-217178110D01*
X172851880Y-217668670D01*
X173010630Y-217827420D01*
X174134880Y-217827420D01*
X174134880Y-216828170D01*
X174388880Y-216828170D01*
X174388880Y-217827420D01*
X175513130Y-217827420D01*
X175671880Y-217668670D01*
X175671880Y-217178110D01*
X180801880Y-217178110D01*
X180801880Y-217668670D01*
X180960630Y-217827420D01*
X182084880Y-217827420D01*
X182084880Y-216828170D01*
X182338880Y-216828170D01*
X182338880Y-217827420D01*
X183463130Y-217827420D01*
X183621880Y-217668670D01*
X183621880Y-217557480D01*
X222201532Y-217557480D01*
X222506892Y-218296506D01*
X223071820Y-218862421D01*
X223810312Y-219169070D01*
X224609940Y-219169768D01*
X225348966Y-218864408D01*
X225914881Y-218299480D01*
X226221530Y-217560988D01*
X226222228Y-216761360D01*
X225916868Y-216022334D01*
X225351940Y-215456419D01*
X224613448Y-215149770D01*
X223813820Y-215149072D01*
X223074794Y-215454432D01*
X222508879Y-216019360D01*
X222202230Y-216757852D01*
X222201532Y-217557480D01*
X183621880Y-217557480D01*
X183621880Y-217178110D01*
X183525207Y-216944721D01*
X183346578Y-216766093D01*
X183113189Y-216669420D01*
X182497630Y-216669420D01*
X182338880Y-216828170D01*
X182084880Y-216828170D01*
X181926130Y-216669420D01*
X181310571Y-216669420D01*
X181077182Y-216766093D01*
X180898553Y-216944721D01*
X180801880Y-217178110D01*
X175671880Y-217178110D01*
X175575207Y-216944721D01*
X175396578Y-216766093D01*
X175163189Y-216669420D01*
X174547630Y-216669420D01*
X174388880Y-216828170D01*
X174134880Y-216828170D01*
X173976130Y-216669420D01*
X173360571Y-216669420D01*
X173127182Y-216766093D01*
X172948553Y-216944721D01*
X172851880Y-217178110D01*
X168221864Y-217178110D01*
X168222228Y-216761360D01*
X167916868Y-216022334D01*
X167351940Y-215456419D01*
X166613448Y-215149770D01*
X165813820Y-215149072D01*
X165074794Y-215454432D01*
X164508879Y-216019360D01*
X164202230Y-216757852D01*
X164201532Y-217557480D01*
X162456553Y-217557480D01*
X162235960Y-217227340D01*
X161477979Y-216720873D01*
X160583880Y-216543026D01*
X159689781Y-216720873D01*
X159261880Y-217006787D01*
X159261880Y-210873204D01*
X159432193Y-210873204D01*
X159596191Y-211270109D01*
X159749880Y-211424066D01*
X159749880Y-212559420D01*
X159807884Y-212851025D01*
X159913721Y-213009420D01*
X159973065Y-213098235D01*
X160673064Y-213798235D01*
X160869865Y-213929733D01*
X160920275Y-213963416D01*
X161211880Y-214021420D01*
X172839440Y-214021420D01*
X172839440Y-214104420D01*
X172883718Y-214339737D01*
X173022790Y-214555861D01*
X173234990Y-214700851D01*
X173486880Y-214751860D01*
X175036880Y-214751860D01*
X175272197Y-214707582D01*
X175488321Y-214568510D01*
X175633311Y-214356310D01*
X175661639Y-214216420D01*
X180810514Y-214216420D01*
X180833718Y-214339737D01*
X180972790Y-214555861D01*
X181184990Y-214700851D01*
X181436880Y-214751860D01*
X182986880Y-214751860D01*
X183222197Y-214707582D01*
X183438321Y-214568510D01*
X183583311Y-214356310D01*
X183634320Y-214104420D01*
X183634320Y-212804420D01*
X183590042Y-212569103D01*
X183450970Y-212352979D01*
X183238770Y-212207989D01*
X182986880Y-212156980D01*
X181436880Y-212156980D01*
X181201563Y-212201258D01*
X180985439Y-212340330D01*
X180840449Y-212552530D01*
X180812121Y-212692420D01*
X175663246Y-212692420D01*
X175640042Y-212569103D01*
X175500970Y-212352979D01*
X175288770Y-212207989D01*
X175036880Y-212156980D01*
X173486880Y-212156980D01*
X173251563Y-212201258D01*
X173035439Y-212340330D01*
X172928104Y-212497420D01*
X161527511Y-212497420D01*
X161273880Y-212243790D01*
X161273880Y-211424062D01*
X161426502Y-211271706D01*
X161433368Y-211255170D01*
X162056880Y-211255170D01*
X162056880Y-211745730D01*
X162153553Y-211979119D01*
X162332182Y-212157747D01*
X162565571Y-212254420D01*
X163181130Y-212254420D01*
X163339880Y-212095670D01*
X163339880Y-211096420D01*
X163593880Y-211096420D01*
X163593880Y-212095670D01*
X163752630Y-212254420D01*
X164368189Y-212254420D01*
X164601578Y-212157747D01*
X164780207Y-211979119D01*
X164876880Y-211745730D01*
X164876880Y-211255170D01*
X170006880Y-211255170D01*
X170006880Y-211745730D01*
X170103553Y-211979119D01*
X170282182Y-212157747D01*
X170515571Y-212254420D01*
X171131130Y-212254420D01*
X171289880Y-212095670D01*
X171289880Y-211096420D01*
X171543880Y-211096420D01*
X171543880Y-212095670D01*
X171702630Y-212254420D01*
X172318189Y-212254420D01*
X172551578Y-212157747D01*
X172730207Y-211979119D01*
X172826880Y-211745730D01*
X172826880Y-211255170D01*
X183646880Y-211255170D01*
X183646880Y-211745730D01*
X183743553Y-211979119D01*
X183922182Y-212157747D01*
X184155571Y-212254420D01*
X184771130Y-212254420D01*
X184929880Y-212095670D01*
X184929880Y-211096420D01*
X185183880Y-211096420D01*
X185183880Y-212095670D01*
X185342630Y-212254420D01*
X185958189Y-212254420D01*
X186191578Y-212157747D01*
X186370207Y-211979119D01*
X186466880Y-211745730D01*
X186466880Y-211255170D01*
X191596880Y-211255170D01*
X191596880Y-211745730D01*
X191693553Y-211979119D01*
X191872182Y-212157747D01*
X192105571Y-212254420D01*
X192721130Y-212254420D01*
X192879880Y-212095670D01*
X192879880Y-211096420D01*
X193133880Y-211096420D01*
X193133880Y-212095670D01*
X193292630Y-212254420D01*
X193908189Y-212254420D01*
X194141578Y-212157747D01*
X194320207Y-211979119D01*
X194416880Y-211745730D01*
X194416880Y-211255170D01*
X194258130Y-211096420D01*
X193133880Y-211096420D01*
X192879880Y-211096420D01*
X191755630Y-211096420D01*
X191596880Y-211255170D01*
X186466880Y-211255170D01*
X186308130Y-211096420D01*
X185183880Y-211096420D01*
X184929880Y-211096420D01*
X183805630Y-211096420D01*
X183646880Y-211255170D01*
X172826880Y-211255170D01*
X172668130Y-211096420D01*
X171543880Y-211096420D01*
X171289880Y-211096420D01*
X170165630Y-211096420D01*
X170006880Y-211255170D01*
X164876880Y-211255170D01*
X164718130Y-211096420D01*
X163593880Y-211096420D01*
X163339880Y-211096420D01*
X162215630Y-211096420D01*
X162056880Y-211255170D01*
X161433368Y-211255170D01*
X161591193Y-210875088D01*
X161591567Y-210445636D01*
X161487226Y-210193110D01*
X162056880Y-210193110D01*
X162056880Y-210683670D01*
X162215630Y-210842420D01*
X163339880Y-210842420D01*
X163339880Y-209843170D01*
X163593880Y-209843170D01*
X163593880Y-210842420D01*
X164718130Y-210842420D01*
X164876880Y-210683670D01*
X164876880Y-210193110D01*
X170006880Y-210193110D01*
X170006880Y-210683670D01*
X170165630Y-210842420D01*
X171289880Y-210842420D01*
X171289880Y-209843170D01*
X171543880Y-209843170D01*
X171543880Y-210842420D01*
X172668130Y-210842420D01*
X172826880Y-210683670D01*
X172826880Y-210193110D01*
X183646880Y-210193110D01*
X183646880Y-210683670D01*
X183805630Y-210842420D01*
X184929880Y-210842420D01*
X184929880Y-209843170D01*
X185183880Y-209843170D01*
X185183880Y-210842420D01*
X186308130Y-210842420D01*
X186466880Y-210683670D01*
X186466880Y-210193110D01*
X191596880Y-210193110D01*
X191596880Y-210683670D01*
X191755630Y-210842420D01*
X192879880Y-210842420D01*
X192879880Y-209843170D01*
X193133880Y-209843170D01*
X193133880Y-210842420D01*
X194258130Y-210842420D01*
X194416880Y-210683670D01*
X194416880Y-210193110D01*
X194320207Y-209959721D01*
X194141578Y-209781093D01*
X193908189Y-209684420D01*
X193292630Y-209684420D01*
X193133880Y-209843170D01*
X192879880Y-209843170D01*
X192721130Y-209684420D01*
X192105571Y-209684420D01*
X191872182Y-209781093D01*
X191693553Y-209959721D01*
X191596880Y-210193110D01*
X186466880Y-210193110D01*
X186370207Y-209959721D01*
X186191578Y-209781093D01*
X185958189Y-209684420D01*
X185342630Y-209684420D01*
X185183880Y-209843170D01*
X184929880Y-209843170D01*
X184771130Y-209684420D01*
X184155571Y-209684420D01*
X183922182Y-209781093D01*
X183743553Y-209959721D01*
X183646880Y-210193110D01*
X172826880Y-210193110D01*
X172730207Y-209959721D01*
X172551578Y-209781093D01*
X172318189Y-209684420D01*
X171702630Y-209684420D01*
X171543880Y-209843170D01*
X171289880Y-209843170D01*
X171131130Y-209684420D01*
X170515571Y-209684420D01*
X170282182Y-209781093D01*
X170103553Y-209959721D01*
X170006880Y-210193110D01*
X164876880Y-210193110D01*
X164780207Y-209959721D01*
X164601578Y-209781093D01*
X164368189Y-209684420D01*
X163752630Y-209684420D01*
X163593880Y-209843170D01*
X163339880Y-209843170D01*
X163181130Y-209684420D01*
X162565571Y-209684420D01*
X162332182Y-209781093D01*
X162153553Y-209959721D01*
X162056880Y-210193110D01*
X161487226Y-210193110D01*
X161427569Y-210048731D01*
X161124166Y-209744798D01*
X160727548Y-209580107D01*
X160298096Y-209579733D01*
X159901191Y-209743731D01*
X159597258Y-210047134D01*
X159432567Y-210443752D01*
X159432193Y-210873204D01*
X159261880Y-210873204D01*
X159261880Y-194557480D01*
X164201532Y-194557480D01*
X164506892Y-195296506D01*
X165071820Y-195862421D01*
X165810312Y-196169070D01*
X166609940Y-196169768D01*
X167348966Y-195864408D01*
X167914881Y-195299480D01*
X168221530Y-194560988D01*
X168222228Y-193761360D01*
X167916868Y-193022334D01*
X167351940Y-192456419D01*
X166613448Y-192149770D01*
X165813820Y-192149072D01*
X165074794Y-192454432D01*
X164508879Y-193019360D01*
X164202230Y-193757852D01*
X164201532Y-194557480D01*
X159261880Y-194557480D01*
X159261880Y-186544622D01*
X159745397Y-186867697D01*
X160583880Y-187034482D01*
X161422363Y-186867697D01*
X162133195Y-186392735D01*
X162608157Y-185681903D01*
X162774942Y-184843420D01*
X162608157Y-184004937D01*
X162133195Y-183294105D01*
X161422363Y-182819143D01*
X160583880Y-182652358D01*
X159745397Y-182819143D01*
X159261880Y-183142218D01*
X159261880Y-162076860D01*
X161651880Y-162076860D01*
X161887197Y-162032582D01*
X162103321Y-161893510D01*
X162248311Y-161681310D01*
X162299320Y-161429420D01*
X162299320Y-158629420D01*
X162255042Y-158394103D01*
X162115970Y-158177979D01*
X161903770Y-158032989D01*
X161651880Y-157981980D01*
X159261880Y-157981980D01*
X159261880Y-155129420D01*
X181104440Y-155129420D01*
X181104440Y-157929420D01*
X181148718Y-158164737D01*
X181222500Y-158279398D01*
X181155449Y-158377530D01*
X181104440Y-158629420D01*
X181104440Y-161429420D01*
X181148718Y-161664737D01*
X181287790Y-161880861D01*
X181499990Y-162025851D01*
X181751880Y-162076860D01*
X184551880Y-162076860D01*
X184787197Y-162032582D01*
X185003321Y-161893510D01*
X185148311Y-161681310D01*
X185199320Y-161429420D01*
X185199320Y-158629420D01*
X185155042Y-158394103D01*
X185081260Y-158279442D01*
X185148311Y-158181310D01*
X185199320Y-157929420D01*
X185199320Y-155129420D01*
X185155042Y-154894103D01*
X185015970Y-154677979D01*
X184803770Y-154532989D01*
X184551880Y-154481980D01*
X181751880Y-154481980D01*
X181516563Y-154526258D01*
X181300439Y-154665330D01*
X181155449Y-154877530D01*
X181104440Y-155129420D01*
X159261880Y-155129420D01*
X159261880Y-147876860D01*
X161651880Y-147876860D01*
X161887197Y-147832582D01*
X162103321Y-147693510D01*
X162215438Y-147529420D01*
X181104440Y-147529420D01*
X181104440Y-150329420D01*
X181148718Y-150564737D01*
X181287790Y-150780861D01*
X181499990Y-150925851D01*
X181751880Y-150976860D01*
X184551880Y-150976860D01*
X184787197Y-150932582D01*
X185003321Y-150793510D01*
X185148311Y-150581310D01*
X185199320Y-150329420D01*
X185199320Y-147529420D01*
X185155042Y-147294103D01*
X185114342Y-147230853D01*
X185186880Y-147055730D01*
X185186880Y-145815170D01*
X185028130Y-145656420D01*
X183278880Y-145656420D01*
X183278880Y-145676420D01*
X183024880Y-145676420D01*
X183024880Y-145656420D01*
X181275630Y-145656420D01*
X181116880Y-145815170D01*
X181116880Y-147055730D01*
X181188635Y-147228961D01*
X181155449Y-147277530D01*
X181104440Y-147529420D01*
X162215438Y-147529420D01*
X162248311Y-147481310D01*
X162299320Y-147229420D01*
X162299320Y-144429420D01*
X162255042Y-144194103D01*
X162132142Y-144003110D01*
X181116880Y-144003110D01*
X181116880Y-145243670D01*
X181275630Y-145402420D01*
X183024880Y-145402420D01*
X183024880Y-143653170D01*
X183278880Y-143653170D01*
X183278880Y-145402420D01*
X185028130Y-145402420D01*
X185186880Y-145243670D01*
X185186880Y-144003110D01*
X185090207Y-143769721D01*
X184911578Y-143591093D01*
X184678189Y-143494420D01*
X183437630Y-143494420D01*
X183278880Y-143653170D01*
X183024880Y-143653170D01*
X182866130Y-143494420D01*
X181625571Y-143494420D01*
X181392182Y-143591093D01*
X181213553Y-143769721D01*
X181116880Y-144003110D01*
X162132142Y-144003110D01*
X162115970Y-143977979D01*
X161903770Y-143832989D01*
X161651880Y-143781980D01*
X159309096Y-143781980D01*
X159317358Y-143740441D01*
X159435736Y-143563275D01*
X159612899Y-143444899D01*
X159891811Y-143389420D01*
X260081950Y-143389420D01*
X260360859Y-143444898D01*
X260360859Y-143444898D01*
G37*
X260360859Y-143444898D02*
X260538025Y-143563276D01*
X260656401Y-143740439D01*
X260711880Y-144019351D01*
X260711880Y-216915382D01*
X260313633Y-216649282D01*
X259389880Y-216465536D01*
X258466127Y-216649282D01*
X257683006Y-217172546D01*
X257159742Y-217955667D01*
X256975996Y-218879420D01*
X257159742Y-219803173D01*
X257425842Y-220201420D01*
X255397510Y-220201420D01*
X256650695Y-218948235D01*
X256815876Y-218701025D01*
X256820571Y-218677420D01*
X256873880Y-218409420D01*
X256873880Y-210509420D01*
X256815876Y-210217815D01*
X256650695Y-209970605D01*
X254873880Y-208193790D01*
X254873880Y-207482235D01*
X255676510Y-207482235D01*
X256000860Y-208267220D01*
X256600921Y-208868329D01*
X257385339Y-209194048D01*
X258234695Y-209194790D01*
X259019680Y-208870440D01*
X259620789Y-208270379D01*
X259946508Y-207485961D01*
X259947250Y-206636605D01*
X259622900Y-205851620D01*
X259022839Y-205250511D01*
X258238421Y-204924792D01*
X257389065Y-204924050D01*
X256604080Y-205248400D01*
X256002971Y-205848461D01*
X255677252Y-206632879D01*
X255676510Y-207482235D01*
X254873880Y-207482235D01*
X254873880Y-192959420D01*
X254815876Y-192667815D01*
X254738601Y-192552165D01*
X254650696Y-192420605D01*
X248912326Y-186682235D01*
X255676510Y-186682235D01*
X256000860Y-187467220D01*
X256600921Y-188068329D01*
X257385339Y-188394048D01*
X258234695Y-188394790D01*
X259019680Y-188070440D01*
X259620789Y-187470379D01*
X259946508Y-186685961D01*
X259947250Y-185836605D01*
X259622900Y-185051620D01*
X259022839Y-184450511D01*
X258238421Y-184124792D01*
X257389065Y-184124050D01*
X256604080Y-184448400D01*
X256002971Y-185048461D01*
X255677252Y-185832879D01*
X255676510Y-186682235D01*
X248912326Y-186682235D01*
X242500695Y-180270605D01*
X242352253Y-180171419D01*
X242253485Y-180105424D01*
X241961880Y-180047420D01*
X203661880Y-180047420D01*
X203370275Y-180105424D01*
X203123064Y-180270605D01*
X200373065Y-183020605D01*
X200207884Y-183267815D01*
X200149880Y-183559420D01*
X200149880Y-184261980D01*
X200061880Y-184261980D01*
X199826563Y-184306258D01*
X199610439Y-184445330D01*
X199465449Y-184657530D01*
X199414440Y-184909420D01*
X199414440Y-186609420D01*
X199458718Y-186844737D01*
X199597790Y-187060861D01*
X199809990Y-187205851D01*
X200061880Y-187256860D01*
X201761880Y-187256860D01*
X201997197Y-187212582D01*
X202213321Y-187073510D01*
X202358311Y-186861310D01*
X202371966Y-186793879D01*
X202401826Y-186838567D01*
X202883595Y-187160474D01*
X203451880Y-187273513D01*
X204020165Y-187160474D01*
X204501934Y-186838567D01*
X204721880Y-186509394D01*
X204941826Y-186838567D01*
X205423595Y-187160474D01*
X205991880Y-187273513D01*
X206449880Y-187182411D01*
X206449880Y-188043790D01*
X204823065Y-189670605D01*
X204657884Y-189917815D01*
X204599880Y-190209420D01*
X204599880Y-191473548D01*
X204401278Y-191391081D01*
X203805098Y-191390561D01*
X203254100Y-191618228D01*
X202832170Y-192039423D01*
X202831785Y-192040351D01*
X202411877Y-191619710D01*
X201861278Y-191391081D01*
X201265098Y-191390561D01*
X200714100Y-191618228D01*
X200292170Y-192039423D01*
X200291785Y-192040351D01*
X199871877Y-191619710D01*
X199783880Y-191583170D01*
X199783880Y-189819420D01*
X199725876Y-189527815D01*
X199560695Y-189280605D01*
X197273880Y-186993790D01*
X197273880Y-162875050D01*
X200424637Y-159724293D01*
X258456692Y-159724293D01*
X258621526Y-160123220D01*
X258926475Y-160428702D01*
X259325113Y-160594231D01*
X259756753Y-160594608D01*
X260155680Y-160429774D01*
X260461162Y-160124825D01*
X260626691Y-159726187D01*
X260627068Y-159294547D01*
X260462234Y-158895620D01*
X260157285Y-158590138D01*
X259758647Y-158424609D01*
X259327007Y-158424232D01*
X258928080Y-158589066D01*
X258622598Y-158894015D01*
X258457069Y-159292653D01*
X258456692Y-159724293D01*
X200424637Y-159724293D01*
X200727510Y-159421420D01*
X207461880Y-159421420D01*
X207753485Y-159363416D01*
X208000695Y-159198235D01*
X210474637Y-156724293D01*
X258456692Y-156724293D01*
X258621526Y-157123220D01*
X258926475Y-157428702D01*
X259325113Y-157594231D01*
X259756753Y-157594608D01*
X260155680Y-157429774D01*
X260461162Y-157124825D01*
X260626691Y-156726187D01*
X260627068Y-156294547D01*
X260462234Y-155895620D01*
X260157285Y-155590138D01*
X259758647Y-155424609D01*
X259327007Y-155424232D01*
X258928080Y-155589066D01*
X258622598Y-155894015D01*
X258457069Y-156292653D01*
X258456692Y-156724293D01*
X210474637Y-156724293D01*
X212100696Y-155098235D01*
X212237092Y-154894103D01*
X212265876Y-154851025D01*
X212323880Y-154559420D01*
X212323880Y-154425050D01*
X213900695Y-152848236D01*
X214065876Y-152601025D01*
X214078192Y-152539107D01*
X214123880Y-152309420D01*
X214123880Y-148610691D01*
X214594803Y-148416110D01*
X214799957Y-148211313D01*
X215543892Y-148211313D01*
X215613357Y-148453497D01*
X216136802Y-148640244D01*
X216691868Y-148612462D01*
X217075643Y-148453497D01*
X217145108Y-148211313D01*
X216344500Y-147410705D01*
X215543892Y-148211313D01*
X214799957Y-148211313D01*
X214988129Y-148023470D01*
X215067895Y-147831373D01*
X215122103Y-147962243D01*
X215364287Y-148031708D01*
X216164895Y-147231100D01*
X215364287Y-146430492D01*
X215122103Y-146499957D01*
X215071991Y-146640418D01*
X214989510Y-146440797D01*
X214596870Y-146047471D01*
X214534132Y-146021420D01*
X215609709Y-146021420D01*
X215543892Y-146250887D01*
X216344500Y-147051495D01*
X217145108Y-146250887D01*
X217079291Y-146021420D01*
X217246250Y-146021420D01*
X217689924Y-146465094D01*
X217621105Y-146630827D01*
X217566897Y-146499957D01*
X217324713Y-146430492D01*
X216524105Y-147231100D01*
X217324713Y-148031708D01*
X217566897Y-147962243D01*
X217617009Y-147821782D01*
X217699490Y-148021403D01*
X218092130Y-148414729D01*
X218605400Y-148627857D01*
X219161161Y-148628342D01*
X219674803Y-148416110D01*
X220068129Y-148023470D01*
X220154449Y-147815588D01*
X220239490Y-148021403D01*
X220632130Y-148414729D01*
X221145400Y-148627857D01*
X221701161Y-148628342D01*
X222214803Y-148416110D01*
X222608129Y-148023470D01*
X222821257Y-147510200D01*
X222821742Y-146954439D01*
X222609510Y-146440797D01*
X222216870Y-146047471D01*
X221703600Y-145834343D01*
X221147839Y-145833858D01*
X220634197Y-146046090D01*
X220240871Y-146438730D01*
X220154551Y-146646612D01*
X220069510Y-146440797D01*
X219676870Y-146047471D01*
X219250529Y-145870439D01*
X218100695Y-144720605D01*
X218003145Y-144655424D01*
X217853485Y-144555424D01*
X217561880Y-144497420D01*
X210111880Y-144497420D01*
X209820275Y-144555424D01*
X209573064Y-144720605D01*
X209473065Y-144820605D01*
X209307884Y-145067815D01*
X209249880Y-145359420D01*
X209249880Y-145936607D01*
X209003600Y-145834343D01*
X208447839Y-145833858D01*
X207934197Y-146046090D01*
X207540871Y-146438730D01*
X207461105Y-146630827D01*
X207406897Y-146499957D01*
X207164713Y-146430492D01*
X206364105Y-147231100D01*
X207164713Y-148031708D01*
X207406897Y-147962243D01*
X207457009Y-147821782D01*
X207539490Y-148021403D01*
X207932130Y-148414729D01*
X207962500Y-148427340D01*
X207962500Y-149381169D01*
X205146250Y-152197420D01*
X199361880Y-152197420D01*
X199070275Y-152255424D01*
X198823065Y-152420605D01*
X190863065Y-160380605D01*
X190697884Y-160627815D01*
X190639880Y-160919420D01*
X190639880Y-178335228D01*
X190627548Y-178330107D01*
X190573880Y-178330060D01*
X190573880Y-160375050D01*
X198300695Y-152648235D01*
X198373862Y-152538733D01*
X198465876Y-152401025D01*
X198523880Y-152109420D01*
X198523880Y-148628065D01*
X198841161Y-148628342D01*
X199354803Y-148416110D01*
X199748129Y-148023470D01*
X199760740Y-147993100D01*
X199907795Y-147993100D01*
X199919490Y-148021403D01*
X200312130Y-148414729D01*
X200825400Y-148627857D01*
X201381161Y-148628342D01*
X201894803Y-148416110D01*
X202288129Y-148023470D01*
X202374449Y-147815588D01*
X202459490Y-148021403D01*
X202852130Y-148414729D01*
X203365400Y-148627857D01*
X203921161Y-148628342D01*
X204434803Y-148416110D01*
X204639957Y-148211313D01*
X205383892Y-148211313D01*
X205453357Y-148453497D01*
X205976802Y-148640244D01*
X206531868Y-148612462D01*
X206915643Y-148453497D01*
X206985108Y-148211313D01*
X206184500Y-147410705D01*
X205383892Y-148211313D01*
X204639957Y-148211313D01*
X204828129Y-148023470D01*
X204907895Y-147831373D01*
X204962103Y-147962243D01*
X205204287Y-148031708D01*
X206004895Y-147231100D01*
X205204287Y-146430492D01*
X204962103Y-146499957D01*
X204911991Y-146640418D01*
X204829510Y-146440797D01*
X204639932Y-146250887D01*
X205383892Y-146250887D01*
X206184500Y-147051495D01*
X206985108Y-146250887D01*
X206915643Y-146008703D01*
X206392198Y-145821956D01*
X205837132Y-145849738D01*
X205453357Y-146008703D01*
X205383892Y-146250887D01*
X204639932Y-146250887D01*
X204436870Y-146047471D01*
X203923600Y-145834343D01*
X203367839Y-145833858D01*
X202854197Y-146046090D01*
X202460871Y-146438730D01*
X202374551Y-146646612D01*
X202289510Y-146440797D01*
X201896870Y-146047471D01*
X201383600Y-145834343D01*
X200827839Y-145833858D01*
X200314197Y-146046090D01*
X199920871Y-146438730D01*
X199908260Y-146469100D01*
X199761205Y-146469100D01*
X199749510Y-146440797D01*
X199356870Y-146047471D01*
X198843600Y-145834343D01*
X198287839Y-145833858D01*
X197774197Y-146046090D01*
X197380871Y-146438730D01*
X197167743Y-146952000D01*
X197167258Y-147507761D01*
X197185299Y-147551425D01*
X197057884Y-147742115D01*
X196999880Y-148033720D01*
X196999880Y-151793790D01*
X189273065Y-159520605D01*
X189107884Y-159767815D01*
X189049880Y-160059420D01*
X189049880Y-178809420D01*
X189107884Y-179101025D01*
X189273065Y-179348235D01*
X189332381Y-179407551D01*
X189332193Y-179623204D01*
X189496191Y-180020109D01*
X189799594Y-180324042D01*
X190196212Y-180488733D01*
X190625664Y-180489107D01*
X190639880Y-180483233D01*
X190639880Y-191582785D01*
X190554100Y-191618228D01*
X190132170Y-192039423D01*
X190131785Y-192040351D01*
X189711877Y-191619710D01*
X189161278Y-191391081D01*
X188565098Y-191390561D01*
X188014100Y-191618228D01*
X187592170Y-192039423D01*
X187591785Y-192040351D01*
X187171877Y-191619710D01*
X186621278Y-191391081D01*
X186025098Y-191390561D01*
X185474100Y-191618228D01*
X185052170Y-192039423D01*
X185051785Y-192040351D01*
X184631877Y-191619710D01*
X184081278Y-191391081D01*
X183485098Y-191390561D01*
X182934100Y-191618228D01*
X182512170Y-192039423D01*
X182511785Y-192040351D01*
X182091877Y-191619710D01*
X181541278Y-191391081D01*
X180945098Y-191390561D01*
X180394100Y-191618228D01*
X179972170Y-192039423D01*
X179971785Y-192040351D01*
X179551877Y-191619710D01*
X179001278Y-191391081D01*
X178405098Y-191390561D01*
X177854100Y-191618228D01*
X177432170Y-192039423D01*
X177431785Y-192040351D01*
X177011877Y-191619710D01*
X176461278Y-191391081D01*
X175865098Y-191390561D01*
X175314100Y-191618228D01*
X174892170Y-192039423D01*
X174891785Y-192040351D01*
X174575458Y-191723472D01*
X175000695Y-191298236D01*
X175165876Y-191051025D01*
X175223880Y-190759420D01*
X175223880Y-189174062D01*
X175376502Y-189021706D01*
X175541193Y-188625088D01*
X175541567Y-188195636D01*
X175377569Y-187798731D01*
X175074166Y-187494798D01*
X174677548Y-187330107D01*
X174248096Y-187329733D01*
X173851191Y-187493731D01*
X173547258Y-187797134D01*
X173382567Y-188193752D01*
X173382193Y-188623204D01*
X173546191Y-189020109D01*
X173699880Y-189174066D01*
X173699880Y-190443789D01*
X173083065Y-191060605D01*
X172917884Y-191307815D01*
X172863485Y-191581295D01*
X172774100Y-191618228D01*
X172352170Y-192039423D01*
X172351785Y-192040351D01*
X171931877Y-191619710D01*
X171381278Y-191391081D01*
X170785098Y-191390561D01*
X170234100Y-191618228D01*
X169812170Y-192039423D01*
X169583541Y-192590022D01*
X169583021Y-193186202D01*
X169810688Y-193737200D01*
X170231883Y-194159130D01*
X170232811Y-194159515D01*
X169812170Y-194579423D01*
X169583541Y-195130022D01*
X169583021Y-195726202D01*
X169810688Y-196277200D01*
X170231883Y-196699130D01*
X170782482Y-196927759D01*
X171378662Y-196928279D01*
X171599880Y-196836874D01*
X171599880Y-197959420D01*
X171657884Y-198251025D01*
X171823065Y-198498235D01*
X172839440Y-199514611D01*
X172839440Y-200134420D01*
X172880255Y-200351335D01*
X172624166Y-200094798D01*
X172227548Y-199930107D01*
X171798096Y-199929733D01*
X171401191Y-200093731D01*
X171097258Y-200397134D01*
X170932567Y-200793752D01*
X170932378Y-201011292D01*
X170823065Y-201120605D01*
X170657884Y-201367815D01*
X170599880Y-201659420D01*
X170599880Y-205179883D01*
X170406563Y-205216258D01*
X170190439Y-205355330D01*
X170045449Y-205567530D01*
X170017121Y-205707420D01*
X164868246Y-205707420D01*
X164845042Y-205584103D01*
X164705970Y-205367979D01*
X164493770Y-205222989D01*
X164241880Y-205171980D01*
X163873880Y-205171980D01*
X163873880Y-204259420D01*
X163815876Y-203967815D01*
X163650695Y-203720605D01*
X161691379Y-201761289D01*
X161691567Y-201545636D01*
X161527569Y-201148731D01*
X161224166Y-200844798D01*
X160827548Y-200680107D01*
X160398096Y-200679733D01*
X160001191Y-200843731D01*
X159697258Y-201147134D01*
X159532567Y-201543752D01*
X159532193Y-201973204D01*
X159696191Y-202370109D01*
X159999594Y-202674042D01*
X160396212Y-202838733D01*
X160613752Y-202838922D01*
X162349880Y-204575050D01*
X162349880Y-205284907D01*
X162240439Y-205355330D01*
X162095449Y-205567530D01*
X162044440Y-205819420D01*
X162044440Y-207119420D01*
X162088718Y-207354737D01*
X162227790Y-207570861D01*
X162439990Y-207715851D01*
X162691880Y-207766860D01*
X164241880Y-207766860D01*
X164477197Y-207722582D01*
X164693321Y-207583510D01*
X164838311Y-207371310D01*
X164866639Y-207231420D01*
X170015514Y-207231420D01*
X170038718Y-207354737D01*
X170177790Y-207570861D01*
X170389990Y-207715851D01*
X170641880Y-207766860D01*
X172191880Y-207766860D01*
X172427197Y-207722582D01*
X172643321Y-207583510D01*
X172788311Y-207371310D01*
X172839320Y-207119420D01*
X172839320Y-205819420D01*
X172795042Y-205584103D01*
X172655970Y-205367979D01*
X172443770Y-205222989D01*
X172191880Y-205171980D01*
X172123880Y-205171980D01*
X172123880Y-204270170D01*
X172851880Y-204270170D01*
X172851880Y-204760730D01*
X172948553Y-204994119D01*
X173127182Y-205172747D01*
X173360571Y-205269420D01*
X173976130Y-205269420D01*
X174134880Y-205110670D01*
X174134880Y-204111420D01*
X174388880Y-204111420D01*
X174388880Y-205110670D01*
X174547630Y-205269420D01*
X175163189Y-205269420D01*
X175396578Y-205172747D01*
X175575207Y-204994119D01*
X175671880Y-204760730D01*
X175671880Y-204270170D01*
X180801880Y-204270170D01*
X180801880Y-204760730D01*
X180898553Y-204994119D01*
X181077182Y-205172747D01*
X181310571Y-205269420D01*
X181926130Y-205269420D01*
X182084880Y-205110670D01*
X182084880Y-204111420D01*
X182338880Y-204111420D01*
X182338880Y-205110670D01*
X182497630Y-205269420D01*
X183113189Y-205269420D01*
X183346578Y-205172747D01*
X183525207Y-204994119D01*
X183621880Y-204760730D01*
X183621880Y-204270170D01*
X183463130Y-204111420D01*
X182338880Y-204111420D01*
X182084880Y-204111420D01*
X180960630Y-204111420D01*
X180801880Y-204270170D01*
X175671880Y-204270170D01*
X175513130Y-204111420D01*
X174388880Y-204111420D01*
X174134880Y-204111420D01*
X173010630Y-204111420D01*
X172851880Y-204270170D01*
X172123880Y-204270170D01*
X172123880Y-203208110D01*
X172851880Y-203208110D01*
X172851880Y-203698670D01*
X173010630Y-203857420D01*
X174134880Y-203857420D01*
X174134880Y-202858170D01*
X174388880Y-202858170D01*
X174388880Y-203857420D01*
X175513130Y-203857420D01*
X175671880Y-203698670D01*
X175671880Y-203208110D01*
X180801880Y-203208110D01*
X180801880Y-203698670D01*
X180960630Y-203857420D01*
X182084880Y-203857420D01*
X182084880Y-202858170D01*
X182338880Y-202858170D01*
X182338880Y-203857420D01*
X183463130Y-203857420D01*
X183621880Y-203698670D01*
X183621880Y-203208110D01*
X183525207Y-202974721D01*
X183346578Y-202796093D01*
X183113189Y-202699420D01*
X182497630Y-202699420D01*
X182338880Y-202858170D01*
X182084880Y-202858170D01*
X181926130Y-202699420D01*
X181310571Y-202699420D01*
X181077182Y-202796093D01*
X180898553Y-202974721D01*
X180801880Y-203208110D01*
X175671880Y-203208110D01*
X175575207Y-202974721D01*
X175396578Y-202796093D01*
X175163189Y-202699420D01*
X174547630Y-202699420D01*
X174388880Y-202858170D01*
X174134880Y-202858170D01*
X173976130Y-202699420D01*
X173360571Y-202699420D01*
X173127182Y-202796093D01*
X172948553Y-202974721D01*
X172851880Y-203208110D01*
X172123880Y-203208110D01*
X172123880Y-202089018D01*
X172225664Y-202089107D01*
X172622569Y-201925109D01*
X172926502Y-201621706D01*
X173091193Y-201225088D01*
X173091567Y-200795636D01*
X172972772Y-200508131D01*
X173022790Y-200585861D01*
X173234990Y-200730851D01*
X173486880Y-200781860D01*
X175036880Y-200781860D01*
X175272197Y-200737582D01*
X175488321Y-200598510D01*
X175633311Y-200386310D01*
X175661639Y-200246420D01*
X180810514Y-200246420D01*
X180833718Y-200369737D01*
X180972790Y-200585861D01*
X181184990Y-200730851D01*
X181436880Y-200781860D01*
X182986880Y-200781860D01*
X183222197Y-200737582D01*
X183438321Y-200598510D01*
X183583311Y-200386310D01*
X183634320Y-200134420D01*
X183634320Y-199009491D01*
X183849880Y-199225051D01*
X183849880Y-205342820D01*
X183830439Y-205355330D01*
X183685449Y-205567530D01*
X183634440Y-205819420D01*
X183634440Y-207119420D01*
X183678718Y-207354737D01*
X183817790Y-207570861D01*
X184029990Y-207715851D01*
X184281880Y-207766860D01*
X185831880Y-207766860D01*
X186067197Y-207722582D01*
X186283321Y-207583510D01*
X186428311Y-207371310D01*
X186456639Y-207231420D01*
X191605514Y-207231420D01*
X191628718Y-207354737D01*
X191767790Y-207570861D01*
X191979990Y-207715851D01*
X192231880Y-207766860D01*
X193781880Y-207766860D01*
X194017197Y-207722582D01*
X194233321Y-207583510D01*
X194378311Y-207371310D01*
X194429320Y-207119420D01*
X194429320Y-205819420D01*
X194385042Y-205584103D01*
X194245970Y-205367979D01*
X194033770Y-205222989D01*
X193781880Y-205171980D01*
X192231880Y-205171980D01*
X191996563Y-205216258D01*
X191780439Y-205355330D01*
X191635449Y-205567530D01*
X191607121Y-205707420D01*
X186458246Y-205707420D01*
X186435042Y-205584103D01*
X186295970Y-205367979D01*
X186083770Y-205222989D01*
X185831880Y-205171980D01*
X185373880Y-205171980D01*
X185373880Y-198909420D01*
X185315876Y-198617815D01*
X185235975Y-198498235D01*
X185150695Y-198370604D01*
X184100695Y-197320605D01*
X183853485Y-197155424D01*
X183561880Y-197097420D01*
X175877510Y-197097420D01*
X175673880Y-196893790D01*
X175673880Y-196849444D01*
X175862482Y-196927759D01*
X176458662Y-196928279D01*
X177009660Y-196700612D01*
X177431590Y-196279417D01*
X177431975Y-196278489D01*
X177851883Y-196699130D01*
X178402482Y-196927759D01*
X178998662Y-196928279D01*
X179549660Y-196700612D01*
X179971590Y-196279417D01*
X179971975Y-196278489D01*
X180391883Y-196699130D01*
X180942482Y-196927759D01*
X181538662Y-196928279D01*
X182089660Y-196700612D01*
X182511590Y-196279417D01*
X182511975Y-196278489D01*
X182931883Y-196699130D01*
X183482482Y-196927759D01*
X184078662Y-196928279D01*
X184629660Y-196700612D01*
X185051590Y-196279417D01*
X185051975Y-196278489D01*
X185471883Y-196699130D01*
X186022482Y-196927759D01*
X186618662Y-196928279D01*
X187169660Y-196700612D01*
X187591590Y-196279417D01*
X187591975Y-196278489D01*
X188011883Y-196699130D01*
X188562482Y-196927759D01*
X189158662Y-196928279D01*
X189709660Y-196700612D01*
X190131590Y-196279417D01*
X190131975Y-196278489D01*
X190551883Y-196699130D01*
X191102482Y-196927759D01*
X191698662Y-196928279D01*
X192249660Y-196700612D01*
X192671590Y-196279417D01*
X192671975Y-196278489D01*
X193091883Y-196699130D01*
X193642482Y-196927759D01*
X194238662Y-196928279D01*
X194789660Y-196700612D01*
X195211590Y-196279417D01*
X195211975Y-196278489D01*
X195631883Y-196699130D01*
X196182482Y-196927759D01*
X196778662Y-196928279D01*
X197329660Y-196700612D01*
X197751590Y-196279417D01*
X197751975Y-196278489D01*
X198171883Y-196699130D01*
X198722482Y-196927759D01*
X199318662Y-196928279D01*
X199869660Y-196700612D01*
X200291590Y-196279417D01*
X200291975Y-196278489D01*
X200711883Y-196699130D01*
X201262482Y-196927759D01*
X201858662Y-196928279D01*
X202409660Y-196700612D01*
X202831590Y-196279417D01*
X202831975Y-196278489D01*
X203251883Y-196699130D01*
X203802482Y-196927759D01*
X204398662Y-196928279D01*
X204599880Y-196845138D01*
X204599880Y-205959420D01*
X204657884Y-206251025D01*
X204803811Y-206469420D01*
X204823065Y-206498235D01*
X205632381Y-207307551D01*
X205632193Y-207523204D01*
X205796191Y-207920109D01*
X206099594Y-208224042D01*
X206496212Y-208388733D01*
X206925664Y-208389107D01*
X207322569Y-208225109D01*
X207626502Y-207921706D01*
X207791193Y-207525088D01*
X207791355Y-207338772D01*
X208175664Y-207339107D01*
X208572569Y-207175109D01*
X208876502Y-206871706D01*
X209041193Y-206475088D01*
X209041567Y-206045636D01*
X208972484Y-205878442D01*
X209222569Y-205775109D01*
X209526502Y-205471706D01*
X209691193Y-205075088D01*
X209691567Y-204645636D01*
X209527569Y-204248731D01*
X209224166Y-203944798D01*
X208827548Y-203780107D01*
X208610008Y-203779918D01*
X208323880Y-203493790D01*
X208323880Y-202859420D01*
X208265876Y-202567815D01*
X208133773Y-202370109D01*
X208100695Y-202320604D01*
X207741379Y-201961289D01*
X207741567Y-201745636D01*
X207577569Y-201348731D01*
X207274166Y-201044798D01*
X206877548Y-200880107D01*
X206448096Y-200879733D01*
X206123880Y-201013696D01*
X206123880Y-196836987D01*
X206342482Y-196927759D01*
X206938662Y-196928279D01*
X207489660Y-196700612D01*
X207911590Y-196279417D01*
X207911975Y-196278489D01*
X208331883Y-196699130D01*
X208882482Y-196927759D01*
X209478662Y-196928279D01*
X210029660Y-196700612D01*
X210451590Y-196279417D01*
X210451975Y-196278489D01*
X210871883Y-196699130D01*
X211422482Y-196927759D01*
X212018662Y-196928279D01*
X212569660Y-196700612D01*
X212991590Y-196279417D01*
X212991975Y-196278489D01*
X213411883Y-196699130D01*
X213962482Y-196927759D01*
X214558662Y-196928279D01*
X215109660Y-196700612D01*
X215531590Y-196279417D01*
X215531975Y-196278489D01*
X215951883Y-196699130D01*
X216502482Y-196927759D01*
X217098662Y-196928279D01*
X217649660Y-196700612D01*
X217866756Y-196483895D01*
X217875118Y-196528337D01*
X218014190Y-196744461D01*
X218226390Y-196889451D01*
X218478280Y-196940460D01*
X220105782Y-196940460D01*
X220107884Y-196951025D01*
X220205703Y-197097421D01*
X220249880Y-197163536D01*
X220249880Y-203793789D01*
X216223065Y-207820605D01*
X216057884Y-208067815D01*
X215999880Y-208359420D01*
X215999880Y-212309420D01*
X216057884Y-212601025D01*
X216193789Y-212804420D01*
X216223065Y-212848235D01*
X218382381Y-215007552D01*
X218382193Y-215223204D01*
X218546191Y-215620109D01*
X218849594Y-215924042D01*
X219246212Y-216088733D01*
X219675664Y-216089107D01*
X220072569Y-215925109D01*
X220376502Y-215621706D01*
X220541193Y-215225088D01*
X220541567Y-214795636D01*
X220377569Y-214398731D01*
X220074166Y-214094798D01*
X219677548Y-213930107D01*
X219460008Y-213929918D01*
X217523880Y-211993790D01*
X217523880Y-210746412D01*
X217746212Y-210838733D01*
X218175664Y-210839107D01*
X218572569Y-210675109D01*
X218726526Y-210521420D01*
X226296250Y-210521420D01*
X229799880Y-214025051D01*
X229799880Y-215043789D01*
X228313749Y-216529921D01*
X228098096Y-216529733D01*
X227701191Y-216693731D01*
X227397258Y-216997134D01*
X227232567Y-217393752D01*
X227232193Y-217823204D01*
X227396191Y-218220109D01*
X227699594Y-218524042D01*
X228096212Y-218688733D01*
X228525664Y-218689107D01*
X228845307Y-218557033D01*
X228961860Y-218731466D01*
X228973065Y-218748235D01*
X229082381Y-218857551D01*
X229082193Y-219073204D01*
X229246191Y-219470109D01*
X229549594Y-219774042D01*
X229946212Y-219938733D01*
X230375664Y-219939107D01*
X230748985Y-219784854D01*
X230846191Y-220020109D01*
X231027186Y-220201420D01*
X162456513Y-220201420D01*
X162742427Y-219773519D01*
X162920274Y-218879420D01*
X162742427Y-217985321D01*
X162456553Y-217557480D01*
X164201532Y-217557480D01*
X164506892Y-218296506D01*
X165071820Y-218862421D01*
X165810312Y-219169070D01*
X166609940Y-219169768D01*
X167348966Y-218864408D01*
X167914881Y-218299480D01*
X167939508Y-218240170D01*
X172851880Y-218240170D01*
X172851880Y-218730730D01*
X172948553Y-218964119D01*
X173127182Y-219142747D01*
X173360571Y-219239420D01*
X173976130Y-219239420D01*
X174134880Y-219080670D01*
X174134880Y-218081420D01*
X174388880Y-218081420D01*
X174388880Y-219080670D01*
X174547630Y-219239420D01*
X175163189Y-219239420D01*
X175396578Y-219142747D01*
X175575207Y-218964119D01*
X175671880Y-218730730D01*
X175671880Y-218240170D01*
X180801880Y-218240170D01*
X180801880Y-218730730D01*
X180898553Y-218964119D01*
X181077182Y-219142747D01*
X181310571Y-219239420D01*
X181926130Y-219239420D01*
X182084880Y-219080670D01*
X182084880Y-218081420D01*
X182338880Y-218081420D01*
X182338880Y-219080670D01*
X182497630Y-219239420D01*
X183113189Y-219239420D01*
X183346578Y-219142747D01*
X183525207Y-218964119D01*
X183621880Y-218730730D01*
X183621880Y-218240170D01*
X183463130Y-218081420D01*
X182338880Y-218081420D01*
X182084880Y-218081420D01*
X180960630Y-218081420D01*
X180801880Y-218240170D01*
X175671880Y-218240170D01*
X175513130Y-218081420D01*
X174388880Y-218081420D01*
X174134880Y-218081420D01*
X173010630Y-218081420D01*
X172851880Y-218240170D01*
X167939508Y-218240170D01*
X168221530Y-217560988D01*
X168221864Y-217178110D01*
X172851880Y-217178110D01*
X172851880Y-217668670D01*
X173010630Y-217827420D01*
X174134880Y-217827420D01*
X174134880Y-216828170D01*
X174388880Y-216828170D01*
X174388880Y-217827420D01*
X175513130Y-217827420D01*
X175671880Y-217668670D01*
X175671880Y-217178110D01*
X180801880Y-217178110D01*
X180801880Y-217668670D01*
X180960630Y-217827420D01*
X182084880Y-217827420D01*
X182084880Y-216828170D01*
X182338880Y-216828170D01*
X182338880Y-217827420D01*
X183463130Y-217827420D01*
X183621880Y-217668670D01*
X183621880Y-217557480D01*
X222201532Y-217557480D01*
X222506892Y-218296506D01*
X223071820Y-218862421D01*
X223810312Y-219169070D01*
X224609940Y-219169768D01*
X225348966Y-218864408D01*
X225914881Y-218299480D01*
X226221530Y-217560988D01*
X226222228Y-216761360D01*
X225916868Y-216022334D01*
X225351940Y-215456419D01*
X224613448Y-215149770D01*
X223813820Y-215149072D01*
X223074794Y-215454432D01*
X222508879Y-216019360D01*
X222202230Y-216757852D01*
X222201532Y-217557480D01*
X183621880Y-217557480D01*
X183621880Y-217178110D01*
X183525207Y-216944721D01*
X183346578Y-216766093D01*
X183113189Y-216669420D01*
X182497630Y-216669420D01*
X182338880Y-216828170D01*
X182084880Y-216828170D01*
X181926130Y-216669420D01*
X181310571Y-216669420D01*
X181077182Y-216766093D01*
X180898553Y-216944721D01*
X180801880Y-217178110D01*
X175671880Y-217178110D01*
X175575207Y-216944721D01*
X175396578Y-216766093D01*
X175163189Y-216669420D01*
X174547630Y-216669420D01*
X174388880Y-216828170D01*
X174134880Y-216828170D01*
X173976130Y-216669420D01*
X173360571Y-216669420D01*
X173127182Y-216766093D01*
X172948553Y-216944721D01*
X172851880Y-217178110D01*
X168221864Y-217178110D01*
X168222228Y-216761360D01*
X167916868Y-216022334D01*
X167351940Y-215456419D01*
X166613448Y-215149770D01*
X165813820Y-215149072D01*
X165074794Y-215454432D01*
X164508879Y-216019360D01*
X164202230Y-216757852D01*
X164201532Y-217557480D01*
X162456553Y-217557480D01*
X162235960Y-217227340D01*
X161477979Y-216720873D01*
X160583880Y-216543026D01*
X159689781Y-216720873D01*
X159261880Y-217006787D01*
X159261880Y-210873204D01*
X159432193Y-210873204D01*
X159596191Y-211270109D01*
X159749880Y-211424066D01*
X159749880Y-212559420D01*
X159807884Y-212851025D01*
X159913721Y-213009420D01*
X159973065Y-213098235D01*
X160673064Y-213798235D01*
X160869865Y-213929733D01*
X160920275Y-213963416D01*
X161211880Y-214021420D01*
X172839440Y-214021420D01*
X172839440Y-214104420D01*
X172883718Y-214339737D01*
X173022790Y-214555861D01*
X173234990Y-214700851D01*
X173486880Y-214751860D01*
X175036880Y-214751860D01*
X175272197Y-214707582D01*
X175488321Y-214568510D01*
X175633311Y-214356310D01*
X175661639Y-214216420D01*
X180810514Y-214216420D01*
X180833718Y-214339737D01*
X180972790Y-214555861D01*
X181184990Y-214700851D01*
X181436880Y-214751860D01*
X182986880Y-214751860D01*
X183222197Y-214707582D01*
X183438321Y-214568510D01*
X183583311Y-214356310D01*
X183634320Y-214104420D01*
X183634320Y-212804420D01*
X183590042Y-212569103D01*
X183450970Y-212352979D01*
X183238770Y-212207989D01*
X182986880Y-212156980D01*
X181436880Y-212156980D01*
X181201563Y-212201258D01*
X180985439Y-212340330D01*
X180840449Y-212552530D01*
X180812121Y-212692420D01*
X175663246Y-212692420D01*
X175640042Y-212569103D01*
X175500970Y-212352979D01*
X175288770Y-212207989D01*
X175036880Y-212156980D01*
X173486880Y-212156980D01*
X173251563Y-212201258D01*
X173035439Y-212340330D01*
X172928104Y-212497420D01*
X161527511Y-212497420D01*
X161273880Y-212243790D01*
X161273880Y-211424062D01*
X161426502Y-211271706D01*
X161433368Y-211255170D01*
X162056880Y-211255170D01*
X162056880Y-211745730D01*
X162153553Y-211979119D01*
X162332182Y-212157747D01*
X162565571Y-212254420D01*
X163181130Y-212254420D01*
X163339880Y-212095670D01*
X163339880Y-211096420D01*
X163593880Y-211096420D01*
X163593880Y-212095670D01*
X163752630Y-212254420D01*
X164368189Y-212254420D01*
X164601578Y-212157747D01*
X164780207Y-211979119D01*
X164876880Y-211745730D01*
X164876880Y-211255170D01*
X170006880Y-211255170D01*
X170006880Y-211745730D01*
X170103553Y-211979119D01*
X170282182Y-212157747D01*
X170515571Y-212254420D01*
X171131130Y-212254420D01*
X171289880Y-212095670D01*
X171289880Y-211096420D01*
X171543880Y-211096420D01*
X171543880Y-212095670D01*
X171702630Y-212254420D01*
X172318189Y-212254420D01*
X172551578Y-212157747D01*
X172730207Y-211979119D01*
X172826880Y-211745730D01*
X172826880Y-211255170D01*
X183646880Y-211255170D01*
X183646880Y-211745730D01*
X183743553Y-211979119D01*
X183922182Y-212157747D01*
X184155571Y-212254420D01*
X184771130Y-212254420D01*
X184929880Y-212095670D01*
X184929880Y-211096420D01*
X185183880Y-211096420D01*
X185183880Y-212095670D01*
X185342630Y-212254420D01*
X185958189Y-212254420D01*
X186191578Y-212157747D01*
X186370207Y-211979119D01*
X186466880Y-211745730D01*
X186466880Y-211255170D01*
X191596880Y-211255170D01*
X191596880Y-211745730D01*
X191693553Y-211979119D01*
X191872182Y-212157747D01*
X192105571Y-212254420D01*
X192721130Y-212254420D01*
X192879880Y-212095670D01*
X192879880Y-211096420D01*
X193133880Y-211096420D01*
X193133880Y-212095670D01*
X193292630Y-212254420D01*
X193908189Y-212254420D01*
X194141578Y-212157747D01*
X194320207Y-211979119D01*
X194416880Y-211745730D01*
X194416880Y-211255170D01*
X194258130Y-211096420D01*
X193133880Y-211096420D01*
X192879880Y-211096420D01*
X191755630Y-211096420D01*
X191596880Y-211255170D01*
X186466880Y-211255170D01*
X186308130Y-211096420D01*
X185183880Y-211096420D01*
X184929880Y-211096420D01*
X183805630Y-211096420D01*
X183646880Y-211255170D01*
X172826880Y-211255170D01*
X172668130Y-211096420D01*
X171543880Y-211096420D01*
X171289880Y-211096420D01*
X170165630Y-211096420D01*
X170006880Y-211255170D01*
X164876880Y-211255170D01*
X164718130Y-211096420D01*
X163593880Y-211096420D01*
X163339880Y-211096420D01*
X162215630Y-211096420D01*
X162056880Y-211255170D01*
X161433368Y-211255170D01*
X161591193Y-210875088D01*
X161591567Y-210445636D01*
X161487226Y-210193110D01*
X162056880Y-210193110D01*
X162056880Y-210683670D01*
X162215630Y-210842420D01*
X163339880Y-210842420D01*
X163339880Y-209843170D01*
X163593880Y-209843170D01*
X163593880Y-210842420D01*
X164718130Y-210842420D01*
X164876880Y-210683670D01*
X164876880Y-210193110D01*
X170006880Y-210193110D01*
X170006880Y-210683670D01*
X170165630Y-210842420D01*
X171289880Y-210842420D01*
X171289880Y-209843170D01*
X171543880Y-209843170D01*
X171543880Y-210842420D01*
X172668130Y-210842420D01*
X172826880Y-210683670D01*
X172826880Y-210193110D01*
X183646880Y-210193110D01*
X183646880Y-210683670D01*
X183805630Y-210842420D01*
X184929880Y-210842420D01*
X184929880Y-209843170D01*
X185183880Y-209843170D01*
X185183880Y-210842420D01*
X186308130Y-210842420D01*
X186466880Y-210683670D01*
X186466880Y-210193110D01*
X191596880Y-210193110D01*
X191596880Y-210683670D01*
X191755630Y-210842420D01*
X192879880Y-210842420D01*
X192879880Y-209843170D01*
X193133880Y-209843170D01*
X193133880Y-210842420D01*
X194258130Y-210842420D01*
X194416880Y-210683670D01*
X194416880Y-210193110D01*
X194320207Y-209959721D01*
X194141578Y-209781093D01*
X193908189Y-209684420D01*
X193292630Y-209684420D01*
X193133880Y-209843170D01*
X192879880Y-209843170D01*
X192721130Y-209684420D01*
X192105571Y-209684420D01*
X191872182Y-209781093D01*
X191693553Y-209959721D01*
X191596880Y-210193110D01*
X186466880Y-210193110D01*
X186370207Y-209959721D01*
X186191578Y-209781093D01*
X185958189Y-209684420D01*
X185342630Y-209684420D01*
X185183880Y-209843170D01*
X184929880Y-209843170D01*
X184771130Y-209684420D01*
X184155571Y-209684420D01*
X183922182Y-209781093D01*
X183743553Y-209959721D01*
X183646880Y-210193110D01*
X172826880Y-210193110D01*
X172730207Y-209959721D01*
X172551578Y-209781093D01*
X172318189Y-209684420D01*
X171702630Y-209684420D01*
X171543880Y-209843170D01*
X171289880Y-209843170D01*
X171131130Y-209684420D01*
X170515571Y-209684420D01*
X170282182Y-209781093D01*
X170103553Y-209959721D01*
X170006880Y-210193110D01*
X164876880Y-210193110D01*
X164780207Y-209959721D01*
X164601578Y-209781093D01*
X164368189Y-209684420D01*
X163752630Y-209684420D01*
X163593880Y-209843170D01*
X163339880Y-209843170D01*
X163181130Y-209684420D01*
X162565571Y-209684420D01*
X162332182Y-209781093D01*
X162153553Y-209959721D01*
X162056880Y-210193110D01*
X161487226Y-210193110D01*
X161427569Y-210048731D01*
X161124166Y-209744798D01*
X160727548Y-209580107D01*
X160298096Y-209579733D01*
X159901191Y-209743731D01*
X159597258Y-210047134D01*
X159432567Y-210443752D01*
X159432193Y-210873204D01*
X159261880Y-210873204D01*
X159261880Y-194557480D01*
X164201532Y-194557480D01*
X164506892Y-195296506D01*
X165071820Y-195862421D01*
X165810312Y-196169070D01*
X166609940Y-196169768D01*
X167348966Y-195864408D01*
X167914881Y-195299480D01*
X168221530Y-194560988D01*
X168222228Y-193761360D01*
X167916868Y-193022334D01*
X167351940Y-192456419D01*
X166613448Y-192149770D01*
X165813820Y-192149072D01*
X165074794Y-192454432D01*
X164508879Y-193019360D01*
X164202230Y-193757852D01*
X164201532Y-194557480D01*
X159261880Y-194557480D01*
X159261880Y-186544622D01*
X159745397Y-186867697D01*
X160583880Y-187034482D01*
X161422363Y-186867697D01*
X162133195Y-186392735D01*
X162608157Y-185681903D01*
X162774942Y-184843420D01*
X162608157Y-184004937D01*
X162133195Y-183294105D01*
X161422363Y-182819143D01*
X160583880Y-182652358D01*
X159745397Y-182819143D01*
X159261880Y-183142218D01*
X159261880Y-162076860D01*
X161651880Y-162076860D01*
X161887197Y-162032582D01*
X162103321Y-161893510D01*
X162248311Y-161681310D01*
X162299320Y-161429420D01*
X162299320Y-158629420D01*
X162255042Y-158394103D01*
X162115970Y-158177979D01*
X161903770Y-158032989D01*
X161651880Y-157981980D01*
X159261880Y-157981980D01*
X159261880Y-155129420D01*
X181104440Y-155129420D01*
X181104440Y-157929420D01*
X181148718Y-158164737D01*
X181222500Y-158279398D01*
X181155449Y-158377530D01*
X181104440Y-158629420D01*
X181104440Y-161429420D01*
X181148718Y-161664737D01*
X181287790Y-161880861D01*
X181499990Y-162025851D01*
X181751880Y-162076860D01*
X184551880Y-162076860D01*
X184787197Y-162032582D01*
X185003321Y-161893510D01*
X185148311Y-161681310D01*
X185199320Y-161429420D01*
X185199320Y-158629420D01*
X185155042Y-158394103D01*
X185081260Y-158279442D01*
X185148311Y-158181310D01*
X185199320Y-157929420D01*
X185199320Y-155129420D01*
X185155042Y-154894103D01*
X185015970Y-154677979D01*
X184803770Y-154532989D01*
X184551880Y-154481980D01*
X181751880Y-154481980D01*
X181516563Y-154526258D01*
X181300439Y-154665330D01*
X181155449Y-154877530D01*
X181104440Y-155129420D01*
X159261880Y-155129420D01*
X159261880Y-147876860D01*
X161651880Y-147876860D01*
X161887197Y-147832582D01*
X162103321Y-147693510D01*
X162215438Y-147529420D01*
X181104440Y-147529420D01*
X181104440Y-150329420D01*
X181148718Y-150564737D01*
X181287790Y-150780861D01*
X181499990Y-150925851D01*
X181751880Y-150976860D01*
X184551880Y-150976860D01*
X184787197Y-150932582D01*
X185003321Y-150793510D01*
X185148311Y-150581310D01*
X185199320Y-150329420D01*
X185199320Y-147529420D01*
X185155042Y-147294103D01*
X185114342Y-147230853D01*
X185186880Y-147055730D01*
X185186880Y-145815170D01*
X185028130Y-145656420D01*
X183278880Y-145656420D01*
X183278880Y-145676420D01*
X183024880Y-145676420D01*
X183024880Y-145656420D01*
X181275630Y-145656420D01*
X181116880Y-145815170D01*
X181116880Y-147055730D01*
X181188635Y-147228961D01*
X181155449Y-147277530D01*
X181104440Y-147529420D01*
X162215438Y-147529420D01*
X162248311Y-147481310D01*
X162299320Y-147229420D01*
X162299320Y-144429420D01*
X162255042Y-144194103D01*
X162132142Y-144003110D01*
X181116880Y-144003110D01*
X181116880Y-145243670D01*
X181275630Y-145402420D01*
X183024880Y-145402420D01*
X183024880Y-143653170D01*
X183278880Y-143653170D01*
X183278880Y-145402420D01*
X185028130Y-145402420D01*
X185186880Y-145243670D01*
X185186880Y-144003110D01*
X185090207Y-143769721D01*
X184911578Y-143591093D01*
X184678189Y-143494420D01*
X183437630Y-143494420D01*
X183278880Y-143653170D01*
X183024880Y-143653170D01*
X182866130Y-143494420D01*
X181625571Y-143494420D01*
X181392182Y-143591093D01*
X181213553Y-143769721D01*
X181116880Y-144003110D01*
X162132142Y-144003110D01*
X162115970Y-143977979D01*
X161903770Y-143832989D01*
X161651880Y-143781980D01*
X159309096Y-143781980D01*
X159317358Y-143740441D01*
X159435736Y-143563275D01*
X159612899Y-143444899D01*
X159891811Y-143389420D01*
X260081950Y-143389420D01*
X260360859Y-143444898D01*
G36*
X253349880Y-193275051D02*
X253349880Y-206469789D01*
X248250695Y-201370605D01*
X248101033Y-201270604D01*
X248003485Y-201205424D01*
X247711880Y-201147420D01*
X244676522Y-201147420D01*
X244524166Y-200994798D01*
X244127548Y-200830107D01*
X243698096Y-200829733D01*
X243301191Y-200993731D01*
X242997258Y-201297134D01*
X242832567Y-201693752D01*
X242832193Y-202123204D01*
X242996191Y-202520109D01*
X243299594Y-202824042D01*
X243696212Y-202988733D01*
X244125664Y-202989107D01*
X244522569Y-202825109D01*
X244676526Y-202671420D01*
X247396250Y-202671420D01*
X252749880Y-208025051D01*
X252749880Y-209009420D01*
X252807884Y-209301025D01*
X252899880Y-209438706D01*
X252899880Y-209509420D01*
X252957884Y-209801025D01*
X253063922Y-209959721D01*
X253123065Y-210048235D01*
X253219285Y-210144455D01*
X253042841Y-210047516D01*
X252654457Y-210208379D01*
X252239491Y-210584286D01*
X252136866Y-210801123D01*
X251866578Y-210396609D01*
X251401031Y-210085540D01*
X250851880Y-209976307D01*
X250302729Y-210085540D01*
X249837182Y-210396609D01*
X249581880Y-210778695D01*
X249326578Y-210396609D01*
X248861031Y-210085540D01*
X248311880Y-209976307D01*
X247762729Y-210085540D01*
X247297182Y-210396609D01*
X247041880Y-210778695D01*
X246786578Y-210396609D01*
X246321031Y-210085540D01*
X245771880Y-209976307D01*
X245222729Y-210085540D01*
X244757182Y-210396609D01*
X244501880Y-210778695D01*
X244246578Y-210396609D01*
X243781031Y-210085540D01*
X243231880Y-209976307D01*
X242682729Y-210085540D01*
X242217182Y-210396609D01*
X241946894Y-210801123D01*
X241844269Y-210584286D01*
X241429303Y-210208379D01*
X241040919Y-210047516D01*
X240818880Y-210169505D01*
X240818880Y-211312420D01*
X240838880Y-211312420D01*
X240838880Y-211566420D01*
X240818880Y-211566420D01*
X240818880Y-212709335D01*
X241040919Y-212831324D01*
X241429303Y-212670461D01*
X241844269Y-212294554D01*
X241946894Y-212077717D01*
X242217182Y-212482231D01*
X242682729Y-212793300D01*
X243231880Y-212902533D01*
X243781031Y-212793300D01*
X244246578Y-212482231D01*
X244501880Y-212100145D01*
X244757182Y-212482231D01*
X245222729Y-212793300D01*
X245771880Y-212902533D01*
X246321031Y-212793300D01*
X246786578Y-212482231D01*
X247041880Y-212100145D01*
X247297182Y-212482231D01*
X247762729Y-212793300D01*
X248311880Y-212902533D01*
X248861031Y-212793300D01*
X249326578Y-212482231D01*
X249581880Y-212100145D01*
X249837182Y-212482231D01*
X250302729Y-212793300D01*
X250851880Y-212902533D01*
X251401031Y-212793300D01*
X251866578Y-212482231D01*
X252136866Y-212077717D01*
X252239491Y-212294554D01*
X252654457Y-212670461D01*
X253042841Y-212831324D01*
X253264880Y-212709335D01*
X253264880Y-211566420D01*
X253244880Y-211566420D01*
X253244880Y-211312420D01*
X253264880Y-211312420D01*
X253264880Y-211292420D01*
X253518880Y-211292420D01*
X253518880Y-211312420D01*
X253538880Y-211312420D01*
X253538880Y-211566420D01*
X253518880Y-211566420D01*
X253518880Y-212709335D01*
X253740919Y-212831324D01*
X254129303Y-212670461D01*
X254199880Y-212606527D01*
X254199880Y-212743789D01*
X252246250Y-214697420D01*
X243961880Y-214697420D01*
X243670275Y-214755424D01*
X243423064Y-214920605D01*
X240738158Y-217605512D01*
X240691880Y-217596307D01*
X240142729Y-217705540D01*
X239677182Y-218016609D01*
X239421880Y-218398695D01*
X239166578Y-218016609D01*
X238913880Y-217847761D01*
X238913880Y-215085050D01*
X239950695Y-214048235D01*
X240115876Y-213801025D01*
X240126816Y-213746025D01*
X240173880Y-213509420D01*
X240173880Y-212761343D01*
X240342841Y-212831324D01*
X240564880Y-212709335D01*
X240564880Y-211566420D01*
X240544880Y-211566420D01*
X240544880Y-211312420D01*
X240564880Y-211312420D01*
X240564880Y-210169505D01*
X240342841Y-210047516D01*
X240173880Y-210117497D01*
X240173880Y-205225050D01*
X241000695Y-204398236D01*
X241165876Y-204151025D01*
X241174152Y-204109420D01*
X241223880Y-203859420D01*
X241223880Y-198709420D01*
X241165876Y-198417815D01*
X241000695Y-198170605D01*
X238800695Y-195970605D01*
X238777975Y-195955424D01*
X238553485Y-195805424D01*
X238261880Y-195747420D01*
X230304037Y-195747420D01*
X229965803Y-195408596D01*
X229835665Y-195354558D01*
X229963680Y-195301663D01*
X230367704Y-194898343D01*
X230586630Y-194371111D01*
X230587128Y-193800233D01*
X230369123Y-193272620D01*
X229965803Y-192868596D01*
X229851112Y-192820972D01*
X229905885Y-192798284D01*
X229980019Y-192552165D01*
X229151880Y-191724025D01*
X228323741Y-192552165D01*
X228397875Y-192798284D01*
X228456134Y-192819225D01*
X228340080Y-192867177D01*
X227936056Y-193270497D01*
X227717130Y-193797729D01*
X227716632Y-194368607D01*
X227934637Y-194896220D01*
X228337957Y-195300244D01*
X228468095Y-195354282D01*
X228340080Y-195407177D01*
X227936056Y-195810497D01*
X227717130Y-196337729D01*
X227716632Y-196908607D01*
X227934637Y-197436220D01*
X228337957Y-197840244D01*
X228468095Y-197894282D01*
X228340080Y-197947177D01*
X227936056Y-198350497D01*
X227717130Y-198877729D01*
X227716632Y-199448607D01*
X227934637Y-199976220D01*
X228337957Y-200380244D01*
X228468095Y-200434282D01*
X228340080Y-200487177D01*
X227936056Y-200890497D01*
X227717130Y-201417729D01*
X227716632Y-201988607D01*
X227934637Y-202516220D01*
X228337957Y-202920244D01*
X228865189Y-203139170D01*
X229436067Y-203139668D01*
X229963680Y-202921663D01*
X230367704Y-202518343D01*
X230586630Y-201991111D01*
X230587128Y-201420233D01*
X230369123Y-200892620D01*
X229965803Y-200488596D01*
X229835665Y-200434558D01*
X229963680Y-200381663D01*
X230367704Y-199978343D01*
X230389264Y-199926420D01*
X230801250Y-199926420D01*
X232823064Y-201948235D01*
X232938083Y-202025088D01*
X233070275Y-202113416D01*
X233361880Y-202171420D01*
X234137174Y-202171420D01*
X233982567Y-202543752D01*
X233982193Y-202973204D01*
X234146191Y-203370109D01*
X234299880Y-203524066D01*
X234299880Y-208293790D01*
X232973065Y-209620605D01*
X232807884Y-209867815D01*
X232749880Y-210159420D01*
X232749880Y-212094215D01*
X232700695Y-212020604D01*
X228162326Y-207482235D01*
X229176510Y-207482235D01*
X229500860Y-208267220D01*
X230100921Y-208868329D01*
X230885339Y-209194048D01*
X231734695Y-209194790D01*
X232519680Y-208870440D01*
X233120789Y-208270379D01*
X233446508Y-207485961D01*
X233447250Y-206636605D01*
X233122900Y-205851620D01*
X232522839Y-205250511D01*
X231738421Y-204924792D01*
X230889065Y-204924050D01*
X230104080Y-205248400D01*
X229502971Y-205848461D01*
X229177252Y-206632879D01*
X229176510Y-207482235D01*
X228162326Y-207482235D01*
X227800695Y-207120605D01*
X227690738Y-207047134D01*
X227553485Y-206955424D01*
X227261880Y-206897420D01*
X220826522Y-206897420D01*
X220674166Y-206744798D01*
X220277548Y-206580107D01*
X219848096Y-206579733D01*
X219458022Y-206740908D01*
X221550696Y-204648235D01*
X221649714Y-204500043D01*
X221715876Y-204401025D01*
X221773880Y-204109420D01*
X221773880Y-196859420D01*
X221715876Y-196567815D01*
X221635431Y-196447421D01*
X221573880Y-196355303D01*
X221573880Y-194557480D01*
X222201532Y-194557480D01*
X222506892Y-195296506D01*
X223071820Y-195862421D01*
X223810312Y-196169070D01*
X224609940Y-196169768D01*
X225348966Y-195864408D01*
X225914881Y-195299480D01*
X226221530Y-194560988D01*
X226222228Y-193761360D01*
X225916868Y-193022334D01*
X225351940Y-192456419D01*
X224613448Y-192149770D01*
X223813820Y-192149072D01*
X223074794Y-192454432D01*
X222508879Y-193019360D01*
X222202230Y-193757852D01*
X222201532Y-194557480D01*
X221573880Y-194557480D01*
X221573880Y-191327643D01*
X227704915Y-191327643D01*
X227732102Y-191897874D01*
X227898016Y-192298425D01*
X228144135Y-192372559D01*
X228972275Y-191544420D01*
X229331485Y-191544420D01*
X230159625Y-192372559D01*
X230405744Y-192298425D01*
X230598845Y-191761197D01*
X230571658Y-191190966D01*
X230405744Y-190790415D01*
X230159625Y-190716281D01*
X229331485Y-191544420D01*
X228972275Y-191544420D01*
X228144135Y-190716281D01*
X227898016Y-190790415D01*
X227704915Y-191327643D01*
X221573880Y-191327643D01*
X221573880Y-190536675D01*
X228323741Y-190536675D01*
X229151880Y-191364815D01*
X229980019Y-190536675D01*
X229905885Y-190290556D01*
X229368657Y-190097455D01*
X228798426Y-190124642D01*
X228397875Y-190290556D01*
X228323741Y-190536675D01*
X221573880Y-190536675D01*
X221573880Y-188709420D01*
X221515876Y-188417815D01*
X221350695Y-188170605D01*
X219862325Y-186682235D01*
X229176510Y-186682235D01*
X229500860Y-187467220D01*
X230100921Y-188068329D01*
X230885339Y-188394048D01*
X231734695Y-188394790D01*
X232519680Y-188070440D01*
X233120789Y-187470379D01*
X233446508Y-186685961D01*
X233447250Y-185836605D01*
X233122900Y-185051620D01*
X232522839Y-184450511D01*
X231738421Y-184124792D01*
X230889065Y-184124050D01*
X230104080Y-184448400D01*
X229502971Y-185048461D01*
X229177252Y-185832879D01*
X229176510Y-186682235D01*
X219862325Y-186682235D01*
X218400695Y-185220605D01*
X218153485Y-185055424D01*
X217861880Y-184997420D01*
X212333844Y-184997420D01*
X212121934Y-184680273D01*
X211640165Y-184358366D01*
X211071880Y-184245327D01*
X210503595Y-184358366D01*
X210021826Y-184680273D01*
X209801880Y-185009446D01*
X209581934Y-184680273D01*
X209100165Y-184358366D01*
X208531880Y-184245327D01*
X207963595Y-184358366D01*
X207481826Y-184680273D01*
X207261880Y-185009446D01*
X207041934Y-184680273D01*
X206560165Y-184358366D01*
X205991880Y-184245327D01*
X205423595Y-184358366D01*
X204941826Y-184680273D01*
X204721880Y-185009446D01*
X204501934Y-184680273D01*
X204020165Y-184358366D01*
X203451880Y-184245327D01*
X202883595Y-184358366D01*
X202401826Y-184680273D01*
X202374030Y-184721872D01*
X202365042Y-184674103D01*
X202225970Y-184457979D01*
X202013770Y-184312989D01*
X201761880Y-184261980D01*
X201673880Y-184261980D01*
X201673880Y-183875050D01*
X203977511Y-181571420D01*
X241646250Y-181571420D01*
X253349880Y-193275051D01*
X253349880Y-193275051D01*
G37*
X253349880Y-193275051D02*
X253349880Y-206469789D01*
X248250695Y-201370605D01*
X248101033Y-201270604D01*
X248003485Y-201205424D01*
X247711880Y-201147420D01*
X244676522Y-201147420D01*
X244524166Y-200994798D01*
X244127548Y-200830107D01*
X243698096Y-200829733D01*
X243301191Y-200993731D01*
X242997258Y-201297134D01*
X242832567Y-201693752D01*
X242832193Y-202123204D01*
X242996191Y-202520109D01*
X243299594Y-202824042D01*
X243696212Y-202988733D01*
X244125664Y-202989107D01*
X244522569Y-202825109D01*
X244676526Y-202671420D01*
X247396250Y-202671420D01*
X252749880Y-208025051D01*
X252749880Y-209009420D01*
X252807884Y-209301025D01*
X252899880Y-209438706D01*
X252899880Y-209509420D01*
X252957884Y-209801025D01*
X253063922Y-209959721D01*
X253123065Y-210048235D01*
X253219285Y-210144455D01*
X253042841Y-210047516D01*
X252654457Y-210208379D01*
X252239491Y-210584286D01*
X252136866Y-210801123D01*
X251866578Y-210396609D01*
X251401031Y-210085540D01*
X250851880Y-209976307D01*
X250302729Y-210085540D01*
X249837182Y-210396609D01*
X249581880Y-210778695D01*
X249326578Y-210396609D01*
X248861031Y-210085540D01*
X248311880Y-209976307D01*
X247762729Y-210085540D01*
X247297182Y-210396609D01*
X247041880Y-210778695D01*
X246786578Y-210396609D01*
X246321031Y-210085540D01*
X245771880Y-209976307D01*
X245222729Y-210085540D01*
X244757182Y-210396609D01*
X244501880Y-210778695D01*
X244246578Y-210396609D01*
X243781031Y-210085540D01*
X243231880Y-209976307D01*
X242682729Y-210085540D01*
X242217182Y-210396609D01*
X241946894Y-210801123D01*
X241844269Y-210584286D01*
X241429303Y-210208379D01*
X241040919Y-210047516D01*
X240818880Y-210169505D01*
X240818880Y-211312420D01*
X240838880Y-211312420D01*
X240838880Y-211566420D01*
X240818880Y-211566420D01*
X240818880Y-212709335D01*
X241040919Y-212831324D01*
X241429303Y-212670461D01*
X241844269Y-212294554D01*
X241946894Y-212077717D01*
X242217182Y-212482231D01*
X242682729Y-212793300D01*
X243231880Y-212902533D01*
X243781031Y-212793300D01*
X244246578Y-212482231D01*
X244501880Y-212100145D01*
X244757182Y-212482231D01*
X245222729Y-212793300D01*
X245771880Y-212902533D01*
X246321031Y-212793300D01*
X246786578Y-212482231D01*
X247041880Y-212100145D01*
X247297182Y-212482231D01*
X247762729Y-212793300D01*
X248311880Y-212902533D01*
X248861031Y-212793300D01*
X249326578Y-212482231D01*
X249581880Y-212100145D01*
X249837182Y-212482231D01*
X250302729Y-212793300D01*
X250851880Y-212902533D01*
X251401031Y-212793300D01*
X251866578Y-212482231D01*
X252136866Y-212077717D01*
X252239491Y-212294554D01*
X252654457Y-212670461D01*
X253042841Y-212831324D01*
X253264880Y-212709335D01*
X253264880Y-211566420D01*
X253244880Y-211566420D01*
X253244880Y-211312420D01*
X253264880Y-211312420D01*
X253264880Y-211292420D01*
X253518880Y-211292420D01*
X253518880Y-211312420D01*
X253538880Y-211312420D01*
X253538880Y-211566420D01*
X253518880Y-211566420D01*
X253518880Y-212709335D01*
X253740919Y-212831324D01*
X254129303Y-212670461D01*
X254199880Y-212606527D01*
X254199880Y-212743789D01*
X252246250Y-214697420D01*
X243961880Y-214697420D01*
X243670275Y-214755424D01*
X243423064Y-214920605D01*
X240738158Y-217605512D01*
X240691880Y-217596307D01*
X240142729Y-217705540D01*
X239677182Y-218016609D01*
X239421880Y-218398695D01*
X239166578Y-218016609D01*
X238913880Y-217847761D01*
X238913880Y-215085050D01*
X239950695Y-214048235D01*
X240115876Y-213801025D01*
X240126816Y-213746025D01*
X240173880Y-213509420D01*
X240173880Y-212761343D01*
X240342841Y-212831324D01*
X240564880Y-212709335D01*
X240564880Y-211566420D01*
X240544880Y-211566420D01*
X240544880Y-211312420D01*
X240564880Y-211312420D01*
X240564880Y-210169505D01*
X240342841Y-210047516D01*
X240173880Y-210117497D01*
X240173880Y-205225050D01*
X241000695Y-204398236D01*
X241165876Y-204151025D01*
X241174152Y-204109420D01*
X241223880Y-203859420D01*
X241223880Y-198709420D01*
X241165876Y-198417815D01*
X241000695Y-198170605D01*
X238800695Y-195970605D01*
X238777975Y-195955424D01*
X238553485Y-195805424D01*
X238261880Y-195747420D01*
X230304037Y-195747420D01*
X229965803Y-195408596D01*
X229835665Y-195354558D01*
X229963680Y-195301663D01*
X230367704Y-194898343D01*
X230586630Y-194371111D01*
X230587128Y-193800233D01*
X230369123Y-193272620D01*
X229965803Y-192868596D01*
X229851112Y-192820972D01*
X229905885Y-192798284D01*
X229980019Y-192552165D01*
X229151880Y-191724025D01*
X228323741Y-192552165D01*
X228397875Y-192798284D01*
X228456134Y-192819225D01*
X228340080Y-192867177D01*
X227936056Y-193270497D01*
X227717130Y-193797729D01*
X227716632Y-194368607D01*
X227934637Y-194896220D01*
X228337957Y-195300244D01*
X228468095Y-195354282D01*
X228340080Y-195407177D01*
X227936056Y-195810497D01*
X227717130Y-196337729D01*
X227716632Y-196908607D01*
X227934637Y-197436220D01*
X228337957Y-197840244D01*
X228468095Y-197894282D01*
X228340080Y-197947177D01*
X227936056Y-198350497D01*
X227717130Y-198877729D01*
X227716632Y-199448607D01*
X227934637Y-199976220D01*
X228337957Y-200380244D01*
X228468095Y-200434282D01*
X228340080Y-200487177D01*
X227936056Y-200890497D01*
X227717130Y-201417729D01*
X227716632Y-201988607D01*
X227934637Y-202516220D01*
X228337957Y-202920244D01*
X228865189Y-203139170D01*
X229436067Y-203139668D01*
X229963680Y-202921663D01*
X230367704Y-202518343D01*
X230586630Y-201991111D01*
X230587128Y-201420233D01*
X230369123Y-200892620D01*
X229965803Y-200488596D01*
X229835665Y-200434558D01*
X229963680Y-200381663D01*
X230367704Y-199978343D01*
X230389264Y-199926420D01*
X230801250Y-199926420D01*
X232823064Y-201948235D01*
X232938083Y-202025088D01*
X233070275Y-202113416D01*
X233361880Y-202171420D01*
X234137174Y-202171420D01*
X233982567Y-202543752D01*
X233982193Y-202973204D01*
X234146191Y-203370109D01*
X234299880Y-203524066D01*
X234299880Y-208293790D01*
X232973065Y-209620605D01*
X232807884Y-209867815D01*
X232749880Y-210159420D01*
X232749880Y-212094215D01*
X232700695Y-212020604D01*
X228162326Y-207482235D01*
X229176510Y-207482235D01*
X229500860Y-208267220D01*
X230100921Y-208868329D01*
X230885339Y-209194048D01*
X231734695Y-209194790D01*
X232519680Y-208870440D01*
X233120789Y-208270379D01*
X233446508Y-207485961D01*
X233447250Y-206636605D01*
X233122900Y-205851620D01*
X232522839Y-205250511D01*
X231738421Y-204924792D01*
X230889065Y-204924050D01*
X230104080Y-205248400D01*
X229502971Y-205848461D01*
X229177252Y-206632879D01*
X229176510Y-207482235D01*
X228162326Y-207482235D01*
X227800695Y-207120605D01*
X227690738Y-207047134D01*
X227553485Y-206955424D01*
X227261880Y-206897420D01*
X220826522Y-206897420D01*
X220674166Y-206744798D01*
X220277548Y-206580107D01*
X219848096Y-206579733D01*
X219458022Y-206740908D01*
X221550696Y-204648235D01*
X221649714Y-204500043D01*
X221715876Y-204401025D01*
X221773880Y-204109420D01*
X221773880Y-196859420D01*
X221715876Y-196567815D01*
X221635431Y-196447421D01*
X221573880Y-196355303D01*
X221573880Y-194557480D01*
X222201532Y-194557480D01*
X222506892Y-195296506D01*
X223071820Y-195862421D01*
X223810312Y-196169070D01*
X224609940Y-196169768D01*
X225348966Y-195864408D01*
X225914881Y-195299480D01*
X226221530Y-194560988D01*
X226222228Y-193761360D01*
X225916868Y-193022334D01*
X225351940Y-192456419D01*
X224613448Y-192149770D01*
X223813820Y-192149072D01*
X223074794Y-192454432D01*
X222508879Y-193019360D01*
X222202230Y-193757852D01*
X222201532Y-194557480D01*
X221573880Y-194557480D01*
X221573880Y-191327643D01*
X227704915Y-191327643D01*
X227732102Y-191897874D01*
X227898016Y-192298425D01*
X228144135Y-192372559D01*
X228972275Y-191544420D01*
X229331485Y-191544420D01*
X230159625Y-192372559D01*
X230405744Y-192298425D01*
X230598845Y-191761197D01*
X230571658Y-191190966D01*
X230405744Y-190790415D01*
X230159625Y-190716281D01*
X229331485Y-191544420D01*
X228972275Y-191544420D01*
X228144135Y-190716281D01*
X227898016Y-190790415D01*
X227704915Y-191327643D01*
X221573880Y-191327643D01*
X221573880Y-190536675D01*
X228323741Y-190536675D01*
X229151880Y-191364815D01*
X229980019Y-190536675D01*
X229905885Y-190290556D01*
X229368657Y-190097455D01*
X228798426Y-190124642D01*
X228397875Y-190290556D01*
X228323741Y-190536675D01*
X221573880Y-190536675D01*
X221573880Y-188709420D01*
X221515876Y-188417815D01*
X221350695Y-188170605D01*
X219862325Y-186682235D01*
X229176510Y-186682235D01*
X229500860Y-187467220D01*
X230100921Y-188068329D01*
X230885339Y-188394048D01*
X231734695Y-188394790D01*
X232519680Y-188070440D01*
X233120789Y-187470379D01*
X233446508Y-186685961D01*
X233447250Y-185836605D01*
X233122900Y-185051620D01*
X232522839Y-184450511D01*
X231738421Y-184124792D01*
X230889065Y-184124050D01*
X230104080Y-184448400D01*
X229502971Y-185048461D01*
X229177252Y-185832879D01*
X229176510Y-186682235D01*
X219862325Y-186682235D01*
X218400695Y-185220605D01*
X218153485Y-185055424D01*
X217861880Y-184997420D01*
X212333844Y-184997420D01*
X212121934Y-184680273D01*
X211640165Y-184358366D01*
X211071880Y-184245327D01*
X210503595Y-184358366D01*
X210021826Y-184680273D01*
X209801880Y-185009446D01*
X209581934Y-184680273D01*
X209100165Y-184358366D01*
X208531880Y-184245327D01*
X207963595Y-184358366D01*
X207481826Y-184680273D01*
X207261880Y-185009446D01*
X207041934Y-184680273D01*
X206560165Y-184358366D01*
X205991880Y-184245327D01*
X205423595Y-184358366D01*
X204941826Y-184680273D01*
X204721880Y-185009446D01*
X204501934Y-184680273D01*
X204020165Y-184358366D01*
X203451880Y-184245327D01*
X202883595Y-184358366D01*
X202401826Y-184680273D01*
X202374030Y-184721872D01*
X202365042Y-184674103D01*
X202225970Y-184457979D01*
X202013770Y-184312989D01*
X201761880Y-184261980D01*
X201673880Y-184261980D01*
X201673880Y-183875050D01*
X203977511Y-181571420D01*
X241646250Y-181571420D01*
X253349880Y-193275051D01*
G36*
X210021826Y-186838567D02*
X210503595Y-187160474D01*
X211071880Y-187273513D01*
X211640165Y-187160474D01*
X212121934Y-186838567D01*
X212333844Y-186521420D01*
X217546250Y-186521420D01*
X220049880Y-189025050D01*
X220049880Y-191560748D01*
X219641278Y-191391081D01*
X219045098Y-191390561D01*
X218494100Y-191618228D01*
X218072170Y-192039423D01*
X218071785Y-192040351D01*
X217651877Y-191619710D01*
X217101278Y-191391081D01*
X216505098Y-191390561D01*
X215954100Y-191618228D01*
X215532170Y-192039423D01*
X215515339Y-192079957D01*
X215315685Y-192015220D01*
X214441485Y-192889420D01*
X215315685Y-193763620D01*
X215514913Y-193699021D01*
X215530688Y-193737200D01*
X215951883Y-194159130D01*
X215952811Y-194159515D01*
X215532170Y-194579423D01*
X215531785Y-194580351D01*
X215111877Y-194159710D01*
X215071343Y-194142879D01*
X215136080Y-193943225D01*
X214261880Y-193069025D01*
X213387680Y-193943225D01*
X213452279Y-194142453D01*
X213414100Y-194158228D01*
X212992170Y-194579423D01*
X212991785Y-194580351D01*
X212571877Y-194159710D01*
X212570949Y-194159325D01*
X212991590Y-193739417D01*
X213008421Y-193698883D01*
X213208075Y-193763620D01*
X214082275Y-192889420D01*
X213208075Y-192015220D01*
X213008847Y-192079819D01*
X212993072Y-192041640D01*
X212787406Y-191835615D01*
X213387680Y-191835615D01*
X214261880Y-192709815D01*
X215136080Y-191835615D01*
X215054139Y-191582904D01*
X214493850Y-191379172D01*
X213898245Y-191405362D01*
X213469621Y-191582904D01*
X213387680Y-191835615D01*
X212787406Y-191835615D01*
X212571877Y-191619710D01*
X212021278Y-191391081D01*
X211425098Y-191390561D01*
X210874100Y-191618228D01*
X210452170Y-192039423D01*
X210451785Y-192040351D01*
X210031877Y-191619710D01*
X209481278Y-191391081D01*
X208885098Y-191390561D01*
X208334100Y-191618228D01*
X207912170Y-192039423D01*
X207911785Y-192040351D01*
X207491877Y-191619710D01*
X206941278Y-191391081D01*
X206345098Y-191390561D01*
X206123880Y-191481966D01*
X206123880Y-190525050D01*
X207750695Y-188898235D01*
X207915876Y-188651025D01*
X207921410Y-188623204D01*
X207973880Y-188359420D01*
X207973880Y-187395050D01*
X208167831Y-187201099D01*
X208531880Y-187273513D01*
X209100165Y-187160474D01*
X209581934Y-186838567D01*
X209801880Y-186509394D01*
X210021826Y-186838567D01*
X210021826Y-186838567D01*
G37*
X210021826Y-186838567D02*
X210503595Y-187160474D01*
X211071880Y-187273513D01*
X211640165Y-187160474D01*
X212121934Y-186838567D01*
X212333844Y-186521420D01*
X217546250Y-186521420D01*
X220049880Y-189025050D01*
X220049880Y-191560748D01*
X219641278Y-191391081D01*
X219045098Y-191390561D01*
X218494100Y-191618228D01*
X218072170Y-192039423D01*
X218071785Y-192040351D01*
X217651877Y-191619710D01*
X217101278Y-191391081D01*
X216505098Y-191390561D01*
X215954100Y-191618228D01*
X215532170Y-192039423D01*
X215515339Y-192079957D01*
X215315685Y-192015220D01*
X214441485Y-192889420D01*
X215315685Y-193763620D01*
X215514913Y-193699021D01*
X215530688Y-193737200D01*
X215951883Y-194159130D01*
X215952811Y-194159515D01*
X215532170Y-194579423D01*
X215531785Y-194580351D01*
X215111877Y-194159710D01*
X215071343Y-194142879D01*
X215136080Y-193943225D01*
X214261880Y-193069025D01*
X213387680Y-193943225D01*
X213452279Y-194142453D01*
X213414100Y-194158228D01*
X212992170Y-194579423D01*
X212991785Y-194580351D01*
X212571877Y-194159710D01*
X212570949Y-194159325D01*
X212991590Y-193739417D01*
X213008421Y-193698883D01*
X213208075Y-193763620D01*
X214082275Y-192889420D01*
X213208075Y-192015220D01*
X213008847Y-192079819D01*
X212993072Y-192041640D01*
X212787406Y-191835615D01*
X213387680Y-191835615D01*
X214261880Y-192709815D01*
X215136080Y-191835615D01*
X215054139Y-191582904D01*
X214493850Y-191379172D01*
X213898245Y-191405362D01*
X213469621Y-191582904D01*
X213387680Y-191835615D01*
X212787406Y-191835615D01*
X212571877Y-191619710D01*
X212021278Y-191391081D01*
X211425098Y-191390561D01*
X210874100Y-191618228D01*
X210452170Y-192039423D01*
X210451785Y-192040351D01*
X210031877Y-191619710D01*
X209481278Y-191391081D01*
X208885098Y-191390561D01*
X208334100Y-191618228D01*
X207912170Y-192039423D01*
X207911785Y-192040351D01*
X207491877Y-191619710D01*
X206941278Y-191391081D01*
X206345098Y-191390561D01*
X206123880Y-191481966D01*
X206123880Y-190525050D01*
X207750695Y-188898235D01*
X207915876Y-188651025D01*
X207921410Y-188623204D01*
X207973880Y-188359420D01*
X207973880Y-187395050D01*
X208167831Y-187201099D01*
X208531880Y-187273513D01*
X209100165Y-187160474D01*
X209581934Y-186838567D01*
X209801880Y-186509394D01*
X210021826Y-186838567D01*
M02*
