G04 #@! TF.FileFunction,Legend,Top*
%FSLAX46Y46*%
G04 Gerber Fmt 4.6, Leading zero omitted, Abs format (unit mm)*
G04 Created by KiCad (PCBNEW 4.0.6) date 10/22/17 23:17:58*
%MOMM*%
%LPD*%
G01*
G04 APERTURE LIST*
%ADD10C,0.150000*%
%ADD11C,0.250000*%
%ADD12C,0.120000*%
%ADD13C,0.010000*%
G04 APERTURE END LIST*
D10*
D11*
X176663070Y-185886801D02*
X176663070Y-184886801D01*
X176901165Y-184886801D01*
X177044023Y-184934420D01*
X177139261Y-185029658D01*
X177186880Y-185124896D01*
X177234499Y-185315372D01*
X177234499Y-185458230D01*
X177186880Y-185648706D01*
X177139261Y-185743944D01*
X177044023Y-185839182D01*
X176901165Y-185886801D01*
X176663070Y-185886801D01*
X177663070Y-185886801D02*
X177663070Y-185220134D01*
X177663070Y-185410610D02*
X177710689Y-185315372D01*
X177758308Y-185267753D01*
X177853546Y-185220134D01*
X177948785Y-185220134D01*
X179615452Y-185791563D02*
X179567833Y-185839182D01*
X179424976Y-185886801D01*
X179329738Y-185886801D01*
X179186880Y-185839182D01*
X179091642Y-185743944D01*
X179044023Y-185648706D01*
X178996404Y-185458230D01*
X178996404Y-185315372D01*
X179044023Y-185124896D01*
X179091642Y-185029658D01*
X179186880Y-184934420D01*
X179329738Y-184886801D01*
X179424976Y-184886801D01*
X179567833Y-184934420D01*
X179615452Y-184982039D01*
X179996404Y-185601087D02*
X180472595Y-185601087D01*
X179901166Y-185886801D02*
X180234499Y-184886801D01*
X180567833Y-185886801D01*
X180901166Y-185886801D02*
X180901166Y-184886801D01*
X181139261Y-184886801D01*
X181282119Y-184934420D01*
X181377357Y-185029658D01*
X181424976Y-185124896D01*
X181472595Y-185315372D01*
X181472595Y-185458230D01*
X181424976Y-185648706D01*
X181377357Y-185743944D01*
X181282119Y-185839182D01*
X181139261Y-185886801D01*
X180901166Y-185886801D01*
X181901166Y-185886801D02*
X181901166Y-184886801D01*
X182948785Y-185791563D02*
X182901166Y-185839182D01*
X182758309Y-185886801D01*
X182663071Y-185886801D01*
X182520213Y-185839182D01*
X182424975Y-185743944D01*
X182377356Y-185648706D01*
X182329737Y-185458230D01*
X182329737Y-185315372D01*
X182377356Y-185124896D01*
X182424975Y-185029658D01*
X182520213Y-184934420D01*
X182663071Y-184886801D01*
X182758309Y-184886801D01*
X182901166Y-184934420D01*
X182948785Y-184982039D01*
X184139261Y-185886801D02*
X184139261Y-184886801D01*
X184520214Y-184886801D01*
X184615452Y-184934420D01*
X184663071Y-184982039D01*
X184710690Y-185077277D01*
X184710690Y-185220134D01*
X184663071Y-185315372D01*
X184615452Y-185362991D01*
X184520214Y-185410610D01*
X184139261Y-185410610D01*
X185139261Y-185886801D02*
X185139261Y-184886801D01*
X185567833Y-185886801D02*
X185567833Y-185362991D01*
X185520214Y-185267753D01*
X185424976Y-185220134D01*
X185282118Y-185220134D01*
X185186880Y-185267753D01*
X185139261Y-185315372D01*
X186044023Y-185886801D02*
X186044023Y-185220134D01*
X186044023Y-184886801D02*
X185996404Y-184934420D01*
X186044023Y-184982039D01*
X186091642Y-184934420D01*
X186044023Y-184886801D01*
X186044023Y-184982039D01*
X186663070Y-185886801D02*
X186567832Y-185839182D01*
X186520213Y-185743944D01*
X186520213Y-184886801D01*
X187044023Y-185886801D02*
X187044023Y-185220134D01*
X187044023Y-184886801D02*
X186996404Y-184934420D01*
X187044023Y-184982039D01*
X187091642Y-184934420D01*
X187044023Y-184886801D01*
X187044023Y-184982039D01*
X187520213Y-185220134D02*
X187520213Y-186220134D01*
X187520213Y-185267753D02*
X187615451Y-185220134D01*
X187805928Y-185220134D01*
X187901166Y-185267753D01*
X187948785Y-185315372D01*
X187996404Y-185410610D01*
X187996404Y-185696325D01*
X187948785Y-185791563D01*
X187901166Y-185839182D01*
X187805928Y-185886801D01*
X187615451Y-185886801D01*
X187520213Y-185839182D01*
X188424975Y-185220134D02*
X188424975Y-186220134D01*
X188424975Y-185267753D02*
X188520213Y-185220134D01*
X188710690Y-185220134D01*
X188805928Y-185267753D01*
X188853547Y-185315372D01*
X188901166Y-185410610D01*
X188901166Y-185696325D01*
X188853547Y-185791563D01*
X188805928Y-185839182D01*
X188710690Y-185886801D01*
X188520213Y-185886801D01*
X188424975Y-185839182D01*
X189710690Y-185839182D02*
X189615452Y-185886801D01*
X189424975Y-185886801D01*
X189329737Y-185839182D01*
X189282118Y-185743944D01*
X189282118Y-185362991D01*
X189329737Y-185267753D01*
X189424975Y-185220134D01*
X189615452Y-185220134D01*
X189710690Y-185267753D01*
X189758309Y-185362991D01*
X189758309Y-185458230D01*
X189282118Y-185553468D01*
X176924975Y-187636801D02*
X176591641Y-187160610D01*
X176353546Y-187636801D02*
X176353546Y-186636801D01*
X176734499Y-186636801D01*
X176829737Y-186684420D01*
X176877356Y-186732039D01*
X176924975Y-186827277D01*
X176924975Y-186970134D01*
X176877356Y-187065372D01*
X176829737Y-187112991D01*
X176734499Y-187160610D01*
X176353546Y-187160610D01*
X177353546Y-187636801D02*
X177353546Y-186636801D01*
X177734499Y-186636801D01*
X177829737Y-186684420D01*
X177877356Y-186732039D01*
X177924975Y-186827277D01*
X177924975Y-186970134D01*
X177877356Y-187065372D01*
X177829737Y-187112991D01*
X177734499Y-187160610D01*
X177353546Y-187160610D01*
X178353546Y-187636801D02*
X178353546Y-186970134D01*
X178353546Y-186636801D02*
X178305927Y-186684420D01*
X178353546Y-186732039D01*
X178401165Y-186684420D01*
X178353546Y-186636801D01*
X178353546Y-186732039D01*
X179496403Y-186636801D02*
X180163070Y-186636801D01*
X179496403Y-187636801D01*
X180163070Y-187636801D01*
X180924975Y-187589182D02*
X180829737Y-187636801D01*
X180639260Y-187636801D01*
X180544022Y-187589182D01*
X180496403Y-187493944D01*
X180496403Y-187112991D01*
X180544022Y-187017753D01*
X180639260Y-186970134D01*
X180829737Y-186970134D01*
X180924975Y-187017753D01*
X180972594Y-187112991D01*
X180972594Y-187208230D01*
X180496403Y-187303468D01*
X181401165Y-187636801D02*
X181401165Y-186970134D01*
X181401165Y-187160610D02*
X181448784Y-187065372D01*
X181496403Y-187017753D01*
X181591641Y-186970134D01*
X181686880Y-186970134D01*
X182163070Y-187636801D02*
X182067832Y-187589182D01*
X182020213Y-187541563D01*
X181972594Y-187446325D01*
X181972594Y-187160610D01*
X182020213Y-187065372D01*
X182067832Y-187017753D01*
X182163070Y-186970134D01*
X182305928Y-186970134D01*
X182401166Y-187017753D01*
X182448785Y-187065372D01*
X182496404Y-187160610D01*
X182496404Y-187446325D01*
X182448785Y-187541563D01*
X182401166Y-187589182D01*
X182305928Y-187636801D01*
X182163070Y-187636801D01*
X184210690Y-186684420D02*
X184115452Y-186636801D01*
X183972595Y-186636801D01*
X183829737Y-186684420D01*
X183734499Y-186779658D01*
X183686880Y-186874896D01*
X183639261Y-187065372D01*
X183639261Y-187208230D01*
X183686880Y-187398706D01*
X183734499Y-187493944D01*
X183829737Y-187589182D01*
X183972595Y-187636801D01*
X184067833Y-187636801D01*
X184210690Y-187589182D01*
X184258309Y-187541563D01*
X184258309Y-187208230D01*
X184067833Y-187208230D01*
X185115452Y-187636801D02*
X185115452Y-187112991D01*
X185067833Y-187017753D01*
X184972595Y-186970134D01*
X184782118Y-186970134D01*
X184686880Y-187017753D01*
X185115452Y-187589182D02*
X185020214Y-187636801D01*
X184782118Y-187636801D01*
X184686880Y-187589182D01*
X184639261Y-187493944D01*
X184639261Y-187398706D01*
X184686880Y-187303468D01*
X184782118Y-187255849D01*
X185020214Y-187255849D01*
X185115452Y-187208230D01*
X185591642Y-187636801D02*
X185591642Y-186970134D01*
X185591642Y-187065372D02*
X185639261Y-187017753D01*
X185734499Y-186970134D01*
X185877357Y-186970134D01*
X185972595Y-187017753D01*
X186020214Y-187112991D01*
X186020214Y-187636801D01*
X186020214Y-187112991D02*
X186067833Y-187017753D01*
X186163071Y-186970134D01*
X186305928Y-186970134D01*
X186401166Y-187017753D01*
X186448785Y-187112991D01*
X186448785Y-187636801D01*
X187305928Y-187589182D02*
X187210690Y-187636801D01*
X187020213Y-187636801D01*
X186924975Y-187589182D01*
X186877356Y-187493944D01*
X186877356Y-187112991D01*
X186924975Y-187017753D01*
X187020213Y-186970134D01*
X187210690Y-186970134D01*
X187305928Y-187017753D01*
X187353547Y-187112991D01*
X187353547Y-187208230D01*
X186877356Y-187303468D01*
X188115452Y-187112991D02*
X188258309Y-187160610D01*
X188305928Y-187208230D01*
X188353547Y-187303468D01*
X188353547Y-187446325D01*
X188305928Y-187541563D01*
X188258309Y-187589182D01*
X188163071Y-187636801D01*
X187782118Y-187636801D01*
X187782118Y-186636801D01*
X188115452Y-186636801D01*
X188210690Y-186684420D01*
X188258309Y-186732039D01*
X188305928Y-186827277D01*
X188305928Y-186922515D01*
X188258309Y-187017753D01*
X188210690Y-187065372D01*
X188115452Y-187112991D01*
X187782118Y-187112991D01*
X188924975Y-187636801D02*
X188829737Y-187589182D01*
X188782118Y-187541563D01*
X188734499Y-187446325D01*
X188734499Y-187160610D01*
X188782118Y-187065372D01*
X188829737Y-187017753D01*
X188924975Y-186970134D01*
X189067833Y-186970134D01*
X189163071Y-187017753D01*
X189210690Y-187065372D01*
X189258309Y-187160610D01*
X189258309Y-187446325D01*
X189210690Y-187541563D01*
X189163071Y-187589182D01*
X189067833Y-187636801D01*
X188924975Y-187636801D01*
X189591642Y-187636801D02*
X190115452Y-186970134D01*
X189591642Y-186970134D02*
X190115452Y-187636801D01*
D10*
X260025276Y-181251100D02*
G75*
G03X260025276Y-181251100I-1030776J0D01*
G01*
X260055160Y-145501100D02*
G75*
G03X260055160Y-145501100I-1060660J0D01*
G01*
X162025276Y-181251100D02*
G75*
G03X162025276Y-181251100I-1030776J0D01*
G01*
X162055160Y-145501100D02*
G75*
G03X162055160Y-145501100I-1060660J0D01*
G01*
X163994500Y-150501100D02*
X255994500Y-150501100D01*
X255994500Y-150501100D02*
X255994500Y-174501100D01*
X255994500Y-174501100D02*
X255994500Y-176501100D01*
X255994500Y-176501100D02*
X237994500Y-176501100D01*
X237994500Y-176501100D02*
X237994500Y-181501100D01*
X237994500Y-181501100D02*
X181994500Y-181501100D01*
X181994500Y-181501100D02*
X181994500Y-176501100D01*
X181994500Y-176501100D02*
X163994500Y-176501100D01*
X163994500Y-176501100D02*
X163994500Y-150501100D01*
X159744500Y-182501100D02*
X260244500Y-182501100D01*
X260244500Y-182501100D02*
X260244500Y-144251100D01*
X260244500Y-144251100D02*
X198994500Y-144251100D01*
X159744500Y-144251100D02*
X159744500Y-182501100D01*
X198494500Y-144251100D02*
X159744500Y-144251100D01*
X198494500Y-144251100D02*
X198994500Y-144251100D01*
D12*
X234281880Y-214249420D02*
G75*
G02X234281880Y-216249420I0J-1000000D01*
G01*
X234281880Y-216249420D02*
X234281880Y-217899420D01*
X234281880Y-217899420D02*
X254721880Y-217899420D01*
X254721880Y-217899420D02*
X254721880Y-212599420D01*
X254721880Y-212599420D02*
X234281880Y-212599420D01*
X234281880Y-212599420D02*
X234281880Y-214249420D01*
X202181880Y-187089420D02*
X212401880Y-187089420D01*
X212401880Y-187089420D02*
X212401880Y-184429420D01*
X212401880Y-184429420D02*
X202181880Y-184429420D01*
X202181880Y-184429420D02*
X202181880Y-187089420D01*
X200911880Y-187089420D02*
X199581880Y-187089420D01*
X199581880Y-187089420D02*
X199581880Y-185759420D01*
D10*
X231453301Y-207059420D02*
G75*
G03X231453301Y-207059420I-141421J0D01*
G01*
X231411880Y-186259420D02*
G75*
G03X231411880Y-186259420I-100000J0D01*
G01*
X233732624Y-186259420D02*
G75*
G03X233732624Y-186259420I-2420744J0D01*
G01*
X233753191Y-207059420D02*
G75*
G03X233753191Y-207059420I-2441311J0D01*
G01*
X257953301Y-207059420D02*
G75*
G03X257953301Y-207059420I-141421J0D01*
G01*
X260287764Y-207059420D02*
G75*
G03X260287764Y-207059420I-2475884J0D01*
G01*
X257911880Y-186259420D02*
G75*
G03X257911880Y-186259420I-100000J0D01*
G01*
X260220199Y-186259420D02*
G75*
G03X260220199Y-186259420I-2408319J0D01*
G01*
X226611880Y-209959420D02*
X260811880Y-209959420D01*
X260811880Y-209959420D02*
X260811880Y-183459420D01*
X260811880Y-183459420D02*
X226611880Y-183459420D01*
X226611880Y-183459420D02*
X226611880Y-209959420D01*
D12*
X175086880Y-198534420D02*
X175086880Y-198284420D01*
X175086880Y-198284420D02*
X181386880Y-198284420D01*
X181386880Y-198284420D02*
X181386880Y-198534420D01*
X175086880Y-203034420D02*
X175086880Y-200434420D01*
X181386880Y-204934420D02*
X181386880Y-205184420D01*
X181386880Y-205184420D02*
X175086880Y-205184420D01*
X175086880Y-205184420D02*
X175086880Y-204934420D01*
X181386880Y-200434420D02*
X181386880Y-203034420D01*
X175086880Y-212504420D02*
X175086880Y-212254420D01*
X175086880Y-212254420D02*
X181386880Y-212254420D01*
X181386880Y-212254420D02*
X181386880Y-212504420D01*
X175086880Y-217004420D02*
X175086880Y-214404420D01*
X181386880Y-218904420D02*
X181386880Y-219154420D01*
X181386880Y-219154420D02*
X175086880Y-219154420D01*
X175086880Y-219154420D02*
X175086880Y-218904420D01*
X181386880Y-214404420D02*
X181386880Y-217004420D01*
X164291880Y-205519420D02*
X164291880Y-205269420D01*
X164291880Y-205269420D02*
X170591880Y-205269420D01*
X170591880Y-205269420D02*
X170591880Y-205519420D01*
X164291880Y-210019420D02*
X164291880Y-207419420D01*
X170591880Y-211919420D02*
X170591880Y-212169420D01*
X170591880Y-212169420D02*
X164291880Y-212169420D01*
X164291880Y-212169420D02*
X164291880Y-211919420D01*
X170591880Y-207419420D02*
X170591880Y-210019420D01*
X185881880Y-205519420D02*
X185881880Y-205269420D01*
X185881880Y-205269420D02*
X192181880Y-205269420D01*
X192181880Y-205269420D02*
X192181880Y-205519420D01*
X185881880Y-210019420D02*
X185881880Y-207419420D01*
X192181880Y-211919420D02*
X192181880Y-212169420D01*
X192181880Y-212169420D02*
X185881880Y-212169420D01*
X185881880Y-212169420D02*
X185881880Y-211919420D01*
X192181880Y-207419420D02*
X192181880Y-210019420D01*
D13*
G36*
X205753009Y-200926967D02*
X206256312Y-201088897D01*
X206671337Y-201372778D01*
X207049891Y-201806289D01*
X207274192Y-202288163D01*
X207345530Y-202826612D01*
X207265192Y-203429851D01*
X207082119Y-203990946D01*
X206945185Y-204316386D01*
X206814357Y-204599363D01*
X206714363Y-204786908D01*
X206701119Y-204807056D01*
X206639432Y-204963679D01*
X206596253Y-205198685D01*
X206574469Y-205459502D01*
X206576966Y-205693560D01*
X206606632Y-205848288D01*
X206642122Y-205881420D01*
X206736478Y-205936693D01*
X206900837Y-206077354D01*
X207001955Y-206175065D01*
X207258169Y-206376879D01*
X207531455Y-206463292D01*
X207854645Y-206435306D01*
X208260571Y-206293923D01*
X208426763Y-206218546D01*
X208755608Y-206076708D01*
X208973195Y-206033592D01*
X209113601Y-206101023D01*
X209210904Y-206290824D01*
X209274067Y-206512525D01*
X209444504Y-206893890D01*
X209641133Y-207098478D01*
X209914533Y-207312445D01*
X209713998Y-207583682D01*
X209589402Y-207765267D01*
X209559834Y-207893134D01*
X209618809Y-208049096D01*
X209669528Y-208144712D01*
X209859847Y-208401548D01*
X210126249Y-208576347D01*
X210502259Y-208686096D01*
X210826923Y-208731165D01*
X211256798Y-208787579D01*
X211538278Y-208859019D01*
X211692152Y-208953430D01*
X211739211Y-209078754D01*
X211739213Y-209079724D01*
X211674249Y-209297718D01*
X211494508Y-209415939D01*
X211222714Y-209433442D01*
X210881591Y-209349283D01*
X210493863Y-209162515D01*
X210445849Y-209133512D01*
X210182076Y-208986160D01*
X209964653Y-208892477D01*
X209841095Y-208872730D01*
X209776070Y-208964703D01*
X209737038Y-209191202D01*
X209721106Y-209569025D01*
X209721105Y-209569077D01*
X209734621Y-210027975D01*
X209790093Y-210334003D01*
X209891070Y-210499211D01*
X210006525Y-210538086D01*
X210107059Y-210472372D01*
X210121829Y-210300896D01*
X210053736Y-210062160D01*
X209956334Y-209872371D01*
X209855806Y-209682897D01*
X209819024Y-209561334D01*
X209823744Y-209546666D01*
X209883214Y-209583235D01*
X209976068Y-209728920D01*
X210078042Y-209933619D01*
X210164872Y-210147229D01*
X210212296Y-210319649D01*
X210215213Y-210355013D01*
X210160443Y-210548003D01*
X210030122Y-210659112D01*
X209875234Y-210651300D01*
X209840043Y-210627591D01*
X209745343Y-210474377D01*
X209655951Y-210204223D01*
X209584392Y-209869367D01*
X209543194Y-209522050D01*
X209537880Y-209367424D01*
X209503283Y-209090657D01*
X209414578Y-208872931D01*
X209294389Y-208749234D01*
X209165339Y-208754557D01*
X209149251Y-208766417D01*
X209050752Y-208927864D01*
X209029880Y-209047948D01*
X208980536Y-209261237D01*
X208860988Y-209462936D01*
X208713956Y-209590350D01*
X208649075Y-209606753D01*
X208503609Y-209553327D01*
X208486727Y-209406565D01*
X208508688Y-209363120D01*
X208606546Y-209363120D01*
X208659032Y-209433518D01*
X208766105Y-209403893D01*
X208826727Y-209338977D01*
X208887002Y-209188478D01*
X208939375Y-208987224D01*
X209037033Y-208736897D01*
X209183999Y-208619268D01*
X209352745Y-208648141D01*
X209446203Y-208733091D01*
X209565278Y-208855707D01*
X209655335Y-208851031D01*
X209733454Y-208782226D01*
X209816433Y-208719274D01*
X209914899Y-208714217D01*
X210067859Y-208778043D01*
X210314319Y-208921740D01*
X210386707Y-208966240D01*
X210775391Y-209175410D01*
X211120819Y-209303501D01*
X211396545Y-209344846D01*
X211576126Y-209293777D01*
X211621914Y-209231003D01*
X211641095Y-209096905D01*
X211563516Y-208999763D01*
X211366779Y-208927490D01*
X211028487Y-208867996D01*
X210923949Y-208854302D01*
X210419612Y-208762564D01*
X210039374Y-208620404D01*
X209740922Y-208408734D01*
X209595764Y-208255127D01*
X209436425Y-208090960D01*
X209309614Y-208002851D01*
X209288101Y-207998086D01*
X209171034Y-208071252D01*
X209042770Y-208254272D01*
X208931986Y-208492430D01*
X208867363Y-208731008D01*
X208860863Y-208813219D01*
X208822213Y-209034424D01*
X208733546Y-209183420D01*
X208627112Y-209305641D01*
X208606546Y-209363120D01*
X208508688Y-209363120D01*
X208589120Y-209204008D01*
X208690998Y-209017478D01*
X208718368Y-208878722D01*
X208716527Y-208872244D01*
X208731033Y-208741756D01*
X208808822Y-208529391D01*
X208855599Y-208431117D01*
X208994018Y-208109666D01*
X209018197Y-207910382D01*
X208928332Y-207830621D01*
X208900222Y-207828753D01*
X208757950Y-207763595D01*
X208719870Y-207585656D01*
X208770049Y-207378422D01*
X208823123Y-207113333D01*
X208750088Y-206953299D01*
X208562418Y-206904662D01*
X208271591Y-206973767D01*
X208140320Y-207030360D01*
X207921283Y-207186467D01*
X207768447Y-207385731D01*
X207761981Y-207400346D01*
X207717235Y-207556181D01*
X207727500Y-207723847D01*
X207801193Y-207956557D01*
X207881170Y-208153854D01*
X208052674Y-208707036D01*
X208077853Y-209196007D01*
X207958133Y-209612206D01*
X207694944Y-209947074D01*
X207565658Y-210045860D01*
X206995311Y-210452239D01*
X206567764Y-210809602D01*
X206288748Y-211112859D01*
X206198259Y-211259779D01*
X206050167Y-211571861D01*
X207116690Y-212649750D01*
X207528710Y-213072629D01*
X207828537Y-213396787D01*
X208028960Y-213637748D01*
X208142773Y-213811037D01*
X208182767Y-213932179D01*
X208183213Y-213944137D01*
X208128379Y-214140150D01*
X208035046Y-214227948D01*
X207909513Y-214248498D01*
X207646858Y-214267725D01*
X207279293Y-214285008D01*
X206839027Y-214299726D01*
X206358272Y-214311257D01*
X205869238Y-214318981D01*
X205404135Y-214322277D01*
X204995175Y-214320524D01*
X204674567Y-214313101D01*
X204474523Y-214299386D01*
X204457880Y-214296913D01*
X204072060Y-214214576D01*
X203787987Y-214118491D01*
X203632434Y-214018984D01*
X203611213Y-213970415D01*
X203577425Y-213927410D01*
X203695880Y-213927410D01*
X203764496Y-214000181D01*
X203822880Y-214009420D01*
X204119213Y-214009420D01*
X204191819Y-214072526D01*
X204335876Y-214094086D01*
X204479927Y-214067210D01*
X204488532Y-214042694D01*
X204711880Y-214042694D01*
X204783914Y-214153894D01*
X204923546Y-214178753D01*
X205082661Y-214149770D01*
X205107129Y-214123843D01*
X205221588Y-214123843D01*
X205276324Y-214206975D01*
X205413557Y-214263777D01*
X205583601Y-214253251D01*
X205707677Y-214187707D01*
X205727880Y-214136420D01*
X205897213Y-214136420D01*
X205972941Y-214237246D01*
X206151213Y-214263420D01*
X206352865Y-214225555D01*
X206405213Y-214136420D01*
X206399080Y-214128253D01*
X206598191Y-214128253D01*
X206615312Y-214176217D01*
X206735016Y-214246116D01*
X206896787Y-214234720D01*
X207019170Y-214157549D01*
X207040213Y-214095246D01*
X207014282Y-214051753D01*
X207251880Y-214051753D01*
X207322466Y-214155181D01*
X207421213Y-214178753D01*
X207559117Y-214125813D01*
X207584882Y-214065099D01*
X207759880Y-214065099D01*
X207791986Y-214140517D01*
X207913952Y-214102127D01*
X207929213Y-214094086D01*
X208062859Y-213996360D01*
X208098546Y-213935885D01*
X208047077Y-213817034D01*
X208042836Y-213812599D01*
X207943417Y-213807438D01*
X207829722Y-213899966D01*
X207762434Y-214036029D01*
X207759880Y-214065099D01*
X207584882Y-214065099D01*
X207590546Y-214051753D01*
X207519960Y-213948325D01*
X207421213Y-213924753D01*
X207283309Y-213977692D01*
X207251880Y-214051753D01*
X207014282Y-214051753D01*
X206972092Y-213980993D01*
X206820812Y-213933543D01*
X206665992Y-213973052D01*
X206640663Y-213994102D01*
X206598191Y-214128253D01*
X206399080Y-214128253D01*
X206329485Y-214035593D01*
X206151213Y-214009420D01*
X205949561Y-214047284D01*
X205897213Y-214136420D01*
X205727880Y-214136420D01*
X205652151Y-214035593D01*
X205473880Y-214009420D01*
X205273313Y-214039636D01*
X205221588Y-214123843D01*
X205107129Y-214123843D01*
X205135213Y-214094086D01*
X205075865Y-214011829D01*
X205057471Y-214009420D01*
X204915581Y-213981492D01*
X204845804Y-213958028D01*
X204732607Y-213965888D01*
X204711880Y-214042694D01*
X204488532Y-214042694D01*
X204500213Y-214009420D01*
X204380793Y-213938294D01*
X204283549Y-213924753D01*
X204148705Y-213961172D01*
X204119213Y-214009420D01*
X203822880Y-214009420D01*
X203935842Y-213991305D01*
X203949880Y-213976145D01*
X203883674Y-213921551D01*
X203822880Y-213894135D01*
X203713858Y-213892375D01*
X203695880Y-213927410D01*
X203577425Y-213927410D01*
X203537346Y-213876400D01*
X203357241Y-213804053D01*
X203336046Y-213799549D01*
X203038838Y-213718783D01*
X202808355Y-213614715D01*
X202739022Y-213553585D01*
X203131983Y-213553585D01*
X203145546Y-213586086D01*
X203257705Y-213667592D01*
X203282540Y-213670753D01*
X203328443Y-213618587D01*
X203326658Y-213614308D01*
X203554768Y-213614308D01*
X203566391Y-213664643D01*
X203611213Y-213670753D01*
X203680903Y-213639775D01*
X203667657Y-213614308D01*
X203567178Y-213604175D01*
X203554768Y-213614308D01*
X203326658Y-213614308D01*
X203314880Y-213586086D01*
X203202720Y-213504580D01*
X203177886Y-213501420D01*
X203131983Y-213553585D01*
X202739022Y-213553585D01*
X202688027Y-213508624D01*
X202679880Y-213478054D01*
X202741709Y-213432892D01*
X202802568Y-213445716D01*
X202889849Y-213441183D01*
X202884558Y-213386738D01*
X202935427Y-213299195D01*
X203110458Y-213157211D01*
X203380709Y-212978690D01*
X203717240Y-212781533D01*
X204091108Y-212583643D01*
X204473374Y-212402922D01*
X204479046Y-212400424D01*
X204706235Y-212288578D01*
X204852049Y-212193944D01*
X204881213Y-212155913D01*
X204824732Y-212054521D01*
X204711880Y-211935086D01*
X204584510Y-211780559D01*
X204542546Y-211667330D01*
X204580061Y-211552337D01*
X204682551Y-211320421D01*
X204834933Y-211003870D01*
X205022123Y-210634974D01*
X205047885Y-210585514D01*
X205251655Y-210179621D01*
X205433232Y-209788916D01*
X205572873Y-209457769D01*
X205650837Y-209230551D01*
X205650965Y-209230042D01*
X205723358Y-208990951D01*
X205794975Y-208829186D01*
X205822330Y-208796373D01*
X205830487Y-208703803D01*
X205771984Y-208525255D01*
X205672902Y-208316427D01*
X205559325Y-208133017D01*
X205466066Y-208035590D01*
X205331957Y-208023511D01*
X205112333Y-208064656D01*
X205034413Y-208088077D01*
X204842409Y-208138967D01*
X204648035Y-208153248D01*
X204400587Y-208129003D01*
X204049358Y-208064314D01*
X203969045Y-208047778D01*
X203617884Y-207977195D01*
X203394877Y-207943046D01*
X203262866Y-207945095D01*
X203184688Y-207983110D01*
X203133555Y-208042500D01*
X202992334Y-208155471D01*
X202868635Y-208117922D01*
X202785804Y-207948566D01*
X202764546Y-207746743D01*
X202731127Y-207495531D01*
X202651001Y-207397551D01*
X202554363Y-207455173D01*
X202471407Y-207670766D01*
X202460905Y-207722920D01*
X202359378Y-208118658D01*
X202219458Y-208360441D01*
X202029746Y-208461477D01*
X201833916Y-208449719D01*
X201569060Y-208347958D01*
X201458109Y-208192645D01*
X201489899Y-207967994D01*
X201491067Y-207964904D01*
X201550154Y-207766820D01*
X201784248Y-207766820D01*
X201800242Y-207864953D01*
X201909613Y-207984405D01*
X202045371Y-207965886D01*
X202120488Y-207864161D01*
X202158127Y-207683463D01*
X202171880Y-207472795D01*
X202160572Y-207303654D01*
X202110389Y-207275762D01*
X202040257Y-207324589D01*
X201854310Y-207542077D01*
X201784248Y-207766820D01*
X201550154Y-207766820D01*
X201566260Y-207712830D01*
X201539595Y-207555740D01*
X201394007Y-207442047D01*
X201304046Y-207399532D01*
X201077557Y-207241809D01*
X201001226Y-207083358D01*
X200990824Y-207064064D01*
X201073034Y-207064064D01*
X201200252Y-207205707D01*
X201202745Y-207207537D01*
X201478437Y-207313232D01*
X201774724Y-207260014D01*
X201899041Y-207188952D01*
X202064313Y-207039692D01*
X202068371Y-206935087D01*
X201910188Y-206873959D01*
X201607473Y-206855086D01*
X201285642Y-206880918D01*
X201104496Y-206953189D01*
X201073034Y-207064064D01*
X200990824Y-207064064D01*
X200900730Y-206896972D01*
X200768393Y-206810287D01*
X200601773Y-206682913D01*
X200563213Y-206560848D01*
X200548720Y-206515276D01*
X200662358Y-206515276D01*
X200691860Y-206624425D01*
X200796046Y-206669723D01*
X201076606Y-206713936D01*
X201283793Y-206663044D01*
X201333050Y-206631816D01*
X201590349Y-206631816D01*
X201656711Y-206707365D01*
X201845824Y-206667797D01*
X201964149Y-206616260D01*
X202204237Y-206510396D01*
X202343799Y-206490585D01*
X202432404Y-206564483D01*
X202501288Y-206699245D01*
X202560416Y-206879851D01*
X202519311Y-206975593D01*
X202504031Y-206986112D01*
X202447147Y-207095892D01*
X202462363Y-207141953D01*
X202578192Y-207220771D01*
X202729605Y-207228516D01*
X202836683Y-207168692D01*
X202849213Y-207124989D01*
X202806278Y-206952593D01*
X202700066Y-206708078D01*
X202564469Y-206458005D01*
X202433376Y-206268936D01*
X202392077Y-206227166D01*
X202190843Y-206157029D01*
X201948510Y-206194073D01*
X201735659Y-206318196D01*
X201644703Y-206440029D01*
X201590349Y-206631816D01*
X201333050Y-206631816D01*
X201372531Y-206606786D01*
X201473267Y-206477291D01*
X201407416Y-206363894D01*
X201177251Y-206270066D01*
X201146884Y-206262287D01*
X200903307Y-206268855D01*
X200787051Y-206347010D01*
X200662358Y-206515276D01*
X200548720Y-206515276D01*
X200518095Y-206418984D01*
X200381102Y-206413709D01*
X200149772Y-206545543D01*
X199970546Y-206685753D01*
X199650513Y-206903364D01*
X199369355Y-206981395D01*
X199340658Y-206982086D01*
X199095702Y-206937465D01*
X198901576Y-206786198D01*
X198730109Y-206502182D01*
X198666356Y-206357222D01*
X198568691Y-206150757D01*
X198469390Y-206066099D01*
X198311792Y-206064909D01*
X198248491Y-206074476D01*
X197968297Y-206084769D01*
X197816922Y-205995081D01*
X197803695Y-205924583D01*
X199553827Y-205924583D01*
X199631880Y-205966086D01*
X199711420Y-205899115D01*
X199717843Y-205860253D01*
X199745350Y-205814266D01*
X199797906Y-205878968D01*
X199893056Y-205954963D01*
X199939131Y-205941056D01*
X199953836Y-205843787D01*
X199862352Y-205758016D01*
X199724257Y-205729831D01*
X199679904Y-205740520D01*
X199570770Y-205826770D01*
X199553827Y-205924583D01*
X197803695Y-205924583D01*
X197779337Y-205794767D01*
X197783600Y-205745233D01*
X197812938Y-205594233D01*
X197887955Y-205528261D01*
X198058510Y-205520249D01*
X198182709Y-205528568D01*
X198397491Y-205534342D01*
X198554237Y-205493247D01*
X198709315Y-205377398D01*
X198910077Y-205168734D01*
X199170950Y-204917852D01*
X199396697Y-204797945D01*
X199622489Y-204809989D01*
X199883499Y-204954963D01*
X200182213Y-205204086D01*
X200460358Y-205442973D01*
X200674037Y-205573972D01*
X200876960Y-205610472D01*
X201122837Y-205565864D01*
X201346778Y-205494398D01*
X201698954Y-205417848D01*
X201940509Y-205463993D01*
X202067542Y-205631323D01*
X202087213Y-205781170D01*
X202127878Y-205967264D01*
X202280176Y-206084196D01*
X202345818Y-206111241D01*
X202575112Y-206265676D01*
X202737057Y-206546508D01*
X202840733Y-206764065D01*
X202951405Y-206857567D01*
X203092285Y-206869624D01*
X203258630Y-206888544D01*
X203328945Y-207008069D01*
X203342094Y-207092314D01*
X203423890Y-207295395D01*
X203624290Y-207422691D01*
X203959618Y-207481841D01*
X204188225Y-207488227D01*
X204490002Y-207454128D01*
X204814217Y-207367939D01*
X205104176Y-207250001D01*
X205303184Y-207120655D01*
X205342294Y-207074172D01*
X205402679Y-206920338D01*
X205438719Y-206770914D01*
X205433420Y-206616695D01*
X205330264Y-206483356D01*
X205221253Y-206406299D01*
X205600880Y-206406299D01*
X205812546Y-206474086D01*
X206019657Y-206533352D01*
X206140509Y-206520966D01*
X206250347Y-206416176D01*
X206314401Y-206335668D01*
X206437980Y-206111467D01*
X206486565Y-205891168D01*
X206479146Y-205760547D01*
X206449906Y-205762894D01*
X206379684Y-205908795D01*
X206355902Y-205963354D01*
X206217179Y-206220518D01*
X206056836Y-206351261D01*
X205824199Y-206395986D01*
X205812546Y-206396563D01*
X205600880Y-206406299D01*
X205221253Y-206406299D01*
X205156450Y-206360492D01*
X204931001Y-206203607D01*
X204755920Y-206056678D01*
X204721436Y-206019935D01*
X204552631Y-205904833D01*
X204441946Y-205881420D01*
X204220418Y-205839337D01*
X204035464Y-205737198D01*
X203950464Y-205611164D01*
X203949880Y-205600669D01*
X203878725Y-205500973D01*
X203706277Y-205403374D01*
X203694399Y-205398777D01*
X203680204Y-205388699D01*
X204635003Y-205388699D01*
X204695661Y-205447480D01*
X204711880Y-205458086D01*
X204839281Y-205532015D01*
X204878551Y-205510029D01*
X204881213Y-205458086D01*
X204842425Y-205418547D01*
X204992411Y-205418547D01*
X205011829Y-205463936D01*
X205115486Y-205525831D01*
X205264778Y-205540003D01*
X205374959Y-205504471D01*
X205389213Y-205472750D01*
X205461539Y-205434564D01*
X205636252Y-205439031D01*
X205643213Y-205440026D01*
X205831713Y-205440194D01*
X205897213Y-205382345D01*
X205818409Y-205323234D01*
X205600357Y-205299032D01*
X205495046Y-205299890D01*
X205190445Y-205318344D01*
X205030891Y-205355183D01*
X204992411Y-205418547D01*
X204842425Y-205418547D01*
X204811402Y-205386925D01*
X204733046Y-205374716D01*
X204635003Y-205388699D01*
X203680204Y-205388699D01*
X203450163Y-205225382D01*
X203306413Y-204978048D01*
X203191282Y-204707801D01*
X203046037Y-204381690D01*
X202969083Y-204214190D01*
X202833514Y-203852646D01*
X202783510Y-203513111D01*
X203039130Y-203513111D01*
X203067903Y-203606783D01*
X203132830Y-203670890D01*
X203169867Y-203607124D01*
X203170501Y-203474948D01*
X203154366Y-203449017D01*
X203072939Y-203429289D01*
X203039130Y-203513111D01*
X202783510Y-203513111D01*
X202779573Y-203486381D01*
X202777701Y-203240524D01*
X202791145Y-202706420D01*
X203077388Y-202978927D01*
X203286922Y-203219316D01*
X203456511Y-203482665D01*
X203488558Y-203550427D01*
X203613217Y-203778147D01*
X203726545Y-203837030D01*
X203828870Y-203727174D01*
X203858389Y-203658920D01*
X203907922Y-203552859D01*
X203943696Y-203576036D01*
X203984322Y-203746131D01*
X203992084Y-203785920D01*
X204044259Y-203989207D01*
X204097304Y-204097794D01*
X204108763Y-204103420D01*
X204165824Y-204030847D01*
X204251944Y-203844894D01*
X204310489Y-203691346D01*
X204325753Y-203660943D01*
X204669452Y-203660943D01*
X204682302Y-203725131D01*
X204748515Y-203840447D01*
X204788633Y-203791172D01*
X204796546Y-203675089D01*
X204765287Y-203557044D01*
X204715577Y-203550801D01*
X204669452Y-203660943D01*
X204325753Y-203660943D01*
X204483627Y-203346510D01*
X204732684Y-203029100D01*
X205024851Y-202765329D01*
X205327320Y-202581406D01*
X205607284Y-202503543D01*
X205770024Y-202525298D01*
X205879822Y-202648860D01*
X205897004Y-202873951D01*
X205826792Y-203163891D01*
X205674407Y-203482000D01*
X205622046Y-203564684D01*
X205330165Y-203909541D01*
X204996972Y-204155835D01*
X204652322Y-204293993D01*
X204326074Y-204314439D01*
X204048084Y-204207599D01*
X203937677Y-204104855D01*
X203823290Y-203994362D01*
X203737912Y-204015654D01*
X203694477Y-204062777D01*
X203538194Y-204154665D01*
X203341849Y-204188086D01*
X203178579Y-204211862D01*
X203145259Y-204272283D01*
X203145546Y-204272753D01*
X203260002Y-204333752D01*
X203446876Y-204357420D01*
X203623076Y-204380363D01*
X203695880Y-204435161D01*
X203719534Y-204576002D01*
X203745125Y-204667995D01*
X203772934Y-204773904D01*
X203730245Y-204743892D01*
X203672291Y-204674919D01*
X203519523Y-204555550D01*
X203417289Y-204526753D01*
X203332957Y-204556744D01*
X203330822Y-204675666D01*
X203359566Y-204788959D01*
X203443683Y-205035758D01*
X203548498Y-205186846D01*
X203711228Y-205259655D01*
X203969088Y-205271618D01*
X204329245Y-205243183D01*
X204747639Y-205208067D01*
X205189570Y-205181259D01*
X205556104Y-205168640D01*
X205853405Y-205169289D01*
X206026056Y-205191493D01*
X206118657Y-205251520D01*
X206175807Y-205365637D01*
X206187853Y-205399054D01*
X206231696Y-205672419D01*
X206141062Y-205850021D01*
X205922533Y-205929776D01*
X205582693Y-205909598D01*
X205128125Y-205787403D01*
X205049182Y-205759688D01*
X204673908Y-205637975D01*
X204368255Y-205565021D01*
X204157050Y-205544280D01*
X204065120Y-205579205D01*
X204074853Y-205624140D01*
X204184552Y-205691263D01*
X204391059Y-205753002D01*
X204439683Y-205762685D01*
X204707561Y-205836851D01*
X205021723Y-205958383D01*
X205153565Y-206019964D01*
X205578098Y-206186676D01*
X205911202Y-206219332D01*
X206146782Y-206120599D01*
X206278740Y-205893148D01*
X206300981Y-205539647D01*
X206299072Y-205518383D01*
X206253274Y-205258724D01*
X206182041Y-205068868D01*
X206141607Y-205019282D01*
X206073485Y-204938118D01*
X206125290Y-204895837D01*
X206186391Y-204795098D01*
X206174433Y-204711783D01*
X206152927Y-204623995D01*
X206210387Y-204649033D01*
X206299567Y-204724382D01*
X206433419Y-204826206D01*
X206518480Y-204803039D01*
X206605651Y-204682048D01*
X206971554Y-203998746D01*
X207170310Y-203326699D01*
X207209546Y-202875753D01*
X207198320Y-202525625D01*
X207152060Y-202269509D01*
X207051895Y-202032859D01*
X206952342Y-201859753D01*
X206616244Y-201450536D01*
X206193262Y-201161547D01*
X205716687Y-201010527D01*
X205337338Y-200999113D01*
X204790495Y-201128474D01*
X204253299Y-201396395D01*
X203776225Y-201777100D01*
X203738213Y-201815754D01*
X203550954Y-202015580D01*
X203468200Y-202134753D01*
X203475861Y-202213489D01*
X203559847Y-202292000D01*
X203568880Y-202299039D01*
X203670655Y-202385648D01*
X203645785Y-202408518D01*
X203475061Y-202382376D01*
X203463046Y-202380173D01*
X203266424Y-202371431D01*
X203189311Y-202418263D01*
X203250687Y-202492531D01*
X203357213Y-202537086D01*
X203507663Y-202614274D01*
X203508843Y-202680111D01*
X203379978Y-202706431D01*
X203251380Y-202692141D01*
X203054760Y-202649307D01*
X202947999Y-202615837D01*
X202945372Y-202614029D01*
X202974788Y-202538102D01*
X203098158Y-202375992D01*
X203286931Y-202158416D01*
X203512555Y-201916093D01*
X203746477Y-201679738D01*
X203960144Y-201480070D01*
X204117729Y-201352781D01*
X204662578Y-201058743D01*
X205214717Y-200916860D01*
X205753009Y-200926967D01*
X205753009Y-200926967D01*
G37*
X205753009Y-200926967D02*
X206256312Y-201088897D01*
X206671337Y-201372778D01*
X207049891Y-201806289D01*
X207274192Y-202288163D01*
X207345530Y-202826612D01*
X207265192Y-203429851D01*
X207082119Y-203990946D01*
X206945185Y-204316386D01*
X206814357Y-204599363D01*
X206714363Y-204786908D01*
X206701119Y-204807056D01*
X206639432Y-204963679D01*
X206596253Y-205198685D01*
X206574469Y-205459502D01*
X206576966Y-205693560D01*
X206606632Y-205848288D01*
X206642122Y-205881420D01*
X206736478Y-205936693D01*
X206900837Y-206077354D01*
X207001955Y-206175065D01*
X207258169Y-206376879D01*
X207531455Y-206463292D01*
X207854645Y-206435306D01*
X208260571Y-206293923D01*
X208426763Y-206218546D01*
X208755608Y-206076708D01*
X208973195Y-206033592D01*
X209113601Y-206101023D01*
X209210904Y-206290824D01*
X209274067Y-206512525D01*
X209444504Y-206893890D01*
X209641133Y-207098478D01*
X209914533Y-207312445D01*
X209713998Y-207583682D01*
X209589402Y-207765267D01*
X209559834Y-207893134D01*
X209618809Y-208049096D01*
X209669528Y-208144712D01*
X209859847Y-208401548D01*
X210126249Y-208576347D01*
X210502259Y-208686096D01*
X210826923Y-208731165D01*
X211256798Y-208787579D01*
X211538278Y-208859019D01*
X211692152Y-208953430D01*
X211739211Y-209078754D01*
X211739213Y-209079724D01*
X211674249Y-209297718D01*
X211494508Y-209415939D01*
X211222714Y-209433442D01*
X210881591Y-209349283D01*
X210493863Y-209162515D01*
X210445849Y-209133512D01*
X210182076Y-208986160D01*
X209964653Y-208892477D01*
X209841095Y-208872730D01*
X209776070Y-208964703D01*
X209737038Y-209191202D01*
X209721106Y-209569025D01*
X209721105Y-209569077D01*
X209734621Y-210027975D01*
X209790093Y-210334003D01*
X209891070Y-210499211D01*
X210006525Y-210538086D01*
X210107059Y-210472372D01*
X210121829Y-210300896D01*
X210053736Y-210062160D01*
X209956334Y-209872371D01*
X209855806Y-209682897D01*
X209819024Y-209561334D01*
X209823744Y-209546666D01*
X209883214Y-209583235D01*
X209976068Y-209728920D01*
X210078042Y-209933619D01*
X210164872Y-210147229D01*
X210212296Y-210319649D01*
X210215213Y-210355013D01*
X210160443Y-210548003D01*
X210030122Y-210659112D01*
X209875234Y-210651300D01*
X209840043Y-210627591D01*
X209745343Y-210474377D01*
X209655951Y-210204223D01*
X209584392Y-209869367D01*
X209543194Y-209522050D01*
X209537880Y-209367424D01*
X209503283Y-209090657D01*
X209414578Y-208872931D01*
X209294389Y-208749234D01*
X209165339Y-208754557D01*
X209149251Y-208766417D01*
X209050752Y-208927864D01*
X209029880Y-209047948D01*
X208980536Y-209261237D01*
X208860988Y-209462936D01*
X208713956Y-209590350D01*
X208649075Y-209606753D01*
X208503609Y-209553327D01*
X208486727Y-209406565D01*
X208508688Y-209363120D01*
X208606546Y-209363120D01*
X208659032Y-209433518D01*
X208766105Y-209403893D01*
X208826727Y-209338977D01*
X208887002Y-209188478D01*
X208939375Y-208987224D01*
X209037033Y-208736897D01*
X209183999Y-208619268D01*
X209352745Y-208648141D01*
X209446203Y-208733091D01*
X209565278Y-208855707D01*
X209655335Y-208851031D01*
X209733454Y-208782226D01*
X209816433Y-208719274D01*
X209914899Y-208714217D01*
X210067859Y-208778043D01*
X210314319Y-208921740D01*
X210386707Y-208966240D01*
X210775391Y-209175410D01*
X211120819Y-209303501D01*
X211396545Y-209344846D01*
X211576126Y-209293777D01*
X211621914Y-209231003D01*
X211641095Y-209096905D01*
X211563516Y-208999763D01*
X211366779Y-208927490D01*
X211028487Y-208867996D01*
X210923949Y-208854302D01*
X210419612Y-208762564D01*
X210039374Y-208620404D01*
X209740922Y-208408734D01*
X209595764Y-208255127D01*
X209436425Y-208090960D01*
X209309614Y-208002851D01*
X209288101Y-207998086D01*
X209171034Y-208071252D01*
X209042770Y-208254272D01*
X208931986Y-208492430D01*
X208867363Y-208731008D01*
X208860863Y-208813219D01*
X208822213Y-209034424D01*
X208733546Y-209183420D01*
X208627112Y-209305641D01*
X208606546Y-209363120D01*
X208508688Y-209363120D01*
X208589120Y-209204008D01*
X208690998Y-209017478D01*
X208718368Y-208878722D01*
X208716527Y-208872244D01*
X208731033Y-208741756D01*
X208808822Y-208529391D01*
X208855599Y-208431117D01*
X208994018Y-208109666D01*
X209018197Y-207910382D01*
X208928332Y-207830621D01*
X208900222Y-207828753D01*
X208757950Y-207763595D01*
X208719870Y-207585656D01*
X208770049Y-207378422D01*
X208823123Y-207113333D01*
X208750088Y-206953299D01*
X208562418Y-206904662D01*
X208271591Y-206973767D01*
X208140320Y-207030360D01*
X207921283Y-207186467D01*
X207768447Y-207385731D01*
X207761981Y-207400346D01*
X207717235Y-207556181D01*
X207727500Y-207723847D01*
X207801193Y-207956557D01*
X207881170Y-208153854D01*
X208052674Y-208707036D01*
X208077853Y-209196007D01*
X207958133Y-209612206D01*
X207694944Y-209947074D01*
X207565658Y-210045860D01*
X206995311Y-210452239D01*
X206567764Y-210809602D01*
X206288748Y-211112859D01*
X206198259Y-211259779D01*
X206050167Y-211571861D01*
X207116690Y-212649750D01*
X207528710Y-213072629D01*
X207828537Y-213396787D01*
X208028960Y-213637748D01*
X208142773Y-213811037D01*
X208182767Y-213932179D01*
X208183213Y-213944137D01*
X208128379Y-214140150D01*
X208035046Y-214227948D01*
X207909513Y-214248498D01*
X207646858Y-214267725D01*
X207279293Y-214285008D01*
X206839027Y-214299726D01*
X206358272Y-214311257D01*
X205869238Y-214318981D01*
X205404135Y-214322277D01*
X204995175Y-214320524D01*
X204674567Y-214313101D01*
X204474523Y-214299386D01*
X204457880Y-214296913D01*
X204072060Y-214214576D01*
X203787987Y-214118491D01*
X203632434Y-214018984D01*
X203611213Y-213970415D01*
X203577425Y-213927410D01*
X203695880Y-213927410D01*
X203764496Y-214000181D01*
X203822880Y-214009420D01*
X204119213Y-214009420D01*
X204191819Y-214072526D01*
X204335876Y-214094086D01*
X204479927Y-214067210D01*
X204488532Y-214042694D01*
X204711880Y-214042694D01*
X204783914Y-214153894D01*
X204923546Y-214178753D01*
X205082661Y-214149770D01*
X205107129Y-214123843D01*
X205221588Y-214123843D01*
X205276324Y-214206975D01*
X205413557Y-214263777D01*
X205583601Y-214253251D01*
X205707677Y-214187707D01*
X205727880Y-214136420D01*
X205897213Y-214136420D01*
X205972941Y-214237246D01*
X206151213Y-214263420D01*
X206352865Y-214225555D01*
X206405213Y-214136420D01*
X206399080Y-214128253D01*
X206598191Y-214128253D01*
X206615312Y-214176217D01*
X206735016Y-214246116D01*
X206896787Y-214234720D01*
X207019170Y-214157549D01*
X207040213Y-214095246D01*
X207014282Y-214051753D01*
X207251880Y-214051753D01*
X207322466Y-214155181D01*
X207421213Y-214178753D01*
X207559117Y-214125813D01*
X207584882Y-214065099D01*
X207759880Y-214065099D01*
X207791986Y-214140517D01*
X207913952Y-214102127D01*
X207929213Y-214094086D01*
X208062859Y-213996360D01*
X208098546Y-213935885D01*
X208047077Y-213817034D01*
X208042836Y-213812599D01*
X207943417Y-213807438D01*
X207829722Y-213899966D01*
X207762434Y-214036029D01*
X207759880Y-214065099D01*
X207584882Y-214065099D01*
X207590546Y-214051753D01*
X207519960Y-213948325D01*
X207421213Y-213924753D01*
X207283309Y-213977692D01*
X207251880Y-214051753D01*
X207014282Y-214051753D01*
X206972092Y-213980993D01*
X206820812Y-213933543D01*
X206665992Y-213973052D01*
X206640663Y-213994102D01*
X206598191Y-214128253D01*
X206399080Y-214128253D01*
X206329485Y-214035593D01*
X206151213Y-214009420D01*
X205949561Y-214047284D01*
X205897213Y-214136420D01*
X205727880Y-214136420D01*
X205652151Y-214035593D01*
X205473880Y-214009420D01*
X205273313Y-214039636D01*
X205221588Y-214123843D01*
X205107129Y-214123843D01*
X205135213Y-214094086D01*
X205075865Y-214011829D01*
X205057471Y-214009420D01*
X204915581Y-213981492D01*
X204845804Y-213958028D01*
X204732607Y-213965888D01*
X204711880Y-214042694D01*
X204488532Y-214042694D01*
X204500213Y-214009420D01*
X204380793Y-213938294D01*
X204283549Y-213924753D01*
X204148705Y-213961172D01*
X204119213Y-214009420D01*
X203822880Y-214009420D01*
X203935842Y-213991305D01*
X203949880Y-213976145D01*
X203883674Y-213921551D01*
X203822880Y-213894135D01*
X203713858Y-213892375D01*
X203695880Y-213927410D01*
X203577425Y-213927410D01*
X203537346Y-213876400D01*
X203357241Y-213804053D01*
X203336046Y-213799549D01*
X203038838Y-213718783D01*
X202808355Y-213614715D01*
X202739022Y-213553585D01*
X203131983Y-213553585D01*
X203145546Y-213586086D01*
X203257705Y-213667592D01*
X203282540Y-213670753D01*
X203328443Y-213618587D01*
X203326658Y-213614308D01*
X203554768Y-213614308D01*
X203566391Y-213664643D01*
X203611213Y-213670753D01*
X203680903Y-213639775D01*
X203667657Y-213614308D01*
X203567178Y-213604175D01*
X203554768Y-213614308D01*
X203326658Y-213614308D01*
X203314880Y-213586086D01*
X203202720Y-213504580D01*
X203177886Y-213501420D01*
X203131983Y-213553585D01*
X202739022Y-213553585D01*
X202688027Y-213508624D01*
X202679880Y-213478054D01*
X202741709Y-213432892D01*
X202802568Y-213445716D01*
X202889849Y-213441183D01*
X202884558Y-213386738D01*
X202935427Y-213299195D01*
X203110458Y-213157211D01*
X203380709Y-212978690D01*
X203717240Y-212781533D01*
X204091108Y-212583643D01*
X204473374Y-212402922D01*
X204479046Y-212400424D01*
X204706235Y-212288578D01*
X204852049Y-212193944D01*
X204881213Y-212155913D01*
X204824732Y-212054521D01*
X204711880Y-211935086D01*
X204584510Y-211780559D01*
X204542546Y-211667330D01*
X204580061Y-211552337D01*
X204682551Y-211320421D01*
X204834933Y-211003870D01*
X205022123Y-210634974D01*
X205047885Y-210585514D01*
X205251655Y-210179621D01*
X205433232Y-209788916D01*
X205572873Y-209457769D01*
X205650837Y-209230551D01*
X205650965Y-209230042D01*
X205723358Y-208990951D01*
X205794975Y-208829186D01*
X205822330Y-208796373D01*
X205830487Y-208703803D01*
X205771984Y-208525255D01*
X205672902Y-208316427D01*
X205559325Y-208133017D01*
X205466066Y-208035590D01*
X205331957Y-208023511D01*
X205112333Y-208064656D01*
X205034413Y-208088077D01*
X204842409Y-208138967D01*
X204648035Y-208153248D01*
X204400587Y-208129003D01*
X204049358Y-208064314D01*
X203969045Y-208047778D01*
X203617884Y-207977195D01*
X203394877Y-207943046D01*
X203262866Y-207945095D01*
X203184688Y-207983110D01*
X203133555Y-208042500D01*
X202992334Y-208155471D01*
X202868635Y-208117922D01*
X202785804Y-207948566D01*
X202764546Y-207746743D01*
X202731127Y-207495531D01*
X202651001Y-207397551D01*
X202554363Y-207455173D01*
X202471407Y-207670766D01*
X202460905Y-207722920D01*
X202359378Y-208118658D01*
X202219458Y-208360441D01*
X202029746Y-208461477D01*
X201833916Y-208449719D01*
X201569060Y-208347958D01*
X201458109Y-208192645D01*
X201489899Y-207967994D01*
X201491067Y-207964904D01*
X201550154Y-207766820D01*
X201784248Y-207766820D01*
X201800242Y-207864953D01*
X201909613Y-207984405D01*
X202045371Y-207965886D01*
X202120488Y-207864161D01*
X202158127Y-207683463D01*
X202171880Y-207472795D01*
X202160572Y-207303654D01*
X202110389Y-207275762D01*
X202040257Y-207324589D01*
X201854310Y-207542077D01*
X201784248Y-207766820D01*
X201550154Y-207766820D01*
X201566260Y-207712830D01*
X201539595Y-207555740D01*
X201394007Y-207442047D01*
X201304046Y-207399532D01*
X201077557Y-207241809D01*
X201001226Y-207083358D01*
X200990824Y-207064064D01*
X201073034Y-207064064D01*
X201200252Y-207205707D01*
X201202745Y-207207537D01*
X201478437Y-207313232D01*
X201774724Y-207260014D01*
X201899041Y-207188952D01*
X202064313Y-207039692D01*
X202068371Y-206935087D01*
X201910188Y-206873959D01*
X201607473Y-206855086D01*
X201285642Y-206880918D01*
X201104496Y-206953189D01*
X201073034Y-207064064D01*
X200990824Y-207064064D01*
X200900730Y-206896972D01*
X200768393Y-206810287D01*
X200601773Y-206682913D01*
X200563213Y-206560848D01*
X200548720Y-206515276D01*
X200662358Y-206515276D01*
X200691860Y-206624425D01*
X200796046Y-206669723D01*
X201076606Y-206713936D01*
X201283793Y-206663044D01*
X201333050Y-206631816D01*
X201590349Y-206631816D01*
X201656711Y-206707365D01*
X201845824Y-206667797D01*
X201964149Y-206616260D01*
X202204237Y-206510396D01*
X202343799Y-206490585D01*
X202432404Y-206564483D01*
X202501288Y-206699245D01*
X202560416Y-206879851D01*
X202519311Y-206975593D01*
X202504031Y-206986112D01*
X202447147Y-207095892D01*
X202462363Y-207141953D01*
X202578192Y-207220771D01*
X202729605Y-207228516D01*
X202836683Y-207168692D01*
X202849213Y-207124989D01*
X202806278Y-206952593D01*
X202700066Y-206708078D01*
X202564469Y-206458005D01*
X202433376Y-206268936D01*
X202392077Y-206227166D01*
X202190843Y-206157029D01*
X201948510Y-206194073D01*
X201735659Y-206318196D01*
X201644703Y-206440029D01*
X201590349Y-206631816D01*
X201333050Y-206631816D01*
X201372531Y-206606786D01*
X201473267Y-206477291D01*
X201407416Y-206363894D01*
X201177251Y-206270066D01*
X201146884Y-206262287D01*
X200903307Y-206268855D01*
X200787051Y-206347010D01*
X200662358Y-206515276D01*
X200548720Y-206515276D01*
X200518095Y-206418984D01*
X200381102Y-206413709D01*
X200149772Y-206545543D01*
X199970546Y-206685753D01*
X199650513Y-206903364D01*
X199369355Y-206981395D01*
X199340658Y-206982086D01*
X199095702Y-206937465D01*
X198901576Y-206786198D01*
X198730109Y-206502182D01*
X198666356Y-206357222D01*
X198568691Y-206150757D01*
X198469390Y-206066099D01*
X198311792Y-206064909D01*
X198248491Y-206074476D01*
X197968297Y-206084769D01*
X197816922Y-205995081D01*
X197803695Y-205924583D01*
X199553827Y-205924583D01*
X199631880Y-205966086D01*
X199711420Y-205899115D01*
X199717843Y-205860253D01*
X199745350Y-205814266D01*
X199797906Y-205878968D01*
X199893056Y-205954963D01*
X199939131Y-205941056D01*
X199953836Y-205843787D01*
X199862352Y-205758016D01*
X199724257Y-205729831D01*
X199679904Y-205740520D01*
X199570770Y-205826770D01*
X199553827Y-205924583D01*
X197803695Y-205924583D01*
X197779337Y-205794767D01*
X197783600Y-205745233D01*
X197812938Y-205594233D01*
X197887955Y-205528261D01*
X198058510Y-205520249D01*
X198182709Y-205528568D01*
X198397491Y-205534342D01*
X198554237Y-205493247D01*
X198709315Y-205377398D01*
X198910077Y-205168734D01*
X199170950Y-204917852D01*
X199396697Y-204797945D01*
X199622489Y-204809989D01*
X199883499Y-204954963D01*
X200182213Y-205204086D01*
X200460358Y-205442973D01*
X200674037Y-205573972D01*
X200876960Y-205610472D01*
X201122837Y-205565864D01*
X201346778Y-205494398D01*
X201698954Y-205417848D01*
X201940509Y-205463993D01*
X202067542Y-205631323D01*
X202087213Y-205781170D01*
X202127878Y-205967264D01*
X202280176Y-206084196D01*
X202345818Y-206111241D01*
X202575112Y-206265676D01*
X202737057Y-206546508D01*
X202840733Y-206764065D01*
X202951405Y-206857567D01*
X203092285Y-206869624D01*
X203258630Y-206888544D01*
X203328945Y-207008069D01*
X203342094Y-207092314D01*
X203423890Y-207295395D01*
X203624290Y-207422691D01*
X203959618Y-207481841D01*
X204188225Y-207488227D01*
X204490002Y-207454128D01*
X204814217Y-207367939D01*
X205104176Y-207250001D01*
X205303184Y-207120655D01*
X205342294Y-207074172D01*
X205402679Y-206920338D01*
X205438719Y-206770914D01*
X205433420Y-206616695D01*
X205330264Y-206483356D01*
X205221253Y-206406299D01*
X205600880Y-206406299D01*
X205812546Y-206474086D01*
X206019657Y-206533352D01*
X206140509Y-206520966D01*
X206250347Y-206416176D01*
X206314401Y-206335668D01*
X206437980Y-206111467D01*
X206486565Y-205891168D01*
X206479146Y-205760547D01*
X206449906Y-205762894D01*
X206379684Y-205908795D01*
X206355902Y-205963354D01*
X206217179Y-206220518D01*
X206056836Y-206351261D01*
X205824199Y-206395986D01*
X205812546Y-206396563D01*
X205600880Y-206406299D01*
X205221253Y-206406299D01*
X205156450Y-206360492D01*
X204931001Y-206203607D01*
X204755920Y-206056678D01*
X204721436Y-206019935D01*
X204552631Y-205904833D01*
X204441946Y-205881420D01*
X204220418Y-205839337D01*
X204035464Y-205737198D01*
X203950464Y-205611164D01*
X203949880Y-205600669D01*
X203878725Y-205500973D01*
X203706277Y-205403374D01*
X203694399Y-205398777D01*
X203680204Y-205388699D01*
X204635003Y-205388699D01*
X204695661Y-205447480D01*
X204711880Y-205458086D01*
X204839281Y-205532015D01*
X204878551Y-205510029D01*
X204881213Y-205458086D01*
X204842425Y-205418547D01*
X204992411Y-205418547D01*
X205011829Y-205463936D01*
X205115486Y-205525831D01*
X205264778Y-205540003D01*
X205374959Y-205504471D01*
X205389213Y-205472750D01*
X205461539Y-205434564D01*
X205636252Y-205439031D01*
X205643213Y-205440026D01*
X205831713Y-205440194D01*
X205897213Y-205382345D01*
X205818409Y-205323234D01*
X205600357Y-205299032D01*
X205495046Y-205299890D01*
X205190445Y-205318344D01*
X205030891Y-205355183D01*
X204992411Y-205418547D01*
X204842425Y-205418547D01*
X204811402Y-205386925D01*
X204733046Y-205374716D01*
X204635003Y-205388699D01*
X203680204Y-205388699D01*
X203450163Y-205225382D01*
X203306413Y-204978048D01*
X203191282Y-204707801D01*
X203046037Y-204381690D01*
X202969083Y-204214190D01*
X202833514Y-203852646D01*
X202783510Y-203513111D01*
X203039130Y-203513111D01*
X203067903Y-203606783D01*
X203132830Y-203670890D01*
X203169867Y-203607124D01*
X203170501Y-203474948D01*
X203154366Y-203449017D01*
X203072939Y-203429289D01*
X203039130Y-203513111D01*
X202783510Y-203513111D01*
X202779573Y-203486381D01*
X202777701Y-203240524D01*
X202791145Y-202706420D01*
X203077388Y-202978927D01*
X203286922Y-203219316D01*
X203456511Y-203482665D01*
X203488558Y-203550427D01*
X203613217Y-203778147D01*
X203726545Y-203837030D01*
X203828870Y-203727174D01*
X203858389Y-203658920D01*
X203907922Y-203552859D01*
X203943696Y-203576036D01*
X203984322Y-203746131D01*
X203992084Y-203785920D01*
X204044259Y-203989207D01*
X204097304Y-204097794D01*
X204108763Y-204103420D01*
X204165824Y-204030847D01*
X204251944Y-203844894D01*
X204310489Y-203691346D01*
X204325753Y-203660943D01*
X204669452Y-203660943D01*
X204682302Y-203725131D01*
X204748515Y-203840447D01*
X204788633Y-203791172D01*
X204796546Y-203675089D01*
X204765287Y-203557044D01*
X204715577Y-203550801D01*
X204669452Y-203660943D01*
X204325753Y-203660943D01*
X204483627Y-203346510D01*
X204732684Y-203029100D01*
X205024851Y-202765329D01*
X205327320Y-202581406D01*
X205607284Y-202503543D01*
X205770024Y-202525298D01*
X205879822Y-202648860D01*
X205897004Y-202873951D01*
X205826792Y-203163891D01*
X205674407Y-203482000D01*
X205622046Y-203564684D01*
X205330165Y-203909541D01*
X204996972Y-204155835D01*
X204652322Y-204293993D01*
X204326074Y-204314439D01*
X204048084Y-204207599D01*
X203937677Y-204104855D01*
X203823290Y-203994362D01*
X203737912Y-204015654D01*
X203694477Y-204062777D01*
X203538194Y-204154665D01*
X203341849Y-204188086D01*
X203178579Y-204211862D01*
X203145259Y-204272283D01*
X203145546Y-204272753D01*
X203260002Y-204333752D01*
X203446876Y-204357420D01*
X203623076Y-204380363D01*
X203695880Y-204435161D01*
X203719534Y-204576002D01*
X203745125Y-204667995D01*
X203772934Y-204773904D01*
X203730245Y-204743892D01*
X203672291Y-204674919D01*
X203519523Y-204555550D01*
X203417289Y-204526753D01*
X203332957Y-204556744D01*
X203330822Y-204675666D01*
X203359566Y-204788959D01*
X203443683Y-205035758D01*
X203548498Y-205186846D01*
X203711228Y-205259655D01*
X203969088Y-205271618D01*
X204329245Y-205243183D01*
X204747639Y-205208067D01*
X205189570Y-205181259D01*
X205556104Y-205168640D01*
X205853405Y-205169289D01*
X206026056Y-205191493D01*
X206118657Y-205251520D01*
X206175807Y-205365637D01*
X206187853Y-205399054D01*
X206231696Y-205672419D01*
X206141062Y-205850021D01*
X205922533Y-205929776D01*
X205582693Y-205909598D01*
X205128125Y-205787403D01*
X205049182Y-205759688D01*
X204673908Y-205637975D01*
X204368255Y-205565021D01*
X204157050Y-205544280D01*
X204065120Y-205579205D01*
X204074853Y-205624140D01*
X204184552Y-205691263D01*
X204391059Y-205753002D01*
X204439683Y-205762685D01*
X204707561Y-205836851D01*
X205021723Y-205958383D01*
X205153565Y-206019964D01*
X205578098Y-206186676D01*
X205911202Y-206219332D01*
X206146782Y-206120599D01*
X206278740Y-205893148D01*
X206300981Y-205539647D01*
X206299072Y-205518383D01*
X206253274Y-205258724D01*
X206182041Y-205068868D01*
X206141607Y-205019282D01*
X206073485Y-204938118D01*
X206125290Y-204895837D01*
X206186391Y-204795098D01*
X206174433Y-204711783D01*
X206152927Y-204623995D01*
X206210387Y-204649033D01*
X206299567Y-204724382D01*
X206433419Y-204826206D01*
X206518480Y-204803039D01*
X206605651Y-204682048D01*
X206971554Y-203998746D01*
X207170310Y-203326699D01*
X207209546Y-202875753D01*
X207198320Y-202525625D01*
X207152060Y-202269509D01*
X207051895Y-202032859D01*
X206952342Y-201859753D01*
X206616244Y-201450536D01*
X206193262Y-201161547D01*
X205716687Y-201010527D01*
X205337338Y-200999113D01*
X204790495Y-201128474D01*
X204253299Y-201396395D01*
X203776225Y-201777100D01*
X203738213Y-201815754D01*
X203550954Y-202015580D01*
X203468200Y-202134753D01*
X203475861Y-202213489D01*
X203559847Y-202292000D01*
X203568880Y-202299039D01*
X203670655Y-202385648D01*
X203645785Y-202408518D01*
X203475061Y-202382376D01*
X203463046Y-202380173D01*
X203266424Y-202371431D01*
X203189311Y-202418263D01*
X203250687Y-202492531D01*
X203357213Y-202537086D01*
X203507663Y-202614274D01*
X203508843Y-202680111D01*
X203379978Y-202706431D01*
X203251380Y-202692141D01*
X203054760Y-202649307D01*
X202947999Y-202615837D01*
X202945372Y-202614029D01*
X202974788Y-202538102D01*
X203098158Y-202375992D01*
X203286931Y-202158416D01*
X203512555Y-201916093D01*
X203746477Y-201679738D01*
X203960144Y-201480070D01*
X204117729Y-201352781D01*
X204662578Y-201058743D01*
X205214717Y-200916860D01*
X205753009Y-200926967D01*
G36*
X204030868Y-204511223D02*
X204034546Y-204569086D01*
X203990237Y-204681779D01*
X203952537Y-204696086D01*
X203905952Y-204634025D01*
X203919262Y-204569086D01*
X203979357Y-204457685D01*
X204001271Y-204442086D01*
X204030868Y-204511223D01*
X204030868Y-204511223D01*
G37*
X204030868Y-204511223D02*
X204034546Y-204569086D01*
X203990237Y-204681779D01*
X203952537Y-204696086D01*
X203905952Y-204634025D01*
X203919262Y-204569086D01*
X203979357Y-204457685D01*
X204001271Y-204442086D01*
X204030868Y-204511223D01*
G36*
X204733046Y-204470680D02*
X204743682Y-204501582D01*
X204627213Y-204513384D01*
X204507017Y-204500079D01*
X204521380Y-204470680D01*
X204694722Y-204459497D01*
X204733046Y-204470680D01*
X204733046Y-204470680D01*
G37*
X204733046Y-204470680D02*
X204743682Y-204501582D01*
X204627213Y-204513384D01*
X204507017Y-204500079D01*
X204521380Y-204470680D01*
X204694722Y-204459497D01*
X204733046Y-204470680D01*
G36*
X205446691Y-204310283D02*
X205389213Y-204357420D01*
X205234864Y-204429063D01*
X205177546Y-204439493D01*
X205162401Y-204404556D01*
X205219880Y-204357420D01*
X205374228Y-204285776D01*
X205431546Y-204275346D01*
X205446691Y-204310283D01*
X205446691Y-204310283D01*
G37*
X205446691Y-204310283D02*
X205389213Y-204357420D01*
X205234864Y-204429063D01*
X205177546Y-204439493D01*
X205162401Y-204404556D01*
X205219880Y-204357420D01*
X205374228Y-204285776D01*
X205431546Y-204275346D01*
X205446691Y-204310283D01*
G36*
X206009775Y-203786918D02*
X205896377Y-203944714D01*
X205821056Y-204031837D01*
X205670055Y-204181752D01*
X205577484Y-204242518D01*
X205563704Y-204230420D01*
X205612191Y-204118410D01*
X205728026Y-203962182D01*
X205867271Y-203810803D01*
X205985989Y-203713339D01*
X206034583Y-203704568D01*
X206009775Y-203786918D01*
X206009775Y-203786918D01*
G37*
X206009775Y-203786918D02*
X205896377Y-203944714D01*
X205821056Y-204031837D01*
X205670055Y-204181752D01*
X205577484Y-204242518D01*
X205563704Y-204230420D01*
X205612191Y-204118410D01*
X205728026Y-203962182D01*
X205867271Y-203810803D01*
X205985989Y-203713339D01*
X206034583Y-203704568D01*
X206009775Y-203786918D01*
G36*
X206122991Y-202946308D02*
X206133124Y-203046788D01*
X206122991Y-203059197D01*
X206072656Y-203047575D01*
X206066546Y-203002753D01*
X206097524Y-202933063D01*
X206122991Y-202946308D01*
X206122991Y-202946308D01*
G37*
X206122991Y-202946308D02*
X206133124Y-203046788D01*
X206122991Y-203059197D01*
X206072656Y-203047575D01*
X206066546Y-203002753D01*
X206097524Y-202933063D01*
X206122991Y-202946308D01*
G36*
X205812210Y-202139544D02*
X206028720Y-202279156D01*
X206079570Y-202353468D01*
X206140218Y-202478596D01*
X206107530Y-202473941D01*
X206008699Y-202388920D01*
X205757827Y-202266636D01*
X205457340Y-202254053D01*
X205188556Y-202353491D01*
X205172562Y-202365060D01*
X205007401Y-202467679D01*
X204912739Y-202485367D01*
X204922322Y-202412096D01*
X204923918Y-202409484D01*
X205030597Y-202314382D01*
X205217772Y-202199592D01*
X205231428Y-202192447D01*
X205528305Y-202107197D01*
X205812210Y-202139544D01*
X205812210Y-202139544D01*
G37*
X205812210Y-202139544D02*
X206028720Y-202279156D01*
X206079570Y-202353468D01*
X206140218Y-202478596D01*
X206107530Y-202473941D01*
X206008699Y-202388920D01*
X205757827Y-202266636D01*
X205457340Y-202254053D01*
X205188556Y-202353491D01*
X205172562Y-202365060D01*
X205007401Y-202467679D01*
X204912739Y-202485367D01*
X204922322Y-202412096D01*
X204923918Y-202409484D01*
X205030597Y-202314382D01*
X205217772Y-202199592D01*
X205231428Y-202192447D01*
X205528305Y-202107197D01*
X205812210Y-202139544D01*
G36*
X205194976Y-201953688D02*
X205142176Y-202019847D01*
X204965600Y-202181301D01*
X204845843Y-202259237D01*
X204725745Y-202316038D01*
X204736783Y-202273818D01*
X204789583Y-202207659D01*
X204966159Y-202046204D01*
X205085916Y-201968269D01*
X205206014Y-201911468D01*
X205194976Y-201953688D01*
X205194976Y-201953688D01*
G37*
X205194976Y-201953688D02*
X205142176Y-202019847D01*
X204965600Y-202181301D01*
X204845843Y-202259237D01*
X204725745Y-202316038D01*
X204736783Y-202273818D01*
X204789583Y-202207659D01*
X204966159Y-202046204D01*
X205085916Y-201968269D01*
X205206014Y-201911468D01*
X205194976Y-201953688D01*
G36*
X205733691Y-201807212D02*
X205905006Y-201869279D01*
X205981789Y-201940079D01*
X205981880Y-201942324D01*
X205921680Y-201976127D01*
X205918380Y-201975607D01*
X205799265Y-201952885D01*
X205590974Y-201911879D01*
X205558546Y-201905427D01*
X205379120Y-201856140D01*
X205358875Y-201807939D01*
X205395779Y-201786117D01*
X205539922Y-201773088D01*
X205733691Y-201807212D01*
X205733691Y-201807212D01*
G37*
X205733691Y-201807212D02*
X205905006Y-201869279D01*
X205981789Y-201940079D01*
X205981880Y-201942324D01*
X205921680Y-201976127D01*
X205918380Y-201975607D01*
X205799265Y-201952885D01*
X205590974Y-201911879D01*
X205558546Y-201905427D01*
X205379120Y-201856140D01*
X205358875Y-201807939D01*
X205395779Y-201786117D01*
X205539922Y-201773088D01*
X205733691Y-201807212D01*
D10*
X246554024Y-146453481D02*
X247173072Y-146453481D01*
X246839738Y-146834433D01*
X246982596Y-146834433D01*
X247077834Y-146882052D01*
X247125453Y-146929671D01*
X247173072Y-147024910D01*
X247173072Y-147263005D01*
X247125453Y-147358243D01*
X247077834Y-147405862D01*
X246982596Y-147453481D01*
X246696881Y-147453481D01*
X246601643Y-147405862D01*
X246554024Y-147358243D01*
X247601643Y-147358243D02*
X247649262Y-147405862D01*
X247601643Y-147453481D01*
X247554024Y-147405862D01*
X247601643Y-147358243D01*
X247601643Y-147453481D01*
X248601643Y-147453481D02*
X248030214Y-147453481D01*
X248315928Y-147453481D02*
X248315928Y-146453481D01*
X248220690Y-146596338D01*
X248125452Y-146691576D01*
X248030214Y-146739195D01*
X248982595Y-146453481D02*
X248982595Y-146643957D01*
X249363548Y-146453481D02*
X249363548Y-146643957D01*
X250744500Y-146453481D02*
X250934977Y-146453481D01*
X251030215Y-146501100D01*
X251125453Y-146596338D01*
X251173072Y-146786814D01*
X251173072Y-147120148D01*
X251125453Y-147310624D01*
X251030215Y-147405862D01*
X250934977Y-147453481D01*
X250744500Y-147453481D01*
X250649262Y-147405862D01*
X250554024Y-147310624D01*
X250506405Y-147120148D01*
X250506405Y-146786814D01*
X250554024Y-146596338D01*
X250649262Y-146501100D01*
X250744500Y-146453481D01*
X252077834Y-147453481D02*
X251601643Y-147453481D01*
X251601643Y-146453481D01*
X252411167Y-146929671D02*
X252744501Y-146929671D01*
X252887358Y-147453481D02*
X252411167Y-147453481D01*
X252411167Y-146453481D01*
X252887358Y-146453481D01*
X253315929Y-147453481D02*
X253315929Y-146453481D01*
X253554024Y-146453481D01*
X253696882Y-146501100D01*
X253792120Y-146596338D01*
X253839739Y-146691576D01*
X253887358Y-146882052D01*
X253887358Y-147024910D01*
X253839739Y-147215386D01*
X253792120Y-147310624D01*
X253696882Y-147405862D01*
X253554024Y-147453481D01*
X253315929Y-147453481D01*
M02*
